<?xml version="1.0" standalone="no"?>
<!DOCTYPE svg PUBLIC "-//W3C//DTD SVG 1.1//EN" "http://www.w3.org/Graphics/SVG/1.1/DTD/svg11.dtd" >
<svg xmlns="http://www.w3.org/2000/svg">
<metadata>
This is a custom SVG webfont generated by Font Squirrel.
Copyright   : Copyright c 2010 by Kimberly Geswein All rights reserved
Designer    : Kimberly Geswein
Foundry     : Kimberly Geswein
</metadata>
<defs>
<font id="ThrowMyHandsUpintheAirRegular" horiz-adv-x="1175" >
<font-face units-per-em="2048" ascent="1638" descent="-410" />
<missing-glyph horiz-adv-x="1024" />
<glyph unicode=" "  horiz-adv-x="1024" />
<glyph unicode="&#x09;" horiz-adv-x="1024" />
<glyph unicode="&#xa0;" horiz-adv-x="1024" />
<glyph unicode="!" horiz-adv-x="321" d="M86 336l16 1544h-16v33h100v-1477v-67q-10 -29 -27.5 -33t-39.5 -4q-4 0 -16.5 2t-16.5 2zM104 29q0 18 3.5 39.5t12.5 40t25.5 31t42.5 12.5q4 0 15.5 -12.5t15.5 -18.5q4 -29 6 -56.5t-8 -44t-36 -17.5t-77 26z" />
<glyph unicode="&#x22;" horiz-adv-x="571" d="M68 772v569q0 6 12 18.5t20 16.5q4 0 9 2q4 0 6 1t6 1q2 0 3 -1t5 -1q2 -2 6 -2q4 -6 9.5 -19.5t10.5 -29.5l9 -31q4 -14 4 -20v-504q0 -4 -12.5 -16.5t-20.5 -18.5q-4 -2 -8 -2h-8h-10q-4 0 -9 2q-8 6 -20 18.5t-12 16.5zM336 737v19q0 80 18.5 152.5t18.5 164.5v41 q0 29 -1 60.5t-1 60.5v41q-6 8 -18.5 33.5t-16.5 31.5v19q0 29 21.5 41t45.5 12q39 0 60.5 -27.5t30 -66.5t9.5 -79t1 -64v-132q0 -66 -11.5 -127t-39 -116.5t-82.5 -95.5q-6 4 -19 16z" />
<glyph unicode="#" horiz-adv-x="1511" d="M29 772q0 4 2 17.5t2 15.5l132 43q77 25 136 59q12 6 29 17l32 21l28 20l11 8v303q0 4 13.5 17.5t21.5 15.5q2 0 6 2q4 0 6.5 1t4.5 1q4 0 8 -2t8 -2l7 -45l11 -70q6 -37 10.5 -70.5l6.5 -48.5v-35q4 -8 16 -20t17 -12q8 0 26 4l40 9q22 5 41.5 10t25.5 9q6 51 5 101.5 t0 96.5t6 86t22.5 69.5t51 46t91.5 16.5q0 -47 -4 -85t-9.5 -76t-9.5 -82t-4 -101q57 0 128 17.5t146 38.5l148 43q74 22 135 32h21h12l17 -17l18 -18v-6q0 -4 1 -6t1 -4q0 -4 -1 -9t-1 -7q-74 -6 -161 -24.5t-174 -43.5t-166 -52l-138 -48v-68v-68q2 -18 6 -61t9 -91 t10 -90l8 -59h67q78 0 153 18.5t150 18.5v-37l-336 -100l5.5 -69t1.5 -93t-11.5 -96t-29.5 -78q-4 -2 -7 -2q-4 -2 -10 -2q-53 0 -69.5 36t-14.5 82t13.5 89t11.5 57q-121 0 -179.5 -29.5t-80 -73.5t-18.5 -96.5t6.5 -96.5t-9 -73.5t-61.5 -29.5q-6 0 -10 2q-4 0 -9 2 q-8 4 -20 17.5t-12 15.5v313q-14 0 -29.5 -5t-29 -6t-25 5t-17.5 29q-6 20 -10 51l-4 33h147v387q-16 -10 -58 -30l-90 -41l-91 -40q-43 -18 -62 -24h-16q-31 0 -43 21t-12 46zM504 494q57 0 118.5 7t114.5 36q-12 98 -28.5 201.5t-38.5 201.5q-2 0 -15.5 2t-17.5 2 q-12 0 -34.5 -5t-44 -14.5t-38 -22.5t-16.5 -30v-378z" />
<glyph unicode="$" horiz-adv-x="972" d="M33 940v16v17q2 6 6 16t9 20.5t10 19.5t8 11q31 37 81 92l100 105l84 87q36 36 38 36h84l12 98q4 41 6 83t-2 71q-2 18 -11 61l-20 91q-10 48 -20 90t-17 59q4 0 16.5 2t18.5 2q41 0 66.5 -33t34.5 -72l14 -79q10 -57 20 -121l20 -121q9 -57 13 -80q37 -49 78 -78.5 t77 -59.5t59.5 -71t23.5 -115q0 -41 -10.5 -66.5t-59.5 -47.5q14 86 -21.5 171t-113.5 132v-369l268 -102q8 -2 21.5 -27.5t13.5 -38.5q0 -72 -30.5 -134t-76 -116.5t-98.5 -100.5l-98 -85q2 -12 2 -46v-71v-70q0 -34 -2 -48q-4 -47 -17.5 -59.5t-46.5 -12.5q-8 0 -19 1 t-22.5 4t-19.5 10t-8 22v235q-55 8 -104.5 22.5t-86.5 40t-58.5 66.5t-21.5 107q0 8 5 26l9 40q5 22 11 41.5t10 25.5q31 -35 36 -81t11.5 -88t29 -71.5t91.5 -29.5q8 0 19.5 1t21.5 4t18.5 10t8.5 21v402q-55 2 -122 3t-132.5 11t-122.5 37t-94 84zM158 991q0 -45 46 -65.5 t105.5 -26.5t115.5 -4t79 2v385q-55 0 -103.5 -23.5t-89.5 -60.5t-75 -79l-68 -79q-4 -4 -7 -24.5t-3 -24.5zM637 436l54 50q34 32 67 70t56.5 77t23.5 72q0 18 -18.5 32.5t-44 22.5t-50.5 12t-37 4q-6 0 -26.5 -2t-24.5 -2v-336z" />
<glyph unicode="%" horiz-adv-x="1208" d="M0 1376q4 12 52 48t121 81l159 94q86 49 164.5 89.5t140 67t84.5 26.5q41 0 64.5 -13.5t23.5 -56.5q0 -4 -2 -17.5t-2 -15.5q-8 -43 -23 -132l-31 -201l-36 -238l-34 -238l-28 -201q-12 -89 -16 -132q-2 -25 -3 -86.5t-1 -131t1 -132t3 -87.5q-4 -12 -11.5 -29.5 t-17.5 -34t-24.5 -28.5t-30.5 -12q-4 0 -8 2q-4 0 -8 2q-8 4 -20.5 17.5t-12.5 15.5v336l201 1243v59q-82 0 -133.5 -29.5t-81 -79t-45 -113t-26.5 -128t-23.5 -128t-36 -112.5t-64.5 -78.5t-111 -29.5h-16q-29 12 -51 24q-18 10 -33.5 21.5t-15.5 21.5v283q-4 0 -16.5 -8 t-18.5 -6q-4 6 -10 16l-13 21q-6 10 -9 19t-1 11zM164 1159q0 -6 1 -17.5t1 -24.5t1 -25.5t1 -16.5q43 14 75.5 44t54 70t32 85t10.5 90v19q0 13 -3 26.5t-11.5 24t-22.5 10.5q-47 0 -74.5 -32t-42 -77t-18.5 -94t-4 -82zM668 442q0 68 20.5 138.5t58 129t95 95.5t131.5 37 q78 0 123 -32t45 -122q0 -57 -20.5 -141t-57.5 -161t-89 -132t-118 -55q-57 0 -94 21.5t-57.5 55t-28.5 77.5t-8 89zM768 571q0 -6 2 -18t2 -16l68 67l32 -33l-7 -33.5t-10 -50t-10 -50t-5 -34.5v-16v-18q0 -4 5 -13.5t10 -20.5t10 -20.5t7 -11.5l55 76q30 43 55.5 89 t41.5 94t16 93q0 20 -1 42t-7 39.5t-19.5 28.5t-35.5 11q-35 0 -72 -18.5t-67.5 -48t-50 -65.5t-19.5 -73z" />
<glyph unicode="&#x26;" horiz-adv-x="1107" d="M29 315q0 39 20.5 126t55 194.5t76.5 223.5t85 210t82 155.5t68 61.5q0 -90 10 -172t30.5 -161t49.5 -156.5t63 -159.5q61 43 119 92l114 99q56 50 114.5 96.5t123.5 83.5v-68l-403 -403q-2 -2 -2 -7q-2 -4 -2 -10q0 -72 48 -130t105.5 -113.5t105.5 -114t48 -129.5 q0 -2 -13.5 -15.5t-21.5 -17.5q-2 -2 -6 -2q-4 -2 -10 -2q-12 0 -32.5 10t-43.5 24l-43 24q-20 11 -33 14l68 32q-68 76 -128.5 160t-107.5 176q-2 0 -7 2t-9 2q-53 0 -102.5 -32.5t-98.5 -71.5t-101 -72t-114 -33q-59 0 -83.5 12.5t-24.5 71.5zM131 330q31 0 88 22.5 t113.5 58t98.5 77.5t42 79q0 8 -2 20.5t-2 16.5q-8 33 -25 85l-31 101q-15 48 -28.5 82.5t-15.5 34.5h-33q-2 0 -22 -46l-46 -110l-54 -134l-46 -113q-2 -4 -6 -21.5t-10.5 -39t-11.5 -42t-7 -32.5q0 -2 -1 -18.5t-1 -20.5z" />
<glyph unicode="'" horiz-adv-x="368" d="M135 1030v656q43 0 78 -24t57 -60l-4 -420q0 -37 7.5 -58.5t16.5 -39t16 -37t7 -52.5h-145z" />
<glyph unicode="(" horiz-adv-x="571" d="M29 471q0 63 11 178t34.5 249t60.5 273.5t90.5 253t122 185t156.5 71.5q4 0 16 -1t17 -1q-18 -25 -32 -61l-24 -64q-10 -27 -17 -34t-11 24q-92 -94 -154.5 -222t-100.5 -268.5t-54.5 -282.5t-16.5 -267q0 -12 1 -41l2 -60.5l2 -60.5t1 -39q12 -45 43 -89t72 -78 t90 -53.5t98 -14.5q0 -4 1 -9.5t1 -7.5q0 -39 -27.5 -47t-56.5 -8q-57 0 -105 19.5t-88 51t-72 75.5t-56 94q0 12 -1 44.5t-1 70.5t-1 72t-1 48z" />
<glyph unicode=")" horiz-adv-x="571" d="M12 -6q0 25 39 76l89 111l98 121q47 60 63 101q70 174 87.5 362.5t17.5 375.5v119q0 41 -6.5 75.5t-20.5 78.5l-43 130q-10 27 -32.5 51.5t-46.5 47t-42 43t-18 43.5q0 31 22.5 42t48.5 11q51 0 89 -43t65 -109.5t43 -147.5t25.5 -157t12.5 -139.5t3 -91.5 q0 -70 -8.5 -178.5t-27.5 -231.5t-55 -246t-90.5 -221t-131.5 -160.5t-181 -62.5z" />
<glyph unicode="*" horiz-adv-x="1040" d="M27 520h206v51q-72 23 -117.5 79.5t-45.5 131.5q53 0 95 -23.5t82 -53.5l81 -60q41 -29 92 -41v303h100v-168q20 10 47 28.5t57.5 36t61.5 30t59 12.5q0 -37 -17 -62.5t-38.5 -48t-39 -45t-17.5 -53.5q0 -4 2 -16.5t2 -16.5q14 4 53 13.5l82 20.5l81 20q38 9 52 14h17h18 q12 -4 38 -16.5t28 -18.5q0 -2 2 -6q0 -4 1 -6t1 -4t-2 -7.5t-2 -9.5q-47 -12 -103.5 -23.5t-115 -26.5t-115 -35.5t-103.5 -47.5q43 -23 82 -41t68 -40.5t46 -53.5t17 -80q-45 0 -80.5 16.5t-69.5 35t-69 34.5t-78 16v-325q0 -8 -18 -20.5t-31 -12.5q-16 0 -41.5 12.5 t-25.5 20.5v203q-6 -10 -25 -30l-40 -41l-42 -40.5t-29 -24.5q-2 -2 -6 -2h-10q-31 0 -42 22.5t-11 47.5q0 18 24.5 57t55.5 79l58 73q28 33 34 43h-270q-2 0 -15.5 20.5t-17.5 30.5q-4 16 -4 31q-2 8 -2 18z" />
<glyph unicode="+" d="M-4 352q0 6 2 10q0 4 2 7q4 8 16.5 21t16.5 13l487 68v537h101v-498q66 0 129 15.5t125.5 35t125 34.5t127.5 15q0 -53 -29.5 -83.5t-77.5 -47t-108 -24.5l-117 -17q-58 -8 -109.5 -23.5t-82.5 -45.5q-4 -2 -2 -15.5t2 -17.5q-2 -18 -6 -61.5t-9 -91.5t-10 -91l-8 -59 l-16 -17q-12 -12 -18 -16q-2 -2 -7 -2q-4 -2 -10 -2t-10 2q-4 0 -6 2q-4 4 -17.5 16.5t-15.5 16.5v14v21q0 8 5 36.5l10.5 62.5l10.5 63.5t7 37.5q0 8 -2 31t-2 31q-115 0 -220.5 -13.5t-216.5 -13.5q-25 0 -46 9t-21 40z" />
<glyph unicode="," horiz-adv-x="315" d="M76 38q2 71 18.5 145.5t44 118.5t64.5 40t80 -90l-88 -363q2 2 -8 -1l-20 -7l-21.5 -8t-10.5 -2q-33 -4 -47 46t-12 121z" />
<glyph unicode="-" horiz-adv-x="1040" d="M29 84q0 6 2 10q0 4 2 6q4 4 16 17.5t17 17.5q156 -12 266 -3t209 27l198 34q100 16 234 16v-109l-46 -8l-111 -19l-133 -23q-69 -11 -114 -17q-29 -4 -80 -9l-105 -11l-97 -9q-43 -4 -54 -4q-4 0 -36.5 2t-69.5 10t-67.5 24.5t-30.5 47.5z" />
<glyph unicode="." horiz-adv-x="481" d="M172 31q0 18 3 39.5t12.5 40t25.5 31t43 12.5q4 0 15.5 -12.5t15.5 -18.5q4 -29 6 -56.5t-8.5 -44t-36 -17.5t-76.5 26z" />
<glyph unicode="/" horiz-adv-x="872" d="M-68 -236l773 1981q8 18 19 48t27.5 57.5t38 48t52.5 20.5q0 -2 -1 -18.5t-1 -20.5l-14 -42q-9 -30 -20 -62l-21 -61q-9 -28 -13 -38l-39 -97l-67 -169l-86 -216l-96 -240l-94 -239l-85 -216l-66 -169l-38 -98q-20 -51 -41 -119l-44 -143q-24 -74 -51.5 -145.5 t-64.5 -128.5q-4 0 -9 -2t-7 -2q-6 0 -11 2q-4 0 -8 2l-16 16l-17 17v18v16z" />
<glyph unicode="0" horiz-adv-x="839" d="M33 303l6 70q4 47 10 106.5t14.5 125t14.5 124.5t12 107.5t10 70.5q4 39 16.5 88t33 97.5t50 89.5t68.5 61h13q10 0 21 -1t20.5 -1t13.5 2q33 20 57.5 50t49 56.5t54 45t72.5 18.5q84 0 127 -48t60.5 -115.5t17.5 -141.5v-127q0 -66 -13 -164t-41 -207.5t-70 -219 t-100 -197t-133 -142.5t-165 -55q-59 0 -100 28.5t-67 72.5t-38 98.5t-14 107.5zM133 367q0 -25 3 -69t14.5 -89t35 -78t66.5 -33q76 0 140.5 52.5t114.5 134.5t88 186t63.5 206.5t38 196t12.5 154.5q0 29 1 77t-7.5 94t-31 80t-67.5 34q-72 0 -123 -41t-89 -106.5 t-63.5 -147.5t-43 -165t-29.5 -157.5t-23 -124.5q-20 8 -32.5 32t-19.5 51.5t-10 52t-3 32.5q-4 -18 -9 -66l-11 -103l-9 -101q-4 -47 -6 -66v-36zM184 906.5q0 -15.5 4.5 -27t12.5 -7.5q16 8 16 34t-16 34q-8 4 -12.5 -7t-4.5 -26.5zM233 1008l68 133q-29 -16 -48.5 -50 t-19.5 -67v-16z" />
<glyph unicode="1" horiz-adv-x="268" d="M61 -27q0 322 12.5 656t26.5 647h68q10 -254 12 -441.5t0 -322.5t-7 -224t-9 -143.5t-8 -82t-4 -39.5q0 -31 1 -43.5t-6.5 -13.5t-27 3t-58.5 4z" />
<glyph unicode="2" horiz-adv-x="1040" d="M18 829q0 53 21.5 120t58.5 136.5t87.5 134t107.5 115.5t119.5 82t124.5 31q41 0 77.5 -22.5t64.5 -58.5t43 -78t15 -81q0 -74 -12 -155.5t-30.5 -165.5t-42 -165t-48.5 -151q-6 -12 -25 -62l-42 -107l-42 -105q-19 -49 -26 -61v-17v-18q18 6 61 19t92 30l91 32l59 21 q4 0 14 7l21 15q10 7 19.5 15t11.5 12h-101q8 8 34 27l34 24h8q4 0 5 1.5t3 1.5t4 -1.5t6 -1.5h7q35 -14 61.5 -20t44 -14.5t25.5 -22.5t8 -41q0 -49 -41 -73.5t-93 -36t-103.5 -15.5t-69.5 -12q-20 -8 -69 -31l-101 -49l-101 -51q-47 -25 -63 -37q-4 0 -9 -2t-10 -2 q-29 0 -41 22.5t-12 49.5q0 37 31 103.5t72 139.5l80 145q40 71 57 115q37 98 54 183.5t23.5 169.5t4.5 172t-2 194q-104 0 -174 -33.5t-116 -85t-77 -111.5l-58 -112q-28 -51 -60 -85t-81 -34z" />
<glyph unicode="3" horiz-adv-x="872" d="M27 930q0 88 49 170t124.5 145.5t167 100t173.5 36.5q96 0 132 -33.5t36 -129.5q0 -57 -9.5 -105.5t-27 -92.5t-43 -88t-60.5 -93q74 -20 121 -44t74 -61t36 -90t9 -131q0 -90 -22.5 -182t-70.5 -167t-122 -122t-174 -47q-25 0 -58.5 4t-63.5 15.5t-50.5 33t-20.5 55.5 q4 0 20.5 -2t20.5 -2t19 -5l31 -11l32 -11q14 -5 19 -5h16q70 0 134.5 44t112.5 109.5t76.5 141t28.5 141.5q0 86 -41 147.5t-129 61.5q-63 0 -107 -34t-83 -77t-80 -82t-96 -49q-4 0 -31 12.5t-37 20.5q-2 2 -2 6v10q0 4 1 9.5t1 7.5q90 102 172 170.5t144.5 141.5 t99.5 166t37 245q-86 0 -147.5 -25t-106.5 -61.5t-79 -78.5t-67.5 -79t-70.5 -61.5t-88 -24.5z" />
<glyph unicode="4" horiz-adv-x="1075" d="M0 369q0 25 21.5 72.5t56.5 107.5l77 127l83 134l75 126q35 59 56 104h73q0 -80 -36.5 -150.5t-79.5 -137t-80 -134t-37 -141.5q47 0 71.5 -2t37 -4t19.5 -2t20.5 3t38.5 10l75 22l61 19l72 22l84 26v840q0 2 10.5 11.5t23.5 19.5l28 20q14 10 22 15q4 4 17.5 7t15.5 3 v-895q10 0 34.5 2t51.5 5t50.5 5t31.5 0q8 0 21.5 -12t13.5 -21q-4 -6 -16.5 -18t-18.5 -16q-6 -2 -31 -7l-53 -9l-53 -9q-25 -4 -31 -8q-37 -25 -44 -74t-1 -107.5t15 -120t5 -111.5t-30.5 -82t-94.5 -32v459q-6 0 -21.5 2t-19.5 2q-8 0 -24.5 -2t-18.5 -2l-87 -18 l-148 -32l-149 -32l-87 -18q-2 0 -15 -2t-22 -2q-8 0 -18 1t-20.5 4t-17.5 10.5t-7 21.5z" />
<glyph unicode="5" horiz-adv-x="1040" d="M63 582q0 29 4.5 82t14.5 118.5t26.5 137t39 136t52 115t68.5 72.5q25 -6 31 -23.5t4 -37t-8 -38t-6 -30.5q186 0 364 17.5t361 17.5q0 -45 -35 -68.5t-92.5 -36t-130 -16.5t-148.5 -12t-148.5 -24.5t-130 -50.5t-92 -90t-34.5 -146v-33q72 43 146.5 73.5t158.5 30.5 q80 0 136 -30.5t93 -82t54.5 -116t17.5 -133.5q0 -72 -23.5 -145.5t-66.5 -134t-105.5 -99.5t-142.5 -39q-31 0 -70 5t-75.5 17.5t-69.5 33t-53 48.5h16h17q6 0 30 -5l53 -11l54 -11q25 -5 30 -5h17q66 0 119 33.5t91 86t58.5 113.5t20.5 119q0 47 -9.5 93t-32 82 t-58.5 58.5t-89 22.5q-55 0 -104 -26.5t-95.5 -59.5t-91.5 -59.5t-94 -26.5q-55 0 -63.5 21.5t-8.5 56.5z" />
<glyph unicode="6" horiz-adv-x="907" d="M63 483q0 41 9.5 127t26 192.5t43 219.5t61.5 205t78 151.5t96 59.5q0 -109 -33 -212.5t-73 -213t-72.5 -228t-32.5 -260.5v-91q0 -40 9 -73.5t30.5 -63.5t62.5 -60l14 20l20 31l21 29l13 20l26 35l50 61l61 75l65 78l58 69l43 51q25 31 54.5 47t62 22t68.5 7t73 1 q0 -133 -43 -228t-112.5 -172t-158.5 -143l-180 -139q-18 -14 -26 -31.5t-16.5 -33t-23.5 -25.5t-50 -10q-25 0 -51.5 28.5t-52 73.5t-47 101.5t-38 110t-26 99t-9.5 70.5zM371 236q2 0 15 -2.5t17 -2.5q53 0 118 44t120 106.5t93 132.5t38 123q0 8 -12 21.5t-21 13.5 l-20 -20l-31 -29l-31 -31q-14 -14 -18 -21q-16 -18 -54 -66l-81 -103l-81 -101z" />
<glyph unicode="7" horiz-adv-x="940" d="M29 956q0 33 32.5 62t83 53.5t111.5 44t120.5 33.5t109 21.5t73.5 7.5h42q28 0 54.5 -6.5t46 -20.5t19.5 -43v-369h158q0 -39 -22.5 -54t-51.5 -24.5l-57.5 -19.5t-42.5 -37q-20 -41 -27.5 -94t-9.5 -111.5t-3 -118t-9.5 -113.5t-28 -97t-58.5 -70q-55 16 -62 50t-7 77 q0 111 22.5 225.5t46.5 218.5h-32q-51 0 -99.5 -17t-96.5 -37l-95 -37q-47 -17 -96 -17q0 59 33.5 97t83.5 60.5t109.5 36t110 27.5t84 33.5t33.5 54.5v268q0 4 -25.5 16.5t-41.5 18.5h-17q-51 0 -106.5 -19.5t-110.5 -46t-107.5 -55t-95.5 -47.5q-4 -2 -8 -2q-2 -2 -6 -2 h-2q-6 0 -10 2q-4 0 -8 2t-16.5 15.5t-16.5 17.5q-2 4 -2 8q-2 4 -2 8z" />
<glyph unicode="8" horiz-adv-x="1075" d="M12 588q0 68 21.5 149.5t59.5 165.5t92.5 163t121 141.5t141 99t156.5 36.5q31 0 56.5 -16t44 -40.5t27.5 -54.5t9 -54q0 -59 -32.5 -116.5t-71.5 -109.5l-72 -93q-33 -42 -33 -71q0 -2 2.5 -7t2.5 -9q51 29 93 33t97 4q57 0 109.5 -14.5t92.5 -44t62.5 -73.5t22.5 -104 q0 -104 -56.5 -206.5t-145.5 -184.5t-197.5 -132t-213.5 -50q-59 0 -113.5 23.5t-86.5 76.5q0 10 -1 37l-2 56l-2 55q-1 27 -1 37v94q0 45 6 88t21.5 85t45.5 85q-8 6 -27.5 16.5t-40.5 20.5l-40 19q-18 9 -27 12q-4 0 -8 2q-4 0 -6 1t-6 1q-2 0 -3 -1t-4 -1q-2 -2 -6 -2 q-16 -25 -19 -45.5t-7 -37t-16.5 -25.5t-45.5 -9zM231 841q0 -17 4.5 -32.5t15.5 -26t34 -10.5h16q66 20 126 62.5t107.5 98.5t75 121.5t27.5 137.5v16q-4 4 -16.5 17.5t-16.5 17.5q-55 -14 -109.5 -50t-103.5 -81t-90 -92l-68 -80q0 -8 -1 -33.5t-1 -34.5v-31zM299 258 q0 -27 2 -54.5t11.5 -51t29.5 -39t57 -15.5q82 0 171 43t165 112t125 152.5t49 167.5q0 20 -1 41t-7 38.5t-20.5 30.5t-42.5 22q-6 0 -25.5 1t-41 3t-40 3t-26.5 1q-109 0 -186 -33t-126 -92.5t-71.5 -143.5t-22.5 -186z" />
<glyph unicode="9" horiz-adv-x="940" d="M33 805q0 59 31.5 142t85 173t121 179.5t140 160t143.5 114.5t130 44q35 0 69.5 -5t61.5 -19.5t43 -40t16 -66.5v-18q0 -11 -1 -23t-1 -23v-12q-2 -12 -12 -62l-21 -107l-22 -105q-10 -49 -12 -62q0 -2 -2 -42t-4 -101.5t-6.5 -138t-7.5 -154.5t-7 -148.5t-6 -121.5v-17 v-16q0 -16 5 -54l10.5 -81l10.5 -81l7 -52q-2 -6 -11.5 -16.5l-19.5 -21t-20.5 -19.5t-16.5 -11q-2 -2 -6 -2q-4 -2 -10 -2t-10 2q-4 0 -6 2q-8 4 -21.5 17.5t-13.5 15.5v1042l-108 -118q-60 -65 -130 -122t-145.5 -95t-155.5 -38q-35 0 -66.5 33t-31.5 70zM133 840 q4 0 24.5 -2t26.5 -2q100 0 199.5 65.5t177.5 162.5t127 209.5t49 207.5q0 68 -67 67q-4 0 -16.5 -2t-16.5 -2q-80 -68 -159 -147.5t-147.5 -168.5t-120.5 -186.5t-77 -201.5z" />
<glyph unicode=":" horiz-adv-x="274" d="M72 168v158q41 0 88 7t80 36q-14 -43 -26.5 -96.5t-12.5 -104.5h-129zM72 698v174h149q6 -53 2 -94t-21.5 -65.5t-49 -29.5t-80.5 15z" />
<glyph unicode=";" horiz-adv-x="581" d="M37 -496q61 53 117.5 117t99.5 136.5t67.5 151.5t24.5 161v21q0 15 -1 32.5t-1 32.5v20q-10 16 -32 27l-43 21q-22 11 -37 24.5t-15 36.5q0 18 10.5 28.5t24.5 15.5t31 5h30q45 0 75 -20.5t48.5 -53.5t25.5 -74t7 -80q0 -45 -14.5 -107t-42 -129t-65.5 -133.5t-84 -118.5 t-99 -84t-111 -32q-4 0 -8 1t-8 1zM229 727q0 18 3.5 39.5t12.5 40t25.5 31t42.5 12.5q4 0 15.5 -12.5t15.5 -18.5q4 -29 6 -56.5t-8 -44t-36 -17.5t-77 26z" />
<glyph unicode="&#x3c;" horiz-adv-x="872" d="M0 571q8 4 27 19l40 31l41 30l27 21q14 12 43 41l66 65l77 77l76 77l65 65l42 43h33v-67l-369 -436q-10 -12 5 -35t46 -50.5t70 -57.5l76 -55l66 -45q30 -19 40 -26q18 -10 66 -34l101 -50l101 -51q47 -25 66 -33v-16v-16q0 -6 -5 -17l-10 -20q-5 -10 -10.5 -19.5 t-7.5 -11.5q-4 -2 -6 -2q-4 -2 -8 -2q-41 0 -110.5 31.5t-151.5 83t-167 116t-156 128t-118 120.5t-55 96z" />
<glyph unicode="=" horiz-adv-x="1075" d="M68 471q39 59 109.5 88t152.5 40t163.5 10t145.5 -1q10 0 33.5 -1t50.5 -1t50.5 -1t33.5 -1q6 0 17.5 -8t22.5 -18.5t18 -21.5t7 -19l-133 -33q-6 0 -19 1t-29.5 1t-31 1t-20.5 1q-63 0 -125 -12l-122 -26l-122 -26q-61 -12 -123 -12q-23 0 -47 4t-32 35zM131 70 q0 29 50 51t126 36.5t167 23.5t175 14.5t147.5 7.5t84.5 2q16 0 41.5 -1t51 -1t45 -1t21.5 -1l35 -33l-67 -33q-123 -4 -212 -9t-169 -17.5t-164 -31l-195 -44.5q-4 0 -18 -5l-32 -12l-32 -11q-14 -5 -18 -5q-14 0 -21.5 8t-10.5 19.5t-4 24t-1 18.5z" />
<glyph unicode="&#x3e;" horiz-adv-x="839" d="M57 1124q18 0 81 -21.5t146 -54.5l176 -72l170 -72l128 -56q51 -23 51 -25t-1 -4t-1 -6v-8l-13 -28q-9 -19 -21 -41l-20 -40q-9 -18 -14 -24l-50 -75l-77 -114l-90 -133l-90 -132l-78 -113l-51 -72l-16 -17q-12 -12 -19 -16q-2 -2 -6 -2q-4 -2 -10 -2q-4 0 -8 2 q-4 0 -8 2q-4 4 -17.5 16.5t-15.5 16.5v18q0 37 24.5 81t57 87t66.5 82t52 68l49 72l70 112l71 112q34 52 46 74q0 2 1 7.5t1 9.5q0 20 -43 40.5t-109 42.5l-140 48q-75 27 -140.5 60.5t-108.5 76.5t-43 100z" />
<glyph unicode="?" horiz-adv-x="985" d="M66 1171q0 119 57 220.5t144 175t189.5 115.5t192.5 42q31 0 83 -15t101.5 -44t84 -70t28.5 -92q-8 -72 -45 -154.5t-93 -164.5t-126 -158t-144.5 -134t-148.5 -93t-137 -35q0 45 42 90t106 95l139 107q74 56 138 121.5t106 142.5t42 167q0 31 -18.5 54.5t-46 38.5 t-57 23.5t-54.5 8.5q-90 0 -169 -39t-147.5 -101.5t-125.5 -141.5t-103 -159h-38zM354 260q6 18 26.5 34.5t43 27t42 10.5t28 -16.5t-1 -52.5t-43.5 -97q-35 0 -65 23.5t-30 70.5z" />
<glyph unicode="@" horiz-adv-x="1511" d="M63 621q0 137 33 285.5t95.5 292.5t153.5 274.5t206 228.5t252 156.5t293 58.5q86 0 157.5 -27.5t121.5 -79t78 -123t28 -159.5q0 -78 -17.5 -148.5t-46 -138t-65.5 -134.5l-76 -134q-18 -16 -47 -35.5t-62.5 -35t-67.5 -25t-59 -5.5q-14 2 -29.5 19.5t-29.5 39t-25.5 43 t-15.5 34.5l-57.5 -44t-68.5 -44.5t-72.5 -35t-69.5 -14.5q-31 0 -51.5 7.5t-49.5 29.5q-2 4 -3 17l-2 25q-1 13 -1 25v17q0 53 36 131t92.5 149.5t126 122t136.5 50.5q27 0 60 -9.5t61.5 -25.5t48 -42t19.5 -58q0 -29 -16.5 -42.5t-37 -23.5t-37 -20.5t-16.5 -30.5v-10 q0 -4 2 -6q10 -27 17.5 -52.5t16.5 -45t24.5 -32t44.5 -12.5t58.5 30t55 77t48 104.5t40 114.5t26.5 106.5t9 77.5q0 63 -19.5 119.5t-56 97.5t-91 64.5t-121.5 23.5q-141 0 -264 -58t-225.5 -155.5t-183.5 -223.5t-136.5 -262t-85 -273.5t-29.5 -255.5q0 -170 71.5 -282 t186.5 -178.5t259 -95t290 -32.5v-43q-160 0 -321.5 26.5t-293 96t-214.5 192.5t-83 316zM668 1008q0 -4 2 -17.5t2 -17.5q80 14 119.5 59t68.5 102l59 113q30 57 89 96q-4 0 -16.5 1.5t-16.5 1.5q-45 0 -99.5 -36t-100.5 -88.5t-76.5 -110.5t-30.5 -103z" />
<glyph unicode="A" d="M33 51q0 29 23.5 83t54.5 114l57 111q27 52 33 77q4 20 20 82l37 145l43 176l43 176l36 145q15 62 21 83l28 108q17 69 43 135t62.5 114.5t86.5 48.5q16 0 30.5 -12.5t25.5 -29t18 -34t10 -29.5l167 -672q2 -8 15.5 -20t17.5 -12q2 0 13 5l21 11l22 11q10 5 12 5 q8 4 38.5 6.5t39.5 2.5q0 -33 -18.5 -54.5t-40 -40t-39 -40t-17.5 -54.5q0 -74 28.5 -131t63.5 -111.5t63.5 -109.5t28.5 -125q-66 0 -108.5 34t-70.5 85t-46 111l-35 112q-16 51 -35.5 85t-50.5 34q-6 0 -42 -11.5t-86 -31t-107.5 -45t-107.5 -52t-86 -52t-44 -48.5 l-133 -403q-10 -29 -28.5 -33t-39.5 -4q-27 0 -47 12t-20 43zM365 688q0 -4 2 -24.5t2 -26.5q12 4 48 13l81 22q45 12 93 28.5t88 35t66.5 41t26.5 46.5v17q-4 14 -14 60l-24 109q-13 62 -29.5 131.5t-29.5 132.5l-24 108q-10 46 -14 63v33q-4 6 -16 18l-17 16l-86 -195 q-43 -101 -76.5 -206.5t-55 -212.5t-21.5 -209z" />
<glyph unicode="B" horiz-adv-x="1343" d="M63 1092q0 2 2.5 7t2.5 9q68 57 102.5 98l63 72t64.5 53.5t105 44.5q10 2 50 18l85 32l85 33q39 15 49 18q2 0 16 1t34.5 1t41 1t33.5 1q41 0 85 -1t79.5 -14.5t59 -42t23.5 -84.5q0 -66 -34.5 -138.5t-86 -141t-110.5 -127t-108 -92.5q37 -2 94 -3t120.5 -9.5t127 -24 t114.5 -44t83 -74.5t32 -114q0 -115 -59.5 -218t-152.5 -181t-206 -125t-219 -47q-49 0 -97 12.5t-89 37t-72 62.5t-45 89q-16 242 -28.5 472t-39.5 468q-23 -14 -31 -32.5t-16 -34t-21.5 -26t-43.5 -10.5q-14 0 -30.5 1t-30 6.5t-23 17t-9.5 29.5zM403 168q35 -59 95.5 -82 t122.5 -23q86 0 184 41t182 108t139.5 153t55.5 176q0 68 -32 107.5t-80 60t-105.5 26.5t-108.5 6q-18 0 -56 -2t-85 -8t-96.5 -18.5t-90.5 -30.5t-66.5 -46t-25.5 -65v-370zM403 772q0 -8 12.5 -20.5t20.5 -12.5q41 0 94.5 35t109.5 90.5t110.5 123t96.5 135t67.5 126 t25.5 94.5q0 4 -12.5 16.5t-20.5 16.5t-23.5 10.5t-30.5 11.5l-29 9q-13 4 -17 4q-20 0 -86 -18.5t-136.5 -45t-126 -55t-55.5 -49.5v-471z" />
<glyph unicode="C" horiz-adv-x="1075" d="M63 432q0 70 8.5 170t29 210t54 217.5t86 192.5t123 138t164.5 53q74 0 112 -39t55.5 -95t18.5 -122.5t1 -122.5q-41 0 -58.5 23.5t-24.5 57.5t-10.5 75t-14.5 74.5t-36.5 57.5t-78.5 24q-63 0 -112.5 -52.5t-85.5 -135.5t-60.5 -184.5t-40 -198.5t-21.5 -179t-6 -125 v-48q0 -34 1 -72t1 -70v-45l38 -66q15 -27 32.5 -42t43 -22.5t68.5 -7.5q113 0 215.5 53.5t188.5 136.5t151.5 185t102.5 199h41q0 -121 -67 -241t-169 -217t-226 -157.5t-241 -60.5q-90 0 -145.5 41t-86 105.5t-41 141t-10.5 148.5z" />
<glyph unicode="D" horiz-adv-x="1208" d="M63 1212v9q0 6 3 10q0 6 2 12l168 168q2 1 16.5 1t42.5 -1q55 -2 130 -7t152.5 -12.5t127.5 -15.5q96 -14 177 -50t139 -93t91 -135t33 -174q0 -98 -37 -205t-99.5 -210t-147.5 -196.5t-182 -164t-201.5 -111.5t-205.5 -41q0 145 -10 293.5t-22 297.5l-24 297 q-11 148 -13 292l-35 32q0 -8 -12.5 -33.5t-20.5 -33.5q-2 -2 -6 -2h-10q-31 0 -43.5 23t-12.5 50zM336 369q4 -12 13 -45l21 -70q11 -37 20 -71l13 -48q0 -4 2.5 -20.5t2.5 -20.5q63 0 136.5 42t148.5 111.5t143.5 158t122 180.5t85 180t31.5 158q0 82 -49 152.5 t-123 122.5t-159 81t-156 29h-17l-68 -11q-40 -6 -77 -10l-90 -12v-907z" />
<glyph unicode="E" horiz-adv-x="1208" d="M63 248q0 57 28 109.5t60.5 102.5t60.5 98t28 97q0 33 -29 50.5t-62.5 35t-60.5 38.5q-22 17 -22 47q0 7 2 14q12 88 53 184t105.5 175t149.5 130t185 51q20 0 46 -1t48.5 -9t38 -26.5t15.5 -51.5q0 -2 -1 -3t-1 -5q-2 -4 -2 -8q0 -6 -6 -16l-10 -21l-10 -19.5t-7 -11.5 t-6 -2h-11h-10q-4 0 -6 2q-14 8 -28.5 25.5t-31 34t-36 29t-39.5 12.5q-53 0 -107.5 -45t-98.5 -108.5t-71.5 -132.5t-27.5 -116q0 -59 14 -81.5t74 -22.5q51 0 98 22.5t93 48t93 48t101 22.5q8 0 19 -1t21.5 -4t18.5 -10t8 -22q0 -33 -42 -67.5t-105 -74.5l-138 -88 q-75 -48 -138.5 -106.5t-105.5 -129t-42 -156.5q0 -55 18.5 -92t51 -57.5t75.5 -29t90 -8.5q113 0 215.5 39t195.5 101.5t175 140.5t154 158h39q0 -57 -42 -121t-108.5 -123.5t-150.5 -113.5t-167 -95t-157 -64.5t-123 -23.5q-59 0 -123.5 11t-120 41t-91.5 78t-36 122z" />
<glyph unicode="F" horiz-adv-x="1040" d="M61 1057q0 10 13.5 38.5t33 64.5t45 76t51 71.5t47 51t36.5 17.5v-100q76 37 135 58.5t116.5 32.5t117 13t132.5 2h37q27 0 56.5 -1l56.5 -2t37 -3l16 -16l17 -17q4 -4 5 -9t1 -7q-27 0 -90.5 -3t-142.5 -12t-162.5 -24.5t-154.5 -40t-116 -59.5t-45 -80v-537 q27 10 93 39l142 61l141 60l93 41l21 7l30.5 10.5l30.5 10.5t18 5h19h16q-49 -74 -128 -113t-161.5 -71.5t-159.5 -71.5t-122 -113q0 -23 -4 -75t-9.5 -110l-10.5 -110.5t-9 -72.5q-4 -10 -16.5 -37t-18.5 -31q-2 -2 -6 -2q-4 -2 -10 -2q-4 0 -8 2q-4 0 -8 2 q-8 4 -20.5 17.5t-12.5 15.5v370h-115q0 31 12.5 65t31 65.5t37.5 59.5t34 44v397q-29 0 -44.5 4t-26.5 4t-24.5 -7t-39.5 -27q-4 4 -5.5 24.5t-1.5 24.5z" />
<glyph unicode="G" horiz-adv-x="1243" d="M63 430q0 51 15.5 144.5t45.5 203t72 223t95 206.5t115.5 151.5t132.5 58.5q20 0 43.5 -3t44 -13t35 -27.5t14.5 -46.5q0 -2 -1 -4t-1 -6q-2 -4 -2 -8l-17 -17l-16 -16q-4 -2 -8 -2q-4 -2 -10 -2q-4 0 -9 2q-4 0 -8 2q-2 4 -15.5 17.5t-17.5 15.5h-16q-53 0 -105.5 -54.5 t-98.5 -138.5t-86 -186.5t-68.5 -199.5t-45 -177t-16.5 -117q0 -154 60.5 -246t214.5 -92q78 0 182 40t197.5 106.5t158 151.5t64.5 175q0 27 -8.5 67t-25.5 78t-43 65.5t-58 27.5q-68 0 -121.5 -38t-99.5 -83t-90 -83t-93 -38q-6 0 -18.5 1t-23.5 4t-19.5 10.5t-8.5 21.5 q0 39 28 76t72 71.5t97 63.5t105.5 49.5t96.5 32.5t68 12q59 0 99.5 -22.5t66 -60.5t42 -87t30.5 -102q6 -23 20 -83l31 -130l31 -133q14 -63 18 -90v-17v-16q0 -6 -5 -16l-10 -21l-10 -19.5t-7 -11.5t-7 -2h-10h-10q-4 0 -6 2q-6 4 -18.5 16.5t-16.5 18.5l-14 52l-22 81 l-20 81q-9 38 -12 54q-53 -72 -121.5 -143.5t-149.5 -130.5t-171 -96t-184 -37q-109 0 -177.5 30.5t-106.5 88t-52.5 137.5t-14.5 178z" />
<glyph unicode="H" horiz-adv-x="1007" d="M63 487v2q0 4 3 7q0 4 2 8q8 8 33.5 20.5t33.5 12.5q18 100 29.5 223t18.5 248t11.5 239.5t8.5 196.5l33 67q29 -10 43 -22t20 -27.5t6 -35.5v-40q0 -154 -19.5 -307t-19.5 -307v-34q0 -24 1 -50t1 -51v-33q23 12 72 33l109 45l122 52q63 28 115.5 56.5t86.5 57.5t34 55 q0 123 -17.5 247t-17.5 251v44q0 24 35 32q16 -8 28.5 -25.5t19.5 -37t12 -39t5 -32.5q2 -25 8.5 -86t11.5 -130.5t9 -132t6 -87.5q8 0 20.5 -13t12.5 -22q0 -6 -4 -20l-9 -30.5t-10.5 -30t-9.5 -19.5v-571q0 -2 -13 -15.5t-22 -17.5q-2 -2 -6 -2q-4 -2 -10 -2 q-20 0 -35.5 17.5t-27 41t-16.5 46t-5 34.5t5 62l11 105l12 105q5 49 7 62q0 6 -1 20.5t-1 29.5t-1 28.5t-1 19.5q-57 0 -141 -28.5t-165 -69.5t-145.5 -87t-83.5 -79v-14v-21q2 -10 8.5 -49t12.5 -85t10 -85t4 -49q0 -2 -8 -18l-19 -38l-21 -44q-11 -23 -19 -35l-17 -17 l-16 -16q-39 14 -55.5 73.5t-19.5 127.5q-1 29 -1 56q0 37 2 71q4 59 6 75q-6 2 -16 11.5l-20.5 19.5t-19.5 20.5t-11 16.5q-2 2 -2 6q-3 4 -3 10z" />
<glyph unicode="I" horiz-adv-x="268" d="M33 1040v37v31q2 27 7 67l10 77q5 38 10 65l6 26h57q0 -256 8 -520t37 -520q35 -35 36 -81t1 -87q0 -16 1 -40v-11q0 -17 -2 -34q-3 -22 -15.5 -38t-38.5 -16q-20 0 -35 17.5t-25 41t-16 46t-8 34.5q-2 33 -4.5 103.5t-6.5 159.5t-7 188l-6 188q-3 90 -6 160.5t-3 105.5z " />
<glyph unicode="J" d="M27 369v49q0 27 6 50.5t21.5 41.5t45.5 27q-6 -50 -6 -94q0 -165 85 -244q108 -100 337 -101q121 0 213 42t154.5 115t94.5 171t32 211q0 106 -17.5 209.5t-38 206t-38 205t-17.5 206.5q49 0 85 -45t59.5 -115.5t37 -158.5t19.5 -175t8 -164t2 -124q0 -133 -33 -256 t-102.5 -217t-178 -151.5t-259.5 -57.5q-84 0 -174.5 21.5t-165 66.5t-122.5 115t-48 166z" />
<glyph unicode="K" horiz-adv-x="1376" d="M68 1040v119v117q4 4 16 17.5t16 15.5q4 0 9 2q4 0 6 1t4 1t7 -2t9 -2q20 -49 26.5 -82t7.5 -64v-21q0 -21 -1 -44q-1 -17 -1 -40t1 -50q0 -20 3 -59.5t6 -89.5t7 -104.5l7.5 -104.5t6.5 -89t5 -57q106 25 195 101.5t166 178t143 213.5l124 206q59 93 112.5 154.5 t107.5 61.5q0 -74 -36 -158.5t-94.5 -175t-133.5 -179.5l-149 -171q-75 -82 -145 -149l-122 -115q68 -98 182.5 -170t247.5 -121t267 -76.5t243 -35.5q0 -4 1 -9.5t1 -7.5q0 -25 -12.5 -36t-30.5 -16q-15 -4 -32 -4h-7q-20 1 -35 1q-102 0 -197.5 27.5t-185.5 67.5t-173 88 t-160 88t-146.5 67.5t-130.5 27.5v-227q0 -4 -13.5 -17.5t-21.5 -17.5q-2 -2 -6 -2h-10h-11q-4 0 -6 2l-17 34l-18 34q-2 33 -4 101.5t-6 154.5t-7 180l-6 180q-3 86 -6 154.5t-3 101.5z" />
<glyph unicode="L" horiz-adv-x="1075" d="M53 1386q57 0 82 -14t32 -41q5 -19 5 -44q0 -11 -1 -22q-3 -40 -3 -89q0 -39 3 -118t6 -178.5t7 -209l7.5 -207.5l6.5 -178t5 -117q6 0 31.5 -2t33.5 -2q14 0 40 2t28 2q16 2 65 12l115 25l139 29l140 30l114 25q49 10 66 14h16h17l17 -17q13 -13 15 -18 q-20 -12 -86.5 -37.5t-157.5 -56.5l-194 -63q-102 -33 -192.5 -58.5t-156.5 -41.5q-53 -12 -75 -12q-6 0 -10 1q-6 2 -17.5 10t-21.5 18.5t-18.5 21.5t-10.5 18q-4 18 -9 65t-10 101.5t-9 102.5t-4 66q-2 37 -3.5 114t-2.5 174t-3 205t-3 205t-2 172.5t-1 112.5z" />
<glyph unicode="M" horiz-adv-x="1343" d="M0 1141v41q0 16 2 38.5t31 22.5q61 0 94 -69.5t53.5 -175t35.5 -227.5t42 -227.5t71 -175t124 -69.5q4 0 9 2t9 2q82 137 140.5 279.5t109.5 285.5l102 288q51 144 117 288q4 4 16.5 5t16.5 1q23 0 35 -8t18 -21.5t8 -33t6 -44.5l203 -1142q0 -2 1 -20.5t1 -28.5v-42 q0 -26 -4 -51.5t-14 -44t-31 -18.5q-35 0 -59.5 70.5t-44 182t-34 250t-31.5 273.5t-37.5 251t-49.5 185l-18 -59l-29 -89l-35 -105l-36 -104l-30 -89l-20 -57q-18 -53 -45 -139.5t-63.5 -168.5t-87 -140t-119.5 -58q-72 0 -123 38.5t-88 95t-64 121.5l-47 117v-436 q0 -8 -13 -33.5t-22 -33.5q-2 -2 -6 -2q-4 -2 -10 -3q-6 0 -10 3q-4 0 -6 2q-4 2 -18 15l-17 17q-2 39 -4 120t-6.5 183.5t-7.5 216t-6 216t-6 184.5t-3 121z" />
<glyph unicode="N" d="M63 1128l66 76l47 53q23 25 27 25q49 0 62.5 -41t15.5 -97q1 -38 1 -76v-21.5v-21.5q0 -54 21 -85l51 -79l67 -101l73 -109l67 -100l51 -77q20 -32 27 -38q20 -27 58 -70.5t84 -86.5t97.5 -74t96.5 -31v1202q0 16 15.5 24.5t34.5 12.5t36.5 5t19.5 1q0 -63 -20.5 -114.5 t-20.5 -108.5q0 -135 11.5 -269t25 -266.5t24.5 -265.5t11 -264q0 -20 -1 -44t-8 -44t-21.5 -33.5t-41.5 -13.5q-74 0 -157.5 59.5t-161.5 141.5t-144 168l-106 139l-42 58l-62 90l-61 91q-28 43 -38 62v-737q0 -47 -16 -59.5t-47 -12.5q-8 0 -19.5 1t-22.5 4t-19.5 10 t-8.5 22v975q-29 16 -50.5 51.5t-21.5 68.5z" />
<glyph unicode="O" horiz-adv-x="671" d="M62 371q1 45 1 75q0 31 1.5 92.5t6.5 138.5t14 161t24.5 158.5t38 131t55.5 80.5q2 2 32.5 8.5t69.5 12.5l73 11q34 5 42 5q49 0 82 -25.5t53 -65.5t31.5 -90t16.5 -101.5t5 -97.5v-77q0 -45 -8 -120.5t-24.5 -163.5t-44 -177t-67.5 -162t-92.5 -119t-119.5 -46 q-53 0 -88 24.5t-56.5 64.5t-30.5 89t-12 98q-2 37 -3 72v23zM161 273q3 -56 21.5 -99t63.5 -43q55 0 96 40t70.5 102.5t48 139t30 151.5t15.5 139.5t4 101.5q0 14 -1 48t-2 72t-2 70.5t-1 44.5q-12 39 -35 72t-66 33q-4 0 -17 -2t-15 -2q-59 -82 -98.5 -163t-63 -165 t-33.5 -173t-10 -187q0 -18 -4 -71q-2 -30 -3 -61z" />
<glyph unicode="P" horiz-adv-x="1007" d="M68 1208v17q0 57 31.5 106t81.5 88t114.5 69t130.5 49t126 29.5t103 10.5q61 0 118.5 -19.5t103 -54.5t73 -85t27.5 -111q0 -100 -56.5 -197.5t-143.5 -173.5t-191.5 -122t-198.5 -46q-6 0 -26.5 2t-24.5 2q14 29 60 54.5t106 55.5l126 65q67 36 122 84t91 111.5 t36 149.5q0 106 -68 145.5t-170 39.5q-6 0 -37 -4.5t-72 -13.5l-87 -20q-46 -11 -85 -26.5t-64.5 -33t-25.5 -36.5v-1007q12 -31 20.5 -56.5t11.5 -48t4 -46t1 -54.5v-35q0 -23 -5 -45t-16.5 -38.5t-31.5 -16.5q-31 0 -48.5 32.5t-26.5 84t-11 111.5q-1 40 -1 79v39 q1 57 2 101t1 61q0 25 -2 75t-5 112.5t-7 132l-7.5 132l-6.5 111.5t-5 74q-6 2 -16 11t-21 20l-19 22q-9 10 -11 14z" />
<glyph unicode="Q" horiz-adv-x="1140" d="M63 582q0 72 17.5 156.5t51.5 169.5t83 164t111.5 139.5t138.5 97.5t164 37q43 0 83 -28t71.5 -70t55 -89t33.5 -84q0 -12 1 -46t1 -70.5t1.5 -70.5t1.5 -48q0 -59 -6.5 -110.5t-14.5 -100.5t-14 -98.5t-6 -104.5v-15q0 -9 2 -20q0 -10 2 -22l235 -301v-9v-6q0 -2 2 -2 q0 -2 -1 -4t-1 -6v-8l-16 -17q-12 -12 -19 -16q-2 -2 -6 -2q-4 -2 -10 -2q-39 0 -77 38t-74.5 89t-69.5 102t-64 78q-55 -45 -90 -94t-70.5 -89t-85 -66.5t-131.5 -26.5q-45 0 -84.5 30.5t-72.5 79.5t-59.5 110.5t-45 123t-28 118t-9.5 93.5zM231 500q0 -49 2.5 -113.5 t18.5 -121t52 -95.5t104 -39q43 0 91 32t87 76t64.5 94t25.5 87q0 20 -13.5 43.5t-30.5 48.5l-35 47q-17 23 -26 45q4 0 16.5 2t16.5 2q43 0 72 -16.5t63 -54.5q29 41 43.5 77.5t20.5 72.5t6 75v84q0 43 -2 115.5t-19.5 142.5t-56.5 121t-110 51q-53 0 -104.5 -26.5 t-80.5 -73.5l35 -35h-7q-59 0 -98 -35q-42 -37 -69 -95.5t-40 -132t-19.5 -145t-6.5 -134.5v-99z" />
<glyph unicode="R" horiz-adv-x="1343" d="M68 1008v32l116 137q55 62 116.5 107t133.5 70.5t164 25.5q76 0 129 -11t87 -42t48.5 -82t14.5 -131q0 -92 -33 -174t-85 -153.5t-119 -133t-136 -116.5q12 -20 77 -62l153 -93l189 -111l184 -112q85 -54 140.5 -100.5t55.5 -72.5q-88 0 -172 34.5t-163 84t-154 103.5 t-142 95q-12 6 -47 19l-80 28l-94 35q-49 18 -90.5 38.5t-68 40t-26.5 40.5q0 4 1 17.5t1 15.5q88 35 183.5 89t174.5 127.5t130 166t51 204.5q0 98 -59.5 143.5t-145.5 45.5q-59 0 -116.5 -26.5t-109.5 -67.5t-96 -89.5t-77 -89.5v-200q0 -109 1 -194t4 -171t9 -182 t19 -225q4 -43 -16.5 -57.5t-51.5 -14.5q-4 0 -17.5 2t-15.5 2q-2 98 -12 224t-22.5 261.5t-22.5 270.5t-10 252z" />
<glyph unicode="S" horiz-adv-x="972" d="M29 903q0 88 34.5 174t94 151.5t140.5 106.5t171 41q57 0 101 -20.5t75 -56t47.5 -83t16.5 -102.5q0 -37 -2 -69.5t-7.5 -64.5t-12.5 -65.5t-17 -74.5q-2 -4 -7.5 -5t-9.5 -1q-37 0 -45 32q-6 24 -6 57q0 12 1 26q3 50 7 108q1 16 1 32q0 39 -7 75q-10 50 -44 83t-107 33 q-61 0 -120 -26.5t-103 -70.5t-71.5 -103.5t-27.5 -125.5q0 -68 60.5 -112.5t149.5 -77.5t194.5 -60.5t194.5 -62.5t149.5 -83t60.5 -122q0 -76 -34 -153.5t-91 -141t-130 -104.5t-148 -41q-27 0 -68 7t-79 21.5t-64.5 37t-26.5 55.5q0 4 1 9t1 9q59 -49 99 -60.5t100 -11.5 q53 0 114.5 30t112.5 77t85 104.5t34 112.5q0 78 -60.5 125t-151.5 78t-196.5 53.5t-196.5 54t-151.5 78.5t-60.5 127z" />
<glyph unicode="T" horiz-adv-x="1511" d="M29 1292q0 31 33.5 50.5t79.5 34t91.5 21.5t67.5 13q154 37 297 63.5t286.5 44t289 26.5t303.5 9v-43q-135 -2 -286 -22.5t-301.5 -51t-292.5 -65.5l-261 -63q-8 0 -38 -11l-64 -21l-63 -22q-30 -10 -38 -12q-2 0 -15.5 -2t-17.5 -2q-27 0 -49 11t-22 42zM569 1276v20v13 q4 6 16.5 18t18.5 16q25 -18 40 -44.5t26 -55.5q2 -37 5 -112.5t6 -172t7 -202t7 -201.5t5 -173t5 -114v-96q0 -49 -10.5 -95t-57.5 -77l-33 33q0 27 1 83t1 126v146v147q0 70 -1 124t-1 80q0 14 -2 55.5t-6 96.5t-8 116.5t-8 116.5l-8 97q-3 41 -3 55z" />
<glyph unicode="U" horiz-adv-x="940" d="M26 601q1 73 1 171q0 18 1 66.5l2 101.5l2 101.5t1 66.5q4 4 16 17.5t17 15.5q4 0 8 2q4 0 6 1t4 1t7 -2t9 -2q2 -113 3 -218.5t6.5 -209t18.5 -204.5t40 -206q6 -25 15.5 -55.5t23.5 -56t36.5 -43t55.5 -17.5q28 -6 54 -6q58 0 107 31q71 45 125 134t93 211t66.5 255 t45 264t29.5 242q0 14 -2 42l-4 56q-2 29 -4 53.5t-4 30.5l-33 33q-33 -98 -57.5 -129t-37.5 -19t-15 53q0 6 -1 13q0 35 10 72q11 44 36 78q23 32 60 32h4.5t12 -4t19.5 -9l20 -11q10 -5 15 -9q33 -37 51 -126t20 -210q0 -15 1 -30q0 -108 -13 -232q-14 -141 -48 -281.5 t-85 -267.5t-124 -221t-165 -143q-69 -37 -151 -37q-27 0 -56 4q-25 0 -52.5 20.5t-51 48t-41 55.5t-23.5 44q-33 92 -48 160.5t-21 134.5q-5 56 -6 117q1 11 1 21z" />
<glyph unicode="V" d="M33 1108v88q61 0 101 -65.5t66.5 -167t45 -220t39 -226t47 -185.5t69.5 -96q45 80 92 206l97 271l108 289q57 146 123 264t141.5 192t163.5 74q0 -49 -11 -68.5t-28.5 -29t-39 -19.5t-41.5 -39q-84 -145 -146.5 -275t-115 -261t-101.5 -271l-106 -301 q-14 -41 -20.5 -66.5t-9.5 -42t-5 -28.5t-8.5 -28.5t-19.5 -40t-38 -62.5q-4 0 -9 -2t-7 -2q-33 0 -64.5 46t-56.5 104.5t-42 114.5t-24 75l-34 129l-43 160l-45 168l-40 152l-27.5 113t-10.5 50z" />
<glyph unicode="W" horiz-adv-x="1912" d="M63 1192q0 6 3 10q0 4 2 6q4 4 16 17.5t16 17.5q41 -25 67 -53.5t43 -62t30.5 -71.5t27.5 -83l24 -70l36 -106l42 -125l42 -125l35 -108q15 -48 24 -70l68 -101l32 35q47 47 77 113.5t50.5 142.5t39 157t44 154.5t62.5 136t96 101.5q4 0 8 2q4 0 5 1t3 1t4.5 -1t6.5 -1 q4 -2 8 -2q57 -57 90 -137t53.5 -170t35.5 -184.5t41 -183.5t68 -167t113 -131q2 4 8.5 18.5t11.5 30.5l9 31l6 21l25 116l35 178l42 209l42 209l35 177l22 118q2 4 11 14.5t19.5 20.5l20.5 19.5t16 11.5q2 0 7 2q4 0 6 1t4 1t4 -1t6 -1q4 -2 6 -2l38 -17q24 -10 45 -21 l37 -20l15 -8v2q-51 0 -80.5 -6t-46 -21.5t-24.5 -42t-17 -67.5q-18 -98 -35.5 -225t-39 -263.5t-51 -271.5t-74.5 -248q-6 -12 -13.5 -29.5t-17.5 -34t-23.5 -28.5t-29.5 -12q-6 0 -11 2q-4 0 -8 2q-98 80 -167.5 193.5t-120 241.5t-84.5 259l-64 246l-33 -33l-34 -90 l-53 -138l-62 -161l-64 -160l-54 -135l-36 -88q-4 -14 -16.5 -39.5t-16.5 -27.5t-8 -2q-2 -2 -6 -3h-2q-4 0 -9 2.5t-7 2.5q-63 119 -111.5 228.5t-89.5 217.5l-82 221l-88 238q-2 8 -16 38l-32 63l-33 64l-19 38q-2 2 -2 6q-3 4 -3 10z" />
<glyph unicode="X" horiz-adv-x="872" d="M33 1376q-2 5 -3 10q0 7 7 12q10 7 24.5 10t28.5 4t16 1t7.5 -1t9.5 -1h10l236 -471q12 20 33 83l51 144l62 173q34 91 72 167t75.5 125t74.5 49q27 0 49.5 -11t22.5 -42q0 -2 -1 -4t-1 -6q-2 -4 -2 -6l-20 -21l-29 -30l-31 -31q-14 -14 -20 -19l-236 -604 q-4 -6 -5 -31.5t-1 -35.5q0 -31 26.5 -88.5t66.5 -113.5t84 -97t81 -41q6 0 10 2q4 0 6 2l18 17q13 13 17 16q4 4 16.5 6t16.5 2v-176h-100l-304 303q-49 -25 -77.5 -75t-46 -112.5t-28.5 -132t-28.5 -136t-44 -124t-76.5 -92.5q-18 4 -25 17.5t-10.5 29.5t-2.5 31.5t1 25.5 q0 12 1.5 36t1.5 28l249 641z" />
<glyph unicode="Y" horiz-adv-x="872" d="M33 1343v33h100l42 -93l50 -117q27 -62 58.5 -126.5t66.5 -122t74 -104.5t80 -74q8 33 19 102l25 155q13 87 29.5 184.5t36 189.5t41 172t46 129t52.5 63q7 3 13 3q21 0 45 -31q-45 -219 -78 -421t-57.5 -399.5t-42 -396t-29.5 -409.5v-12q-4 -6 -13 -16.5t-19.5 -21 t-20.5 -19.5t-14 -11t-9 -2q-2 -2 -6 -2h-2q-6 0 -10 2q-4 0 -6 2q-8 4 -21.5 17.5t-13.5 15.5v571l-44 52l-57 73l-58 77q-28 38 -42 66l-66 130l-78 154l-65 129q-26 54 -26 58z" />
<glyph unicode="Z" horiz-adv-x="1275" d="M68 1276q0 27 33.5 54.5t86 54t117 50t126 41t112.5 27.5t78 10h23q17 0 36.5 -1t36.5 -1h22q51 -20 60.5 -46.5t9.5 -67.5q0 -61 -22.5 -118.5t-48 -114t-48 -112t-22.5 -112.5q0 -4 2 -17.5t2 -15.5q61 20 106 33.5t86 22t82 11.5t94 3q6 0 21.5 -1t32 -1t30 -1 t19.5 -1q-47 -70 -99.5 -96.5t-108.5 -34.5t-115.5 -12.5t-118 -30t-117 -85t-113.5 -177.5l-47 -102q-23 -48 -41 -95t-30.5 -97t-16.5 -108q8 -31 34.5 -34t49.5 -3q66 0 157 17.5t187 46t187 65.5t157 76q29 16 44 41l28.5 48.5t32 41t53.5 17.5q0 -76 -50.5 -139.5 t-130 -114t-177 -88t-194 -63.5t-178 -38t-128.5 -12q-39 0 -71 5t-55.5 20.5t-37 42t-13.5 71.5q0 66 17.5 140.5t47.5 150.5t66.5 147.5t73.5 131.5q-4 0 -24.5 2t-24.5 2q-47 0 -80 -13.5t-71 -58.5q-29 10 -33 28.5t-4 39.5q0 39 21.5 60t54 33.5t72.5 18.5t78 16.5 t68.5 27t45.5 46.5l52 116q28 60 52.5 122.5t39.5 127t15 128.5q-111 0 -197.5 -31t-156.5 -66l-125 -67q-55 -31 -100 -31h-13q-4 0 -6 2q-8 8 -20 34t-12 34z" />
<glyph unicode="[" horiz-adv-x="1208" d="M68 1712v17q0 27 33.5 52t88 45.5t120 37t129 29t117.5 18.5t85 6h33q18 0 33.5 -5t25.5 -16.5t10 -31.5q0 -31 -22.5 -42.5t-52 -13.5t-57 2.5t-40.5 1.5q-18 -2 -61 -11l-91 -19q-48 -10 -91 -20.5t-60 -16.5q-29 -6 -33 -31.5t-4 -48.5q0 -53 8.5 -91t28.5 -97 l103 -1209l32 -133q4 -2 11 -2q6 -2 16 -2q96 0 188.5 23.5t184.5 52.5t184 52.5t189 23.5v-47l-773 -236h-100q-2 0 -6 22.5t-9 55.5t-11.5 66.5t-8.5 56.5q-18 137 -22 277t-6 279.5t-8.5 278t-28.5 273.5q-4 14 -14 53l-19 82q-10 43 -20 81l-15 52q-2 6 -11 25.5 t-22 43.5l-22 43z" />
<glyph unicode="\" horiz-adv-x="839" d="M29 1511h71q16 -41 56 -126l88 -191l103 -223l106 -222l91 -190l60 -123q37 -74 75 -126t68.5 -100t49 -101.5t18.5 -131.5q-29 0 -78 57.5t-109.5 153t-127.5 219.5l-134 257l-128 267q-61 134 -107.5 249.5t-74 202.5t-27.5 128z" />
<glyph unicode="]" horiz-adv-x="940" d="M-16 84l755 164v1196q0 55 -21.5 62t-55.5 7q-61 0 -122 -11t-120.5 -25.5t-118.5 -25.5t-119 -11q-23 0 -48 4t-34 33q16 31 51 51t82.5 31.5t99.5 16.5t101 6t90 0t64 -1q12 0 43 -1t65.5 -1t65.5 -1t43 -1q45 -84 62.5 -200.5t19.5 -240.5t-4 -243t-6 -205 q0 -25 -1.5 -89t-1.5 -137t-1 -137.5t-1 -88.5q-10 -29 -25.5 -56.5t-41.5 -44.5q-180 -23 -369.5 -55.5t-367.5 -79.5z" />
<glyph unicode="^" horiz-adv-x="940" d="M33 33q4 121 42 245.5t92 245.5t118 235l116 214q16 29 30.5 33t41.5 4q31 0 65.5 -55.5t70.5 -138.5t74 -183.5t76 -189.5t74.5 -156.5t71.5 -85.5q-25 -16 -41 -44t-26 -57l-66 68l-303 672h-33q-4 0 -25.5 -38t-48.5 -92l-53 -112q-27 -57 -41 -94q-4 -10 -14 -44 l-25 -79l-29 -95l-29 -96l-24 -78q-10 -34 -14 -44q0 -6 -5 -17l-10 -20q-5 -10 -10.5 -19.5t-7.5 -11.5t-6 -2q-4 -2 -10 -2t-10 2q-4 0 -8 2l-17 16z" />
<glyph unicode="_" horiz-adv-x="1343" d="M29 51q0 6 2 10q0 4 2 7q8 8 33.5 20t33.5 12q289 27 590 49.5t586 22.5v-104q-31 -4 -96.5 -10.5t-148.5 -12.5t-174 -14t-174 -14.5t-149.5 -10.5l-97.5 -6q-4 0 -27.5 -1t-52 -1t-58.5 -1t-46 -1q-10 0 -37 1t-56.5 1t-56 1t-36.5 1l-17 16l-16 17q-2 4 -2 8 q-2 4 -2 10z" />
<glyph unicode="`" horiz-adv-x="1073" d="M135 1686q20 0 39 7t34 11t27.5 2t22.5 -20q176 -104 309 -167t226.5 -96.5t145.5 -48t66.5 -24t-8.5 -22.5l-77 -46z" />
<glyph unicode="a" horiz-adv-x="1114" d="M63 285q0 53 10.5 147t31 206t52 225.5t77 206.5t103.5 152.5t130 59.5q51 0 86 -21.5t57.5 -56.5t37 -78t24.5 -86q2 18 6 48t14 58t29.5 48t50.5 20v-845q0 -33 12.5 -64t34 -54.5t48 -37.5t57.5 -14q47 0 81.5 27.5t63.5 59t57.5 59.5t65.5 28q4 0 9 -2t7 -2 q-10 -53 -31.5 -102.5t-55.5 -86.5t-79 -59.5t-102 -22.5q-88 0 -144.5 47.5t-90 119t-48 153.5t-18.5 153l-59 -156q-37 -97 -89.5 -190.5t-124 -161t-163.5 -67.5q-43 0 -81 8t-54 64q0 12 -1 42.5t-1 65.5t-1.5 66t-1.5 43zM130 217q0 -30 6 -55q7 -29 25.5 -48.5 t57.5 -19.5q33 0 53.5 8.5t35 24.5t27.5 44t36 65l25 49l41 80l40 81l27 58q8 18 26 65l40 101l41 101l28 69v16q0 37 -14.5 97.5t-41 116.5t-64.5 97t-83 41q-35 0 -70.5 -65.5t-69.5 -164.5t-63.5 -216t-52 -218.5t-36 -174t-13.5 -80.5q0 -10 -0.5 -34.5t-0.5 -37.5z" />
<glyph unicode="b" horiz-adv-x="972" d="M33 1511v17q0 37 14 85t53 66l33 -34l100 -906q23 59 54.5 130t76 132.5t103.5 102.5t137 41q94 0 158.5 -59.5t104.5 -145.5t57.5 -182t17.5 -170q0 -92 -23.5 -196.5t-72.5 -191.5t-126 -145.5t-183 -58.5q-57 0 -134 20.5t-147 59.5t-118 96t-48 131h23q0 27 4 93.5 t8 141t7 141.5q2 40 2 65q0 17 -1 28q-2 18 -9 75l-18 133l-22 162l-23 162l-18 133q-8 56 -10 74zM268 195q0 -37 33 -60.5t77 -39t89 -21.5t70 -6q72 0 122 27.5t83.5 72.5t53 103.5t30 121t13.5 122.5t3 110q0 51 -14.5 123.5t-45 138t-80 113t-116.5 47.5 q-66 0 -114 -53.5t-84 -135.5t-58.5 -182.5t-36.5 -195.5t-19.5 -171.5t-5.5 -113.5z" />
<glyph unicode="c" horiz-adv-x="872" d="M63 340q0 43 15.5 136t43.5 208t66.5 237.5t88 224t106.5 166t121 64.5q66 0 106.5 -22.5t63 -61.5t31 -88t8.5 -100q0 -8 -1 -23.5t-3 -31t-3 -27.5t-1 -14l-33 -35q-31 8 -42.5 34.5t-14.5 60.5t-4 72t-9 68.5t-30.5 51t-67.5 20.5q-49 0 -94 -57.5t-82 -147.5 t-68 -198.5t-51.5 -211t-31.5 -186.5t-11 -123q0 -7 -0.5 -34.5t-0.5 -43.5q0 -39 7 -76q8 -42 29.5 -73t66.5 -31q6 0 18.5 1t16.5 1q78 27 148.5 78t134 112.5t119.5 127.5l102 119q0 -2 1 -15.5t1 -17.5q0 -82 -56.5 -171t-139.5 -163t-181 -122t-180 -48q-63 0 -101 37 t-57.5 89t-25 110.5t-5.5 103.5z" />
<glyph unicode="d" horiz-adv-x="940" d="M29 436q0 57 15 139t45 172.5t72 179.5t97 159.5t120.5 114.5t141.5 44q59 0 91 -44t32 -103q-31 0 -47 7t-30.5 16t-28 16.5t-37.5 7.5q-49 0 -96.5 -39t-88.5 -101.5t-74.5 -139.5t-58 -154.5t-38 -146t-13.5 -113.5q0 -43 6 -88.5t24.5 -81t52.5 -59t87 -23.5 q68 0 130.5 43t115.5 104.5t94 132t64 125.5v252q0 229 -17.5 454.5t-17.5 454.5v15q2 12 6 39.5t10 60.5l11 60q5 28 8 40q4 8 30.5 21.5t36.5 13.5q8 0 20.5 -13t12.5 -22q0 -4 -5 -18l-12 -32l-11 -32q-5 -14 -5 -18v-90q0 -213 16.5 -423t35 -420t34.5 -419t16 -417 q0 -8 2 -26v-12q0 -12 -2 -24q-2 -18 -10 -32.5t-26 -16.5q-16 8 -27.5 25.5t-20 37t-12.5 40t-6 32.5q-4 14 -9 52t-10 81l-9.5 81l-6.5 54h-32l-77 -87q-46 -52 -100.5 -100t-117 -82t-125.5 -34q-72 0 -120 31t-79 80t-44 108.5t-13 116.5z" />
<glyph unicode="e" horiz-adv-x="804" d="M33 219q0 63 23.5 159.5t64.5 202t97 211t122 190.5t138.5 137t146.5 52q0 -143 -33 -259.5t-86 -221t-125 -206.5l-148 -216q-23 -35 -29.5 -51t-6.5 -49q0 -43 23.5 -56.5t64.5 -13.5q63 0 128.5 38t126 92.5t111.5 111.5l86 96q0 -4 2 -16t2 -17q0 -70 -52 -141.5 t-127 -130.5t-160 -97t-150 -38q-43 0 -83 17.5t-69.5 47t-48 70.5t-18.5 88zM168 403q2 0 7 -2t9 -2q23 0 59 37t74.5 93.5t77.5 127t71 138t51.5 125t19.5 88.5q0 8 -13.5 20t-19.5 12q-37 0 -75 -37.5t-74 -98t-68.5 -134.5t-58 -144.5t-42 -131t-18.5 -91.5z" />
<glyph unicode="f" horiz-adv-x="1007" d="M29 956q0 33 44 60.5t101 51.5t113.5 41t81.5 32q0 27 3 79t6 118l6 140q3 73 7 139t6 118.5t4 76.5q6 61 19.5 117t42.5 97.5t73 66.5t111 25q66 0 102.5 -52.5t36.5 -113.5q0 -16 -8 -23.5t-20 -13.5l-27 -13q-14 -7 -26 -22q-16 82 -50 103q-18 12 -35 12l-30 -8 q-33 -18 -58.5 -67.5t-27.5 -107.5v-630q12 -4 45 7t76 30.5t91 44.5l91 46l77 38q34 16 48 18q4 0 20.5 -29.5t20.5 -60.5l-436 -201l-33 -35q6 -31 16 -96t24.5 -147t28.5 -173l27 -175l23 -150q10 -66 14 -98q2 -10 4 -40t4 -64t4 -63.5t2 -39.5q-6 0 -24.5 1t-22.5 5 q-10 6 -27.5 8t-34 2t-29.5 1t-13 3q17 2 16 62v14q-2 74 -14.5 184.5t-32.5 238.5t-40.5 238.5t-36 184.5t-19.5 74q-6 0 -20.5 -1t-16.5 -1q-10 -2 -44 -17l-74 -32l-75 -32q-35 -15 -43 -20h-16h-18q-4 2 -16.5 15.5t-16.5 17.5q-2 4 -2 8q-2 4 -2 8z" />
<glyph unicode="g" d="M61 182v37q0 57 16.5 159.5t48.5 224.5t79 248t107.5 228.5t135 168t160.5 65.5q43 0 84 -30t53 -69l28 41q13 20 34 21q4 0 16.5 -13.5t16.5 -19.5q2 -6 7 -19.5t10 -29.5l10 -32q5 -15 5 -21l271 -1276q0 -2 1 -24.5t1 -35.5q0 -68 -5 -148.5t-21.5 -164.5t-45.5 -162 t-74 -139t-110.5 -98t-155.5 -37q-86 0 -166 30.5t-131 108.5h19q31 0 59.5 -11t56 -24.5t56 -25t59.5 -11.5q76 0 132 30t95 80t63.5 115.5t39 135.5t19.5 138.5t5 125.5q0 147 -20.5 300t-54 305.5t-75.5 299.5l-83 287l-371 -704l-233 -236q-6 -2 -13 -2q-4 -2 -9 -2h-9 q-31 0 -53.5 7t-50.5 30q-2 10 -3.5 36.5t-2.5 56t-1 56.5zM130 194v-12q0 -12 1 -25q2 -19 10.5 -36t26.5 -21q51 41 111.5 107.5t121 149.5t115.5 175.5t98 183.5t69 176t26 152q0 59 -48.5 96.5t-103.5 37.5q-53 0 -105.5 -59.5t-99.5 -152t-87 -205t-69.5 -219 t-47 -194.5t-17.5 -129q0 -8 -1 -25z" />
<glyph unicode="h" horiz-adv-x="1075" d="M63 1696q0 8 1.5 29.5t1.5 45t1 45t1 31.5l16 17l16 16q4 0 9 2q4 0 6 1t4 1t7 -2t9 -2l101 -1376l32 -168q8 43 28.5 119.5t49.5 167t67 184.5t83 170t97 124t112 48q70 0 123 -56.5t91.5 -145.5t64.5 -196.5t40 -210t20.5 -187.5t6.5 -126q-47 0 -75 52.5t-46.5 133.5 t-34.5 180t-38.5 193.5t-58.5 172t-93 116.5q-49 -35 -96.5 -127t-91.5 -213t-85 -251l-77 -238q-36 -109 -66.5 -179.5t-52.5 -70.5q-4 0 -17.5 2t-15.5 2q-84 414 -112 843t-28 853z" />
<glyph unicode="i" horiz-adv-x="403" d="M0 1511q10 29 26.5 33t36.5 4q16 0 40 -1t46.5 -6t39 -15t16.5 -31q0 -2 -1 -4t-1 -6q-2 -4 -2 -8q-8 -8 -34 -20.5t-32 -12.5q-12 0 -31.5 5t-40 13t-38 20.5t-25.5 28.5zM168 1040l68 35q47 -106 68.5 -226t28.5 -244q6 -96 5 -192v-55q-2 -123 -2 -233q0 -16 1 -37.5 t-2 -42t-14.5 -35t-35.5 -14.5q-2 0 -7.5 2t-9.5 2q-2 31 -7 93.5t-12 142.5l-15 166l-14 167q-7 80 -12 142.5t-7 93.5q0 14 -5.5 48t-10.5 72t-10 70z" />
<glyph unicode="j" horiz-adv-x="522" d="M-246 -289h8q33 0 85.5 -21.5t109.5 -48t109.5 -48t87.5 -21.5q47 0 76.5 27.5t45 71.5t20.5 97.5t6 105.5v26q0 38 -2 71q-3 45 -3 72q0 49 -8 126t-21 167l-26 186l-27 187q-12 90 -20.5 165.5t-8.5 122.5q0 6 12.5 8.5t31 1.5t39 -3.5t36.5 -6.5q6 -29 14.5 -97.5 t15.5 -144.5l13 -146q6 -69 10 -97q0 -2 4.5 -50t9.5 -122l11 -160l11 -161q5 -75 9.5 -128t4.5 -61q0 -49 -6.5 -104.5t-29 -102.5t-70.5 -77.5t-130 -30.5q-47 0 -125 20.5t-150.5 51t-117.5 64.5q-31 23 -31 43q0 9 6 17zM87 1179q-1 4 -1 8q0 8 4 16q6 11 8 11h4 q2 0 2 1.5t2 1.5l9 -3q18 9 33 10q5 0 10 -1q18 -4 27.5 -17.5t9.5 -32t-15 -30.5q-51 0 -70.5 11.5t-22.5 24.5z" />
<glyph unicode="k" horiz-adv-x="1038" d="M57 1782l95 6q16 0 20 -35q3 -28 3 -61v-17q-1 -43 -4 -82t-3 -49l11 -190q5 -84 11.5 -157t13.5 -140.5t16 -140.5l21 -156q11 -84 27 -189q49 41 90 113t80 157l78 172q39 87 82 161q4 0 14.5 -7.5t20.5 -17.5t18 -19.5t8 -13.5q0 -37 -31.5 -110.5t-74.5 -158.5 l-89 -169l-77 -139l98 -60l132 -79l144 -85l132 -79l97 -62q38 -25 40 -31q-2 -6 -10 -17t-19.5 -21.5t-21.5 -18.5t-16 -10q-82 29 -137.5 57.5t-99.5 57t-83 57t-88 59.5t-117.5 62.5t-169.5 66.5v-436q0 -2 -14 -2t-32 1l-34 2q-16 1 -20 -1q-2 -4 -7 -5t-9 -1 q0 205 -13.5 409.5t-29 410.5t-28.5 414t-13 417q2 14 1 37.5t-4 46.5l-6 37z" />
<glyph unicode="l" horiz-adv-x="303" d="M0 1712q0 8 12.5 34t20.5 34h6q4 0 6 1t6 1q27 0 42.5 -22.5t24.5 -52.5t12 -57.5t5 -37.5l101 -1477l17 -34q13 -26 15 -33q0 -4 2 -9q0 -4 1 -7t1 -5t-1 -4t-1 -4q-2 -4 -2 -6q-2 -2 -27.5 -15.5t-39.5 -17.5h-17h-16q-8 4 -20.5 16.5t-12.5 16.5l-67 1343q0 6 -5 32 l-9 57q-5 32 -11 64t-10 48q0 6 -5 26l-12 43l-11 43q-5 19 -5 23z" />
<glyph unicode="m" horiz-adv-x="1544" d="M63 897q0 25 2.5 53.5t11.5 53t29.5 41t55.5 16.5q0 -129 9 -245t32 -245l20 98q12 58 29.5 121.5t42 127t59.5 113.5t80 82t105 32q33 0 55 -23.5t38.5 -55.5t26 -66.5t13.5 -59.5l20 -106l31 -162l31 -162q14 -76 18 -107l24 70l35 107l42 126l42 125l36 107 q15 47 24 70q14 43 38.5 85t58.5 75.5t75 55t88 21.5q70 0 115 -81t71.5 -204.5t40 -274t17.5 -290.5q3 -111 3 -204v-45q-1 -110 -1 -152q-47 0 -74 49t-40 130t-16 183.5t-3 210t-3.5 211t-14.5 184t-34.5 130t-68.5 49.5q-55 0 -98.5 -43t-74 -103.5t-50 -123 t-29.5 -99.5l-20 -78l-30 -119l-36 -139l-35 -139l-29 -119l-18 -78l-16.5 -17t-18.5 -15q-2 -2 -6 -2q-4 -2 -10 -3q-6 0 -11 3q-4 0 -6 2q-4 2 -17 15l-17 17q-2 27 -11 83l-17 126q-9 70 -21 147l-21 145l-19 123l-12 81q0 8 -5 41t-12 70.5t-19.5 72.5t-28.5 51 q-4 0 -9 2q-4 0 -6 1t-4 1q-47 0 -86 -55t-66.5 -129t-44 -147.5t-20.5 -108.5q-6 -29 -16.5 -99.5t-20.5 -150.5l-19 -152q-9 -73 -11 -102q0 -8 -13.5 -33.5t-19.5 -33.5q-2 -2 -6 -2h-13h-8q-4 0 -8 2l-17 17q-13 13 -16 18q-4 27 -10 85t-12.5 130.5t-14.5 152.5 t-14 153t-10 130l-6 86q0 2 -1 14t-1 26.5t-1.5 29t-1.5 22.5z" />
<glyph unicode="n" horiz-adv-x="907" d="M68 33v1007q0 47 23.5 87t76.5 40v-563q14 68 39.5 140.5t62.5 140t86.5 126t114.5 97.5q4 4 24.5 5t24.5 1q72 0 118 -47t73.5 -112.5t41 -135t19.5 -114.5q2 -14 7 -74l10.5 -127.5t9.5 -127t8 -73.5q0 -4 6 -19l12 -32l11.5 -31.5t3.5 -19.5q0 -2 -8.5 -11.5 t-18.5 -19.5l-21.5 -20.5t-19.5 -14.5q-2 -2 -6 -2q-4 -2 -10 -2t-11 2q-4 0 -6 2q-4 2 -17 16l-17 17q0 23 -2.5 68l-5.5 101t-7 118.5t-7 118t-6 100.5t-5 65q-2 25 -8.5 70t-22.5 90t-45 78t-76 33q-76 0 -127 -75t-85 -187.5t-55 -244.5l-39 -245q-17 -113 -34.5 -187.5 t-42.5 -74.5q-6 0 -18.5 1t-23.5 4t-19 10.5t-8 21.5z" />
<glyph unicode="o" horiz-adv-x="704" d="M63 373q0 96 2.5 176t6.5 159.5t11 168t17 198.5q10 20 28.5 29.5t39.5 9.5v-141h35q14 45 36.5 88t54.5 76.5t73 54t90 20.5q72 0 109.5 -43t54 -104t18.5 -128t2 -114q0 -51 -10 -133t-30.5 -174t-51.5 -185t-73 -168t-94 -122t-116 -47q-76 0 -116.5 39t-60 97 t-23 124t-3.5 119zM166 377q0 -31 1 -66t1 -66v-44q12 -37 34.5 -70t65.5 -33q49 0 88 45t69 117t52.5 158t35.5 169t20.5 150.5t7.5 102.5v48q0 34 -1 70.5t-1 70.5v46q-4 4 -13.5 14.5t-19.5 20.5t-20.5 19.5t-14.5 11.5q-2 0 -6 2q-4 0 -6 1t-4 1q-57 0 -102.5 -44 t-77 -112.5t-53 -152.5t-34 -164t-17.5 -148.5t-5 -103.5v-43z" />
<glyph unicode="p" horiz-adv-x="872" d="M68 84h131q0 12 2 20q0 8 1 16.5t1 14.5q-2 10 -4 44t-6.5 79t-8.5 95l-8 95.5t-6 79t-2 43.5q0 27 -1 83.5t-2 126.5l-2 149l-2 149q-1 72 -2 128.5t-1 82.5q139 0 258 -21.5t207 -77.5t137 -154.5t49 -254.5q0 -119 -43 -224t-113.5 -196.5t-162 -165t-187.5 -128.5 v-779q-31 0 -50.5 20.5t-29.5 48.5t-15 57.5t-5 47.5q-1 15 -2 41q0 13 1 28q1 46 2 103.5t3 121t4 120.5t3 102.5t1 67.5q-31 0 -49.5 -6t-32.5 -7t-27 9t-38 41zM265 628v-38q0 -57 2 -113q3 -74 11.5 -149.5t24.5 -159.5q2 0 7 -1t9 -1q53 0 102.5 35t92.5 91t79 126.5 t61.5 142.5t40 136.5t14.5 109.5q0 63 -18.5 134t-56.5 130t-95.5 98t-135.5 39q-16 0 -36.5 -12t-40 -28.5t-36 -34t-22.5 -25.5v-64q0 -45 -1 -96t-1 -96v-61q0 -86 -1 -163z" />
<glyph unicode="q" horiz-adv-x="839" d="M29 336q0 61 14 157.5t43 205t70 218t92 197.5t113.5 143.5t134.5 55.5q45 0 71.5 -24.5t50 -50.5t50.5 -39q10 -5 22 -5q21 0 47 14q2 -45 4 -139t5.5 -213l7.5 -251t7 -250.5t6 -214t5 -140.5q4 -135 11.5 -228.5t20.5 -178.5t37.5 -176t63.5 -222q20 -72 39 -112.5 t42.5 -72.5t52 -64.5t69.5 -86.5v-8v-6q0 -2 2 -2q0 -2 -1 -4t-1 -6v-9q-4 -4 -17.5 -16t-17.5 -16q-2 -2 -6 -2q-4 -2 -10 -2q-37 0 -72 29.5t-64.5 75.5t-54 104.5t-44 115t-32 105.5t-18.5 77l-17 99l-22 128l-18 116q-8 51 -10 61q-4 41 -10.5 127t-12.5 195.5 t-14.5 230.5t-14.5 230.5t-10 195.5l-6 129q-10 -43 -32.5 -113.5t-55.5 -153.5t-75 -168t-91 -153.5t-104.5 -112t-114.5 -43.5q-47 0 -71.5 23t-59.5 82q0 8 -1 32.5t-1 51.5t-1 50.5t-1 33.5zM127 387q0 -10 1 -37l2 -55l2 -55q1 -27 1 -37q0 -8 13.5 -21.5t21.5 -13.5 q53 0 102 51t91 131t76 178.5t57.5 191.5t36 171t12.5 117q0 12 -1 40.5t-2 60.5t-2 60.5t-1 38.5q0 8 -13.5 21.5t-19.5 13.5q-57 0 -107.5 -52t-92.5 -133t-74.5 -181.5t-55 -195.5t-35 -174t-12.5 -120z" />
<glyph unicode="r" horiz-adv-x="804" d="M62 1087v13q0 12 1 24q2 18 10.5 32.5t26.5 19.5q37 -14 54.5 -50t23.5 -83.5t7 -100.5t4.5 -104.5t12.5 -95.5t34 -70q37 102 79.5 190t104 151.5t146.5 99.5t206 36v-41q-178 -66 -276.5 -169t-146.5 -237.5t-61.5 -295t-19.5 -338.5q0 -8 -12 -34t-20 -34q-2 -2 -7 -2 q-4 -2 -10 -2t-10 2q-4 0 -6 2q-6 4 -19 16l-16 17q-6 129 -24 258l-34 258q-17 129 -32 257t-15 255q0 8 -1 26z" />
<glyph unicode="s" horiz-adv-x="772" d="M33 135h16q37 0 77 -11t81 -24.5t83 -25t85 -11.5q41 0 87 12.5t85 38t64.5 64.5t25.5 90q0 68 -38 127.5t-93 117.5t-122 115.5t-122 118t-93 126t-38 141.5q0 55 31 98t78 72.5t102 45t104 15.5q14 0 51.5 -1t75 -7t67.5 -20.5t30 -40.5q0 -55 -31 -100.5t-90 -45.5 q0 25 -1 51.5t-7 48t-21.5 35t-46.5 13.5q-39 0 -82 -12.5t-77.5 -36t-58.5 -57.5t-24 -79q0 -35 4.5 -63.5t32.5 -57.5l402 -436q35 -37 37 -82t2 -92q0 -139 -83 -202.5t-214 -63.5q-53 0 -106.5 5t-102.5 19.5t-93 42t-77 72.5z" />
<glyph unicode="t" horiz-adv-x="692" d="M-74 1004v71l41 14l61 19l60 19q29 9 39 14q16 6 42 18t26 17v772q0 20 23.5 54t43.5 46l33 -33v-803q84 0 166 11.5l163 23.5l161 24q81 11 165 11q0 -23 -13 -35t-31.5 -20t-38 -11.5t-33.5 -7.5q-16 -4 -81 -18l-139 -32l-137 -32l-80 -18q-12 -2 -29 -7l-34 -10 q-16 -5 -28 -11l-11 -5v-1042q0 -14 -14.5 -22.5t-32 -13.5t-33.5 -6t-20 -1v1050h-17h-16q-6 0 -31 -5l-53 -11l-53 -11q-25 -5 -31 -5q-8 0 -34 -2t-34 -2z" />
<glyph unicode="u" horiz-adv-x="804" d="M65 983q1 20 8 37.5t27 19.5l35 -32q2 -2 7 -34t11 -75l10 -88q5 -45 5 -72q2 -44 2 -87q0 -32 -1 -62q-3 -72 -4 -141v-18q0 -61 6 -121q7 -69 32 -142q2 -4 15 -17.5t18 -15.5q4 -2 8 -2q4 -2 8 -2q39 0 86 41t94 105.5t91 144.5t78 157.5t54.5 146.5t20.5 110 q0 45 -2 62t-4 28.5t-4 26t-2 55.5q0 6 -4.5 25.5t-8.5 42t-8 42t-4 23.5q2 4 11 10t19.5 11l20.5 9.5t15 4.5q29 0 43 -31t20 -72t7 -80t1 -53q0 -53 -21.5 -143t-58.5 -195.5t-87 -213t-108.5 -195t-122 -142.5t-126.5 -55q-23 0 -47.5 12t-47 32.5t-38 45.5t-19.5 49 q-2 25 -4 77t-6 118.5t-7 139.5l-6 139q-3 67 -6 119t-3 77v115q0 6 -2 24q-1 12 -2 26q1 6 1 13z" />
<glyph unicode="v" horiz-adv-x="1075" d="M18 1081q29 0 49.5 -7t32.5 -34l19 -59l28 -89l35 -105l36 -104l31 -89l19 -57q2 -4 15 -34l28 -67l32 -75q15 -38 26 -58q4 -14 17 -39.5t15 -27.5q4 -2 9 -3q4 -2 10 -2q2 0 7 2.5t9 2.5q8 27 29 85l47 131l56 152l57 153l48 130l32 86l24 59q16 39 40 85t52.5 94.5 t60 87t64.5 63t68 24.5q0 -4 -2 -21t-6 -22l-157 -317q-77 -158 -143.5 -318.5t-118.5 -328.5t-83 -346q-4 -4 -17.5 -16.5t-17.5 -16.5q-2 -2 -6 -2q-4 -2 -10 -2q-4 0 -9.5 2t-7.5 2q-49 55 -98 138t-96 179.5t-87 202t-71 206.5t-48.5 192t-17.5 163z" />
<glyph unicode="w" horiz-adv-x="1644" d="M23 1141h77l168 -873q35 14 60.5 80t49.5 156l50 192q27 102 62.5 187.5t87 141.5t127.5 56q70 0 113.5 -49t74.5 -125t52.5 -169t47 -179t59 -155.5t89.5 -100.5q4 49 15 151.5t31.5 227.5t54.5 258t81 241.5t111.5 178.5t148.5 70q0 -41 -17.5 -61.5t-41 -37t-47 -35 t-33.5 -53.5q-20 -61 -41 -162.5t-41 -221.5l-41 -247q-20 -127 -44 -236.5t-49.5 -192.5t-53.5 -115l-66 32q-4 2 -21.5 33t-38.5 74l-42 88l-33 74q-6 12 -19 48l-29 84l-37 103l-37 104l-30 84l-16 48q-14 35 -20.5 60.5t-14.5 43t-21.5 25.5t-39.5 8q-27 0 -41.5 -4 t-30.5 -33q-61 -113 -97 -215t-61.5 -202.5t-49 -204t-60.5 -218.5q-2 -4 -10.5 -18l-19.5 -31l-22 -31q-10 -14 -16 -20q-2 -2 -6 -2q-4 -2 -10 -2q-23 0 -45.5 46t-45 123t-44 176t-39.5 204l-35 206l-29 184q-12 83 -18 138.5t-6 67.5z" />
<glyph unicode="x" horiz-adv-x="1107" d="M68 1176q4 0 24.5 1t26.5 1q55 0 94 -29t67.5 -75t52.5 -103l48 -114q25 -56 53.5 -105.5t69.5 -79.5q20 35 38 88l37 113q19 60 40.5 121t53.5 110t73.5 79.5t99.5 30.5q0 -35 -22.5 -78.5t-51.5 -89.5l-57 -92q-29 -45 -43 -82l-30 -82l-34 -99l-27 -84 q-11 -36 -10 -36l469 -503v-68h-65l-404 436h-67l-39 -95q-27 -67 -62.5 -137.5t-78.5 -123.5t-88 -53v73l47 88l58 113q30 59 55.5 120.5t39.5 115.5v16v18l-51 94l-80 141l-82 141l-55 93q-4 8 -18 27l-31 40l-31 41z" />
<glyph unicode="y" horiz-adv-x="1075" d="M68 303q0 88 -1 156q0 23 -1 44q0 43 2 80q2 56 7 106t15 105.5t27.5 120t46.5 150.5q4 0 16.5 3t18.5 3q29 0 47 -15.5t18 -58.5q0 -2 -4 -12t-10 -21l-11 -22q-5 -10 -8 -12q-23 -88 -35 -152.5t-18 -119t-7 -101.5v-32q0 -33 1 -69q2 -54 4 -120t2 -156h25 q2 0 20.5 21.5t41 52.5l46 66.5t35.5 66.5q16 41 47 106l70 141l81 160l80 159l67 141q30 63 44 104q10 29 28.5 34t39.5 5q4 0 16 -2t17 -2l22 -162l33 -225l37 -257l35 -257l28.5 -225.5t16.5 -161.5q2 -8 3 -54.5t2 -104.5t1 -118v-92v-75q0 -52 -1 -111.5t-2 -111.5 t-3 -73l-28 -117q-15 -65 -44 -122.5t-73 -95t-113 -37.5q-90 0 -175.5 32.5t-138.5 106.5h19h16q4 -2 18.5 -7t32 -10.5t31.5 -10.5t18 -7q14 -4 36 -9l43 -10l38 -10l17 -4q57 0 91.5 26t56 65.5t33.5 86.5l21 91v70q0 50 1 105.5t1 105.5v71v89q0 56 -1 112.5t-1 99.5v51 q-4 55 -13 146.5t-23 201.5l-28 230l-30 228l-27 202q-12 92 -18 147l-14 -27l-22 -41l-20 -40q-9 -18 -12 -27q-57 -152 -104 -249t-97 -179t-113 -170l-150 -219q-18 -29 -28.5 -33t-39.5 -4q-43 0 -64.5 29.5t-29.5 71.5q-7 37 -8 77q0 16 1 44.5t1 37.5z" />
<glyph unicode="z" horiz-adv-x="1107" d="M23 666q0 55 26.5 88.5t70.5 52t97 29t107.5 18.5t101.5 19.5t78 33.5q37 27 64.5 81t48 117.5t34 127t19.5 110.5q-4 0 -18.5 1.5t-31 2.5t-31 2t-20.5 1q-55 0 -104 -22.5t-95 -49.5t-91.5 -49.5t-94.5 -22.5q-6 0 -26.5 1t-24.5 1q20 74 75.5 120t125 72.5t145.5 37 t142 10.5q6 0 22 -1t35.5 -1t36 -1t22.5 -1q29 -10 33 -26.5t4 -37.5q0 -66 -20.5 -124t-45 -115.5t-45 -114.5t-20.5 -119h195q-2 -6 -15.5 -18t-17.5 -17q-8 -4 -43 -13l-75 -20l-75 -21q-35 -9 -43 -13q-25 -8 -51 -48t-52 -97.5t-49.5 -123t-42 -128t-28.5 -113.5 t-10 -76q0 -31 18.5 -68.5t46.5 -50.5h15q102 0 191 49.5t167 107.5l149 108q71 49 138 49q0 -55 -35 -108.5t-90 -99.5t-126 -84t-141.5 -64.5t-136 -42t-112.5 -15.5q-94 0 -140.5 56.5t-46.5 144.5q0 74 19.5 149.5t50.5 149t67 143.5l66 129q-6 0 -26.5 2t-24.5 2 q-49 0 -95 -17.5t-90 -38t-88 -37.5t-89 -17z" />
<glyph unicode="{" horiz-adv-x="907" d="M29 1837q0 100 37.5 203.5t105.5 187.5t160 138.5t200 54.5q68 0 127.5 -16.5t103.5 -49.5t69.5 -85t25.5 -122h-121q10 6 23.5 32t11.5 36q-10 37 -40 57.5t-66.5 31.5t-74.5 13t-65 2q-86 0 -157.5 -36.5t-125 -98t-83 -141.5t-29.5 -164q0 -45 21.5 -78t52.5 -58.5 t66.5 -48t64.5 -48.5l59 -60l91 -91l92 -91q43 -43 59 -62q0 -8 3 -33.5t3 -33.5q0 -49 -18.5 -74.5t-45 -43t-57 -34t-53.5 -49.5q98 -111 169 -235.5t71 -278.5q0 -113 -19.5 -208t-55.5 -184t-86 -179t-112 -191q0 -10 -2 -41.5t-2 -42.5q0 -80 40 -115.5t100.5 -46 t130.5 -3.5l135 14q-14 -33 -46 -53.5t-71 -31.5t-80 -15.5t-72 -4.5q-55 0 -99 20.5t-74.5 56.5t-47 82t-16.5 97q0 10 2 42t2 42l98 172q49 84 87 169t61.5 174t23.5 190q0 113 -27.5 190.5t-68.5 130t-90 85t-90 57t-69 45t-28 47.5q0 31 20.5 49t50.5 31.5t66 24 t65.5 24.5t50 34.5t20.5 53.5q0 6 -1 18.5t-1 16.5q-18 23 -62 64l-95 94l-108 109l-104 108q-47 51 -76.5 91t-29.5 60z" />
<glyph unicode="|" horiz-adv-x="1812" d="M29 725q0 68 15 146.5t46 159.5t75 156t100.5 133t125 93t146.5 35q61 0 106 -12.5t86 -36t82 -55t94 -68.5q59 45 108.5 105.5t94.5 123.5l91 125q46 61 102.5 110.5t126 79t163.5 29.5q61 0 94 -19.5t46.5 -55t15.5 -84t2 -103.5q0 -61 -15.5 -163.5t-46 -225.5 t-74.5 -260t-100.5 -271.5t-124 -256t-146.5 -214t-166 -147.5t-183 -55q0 25 49 75t114 108l128 119q63 60 92 107q82 135 150.5 276.5t117.5 289t77 301t28 315.5q0 12 -1 32.5t-1 41t-1 36t-1 17.5q-4 12 -16.5 38t-18.5 30q-61 14 -126 -16.5t-125.5 -89t-116.5 -135.5 t-103 -152.5t-81 -142.5l-52 -103q20 -20 30.5 -55t13.5 -72t3 -70v-51q-37 0 -56.5 22.5t-23.5 57.5q-16 -45 -42 -78t-79 -33q0 84 -7 170t-38 155.5t-91.5 114t-166.5 44.5q-98 0 -175 -56.5t-131.5 -142.5t-83 -186.5t-28.5 -188.5q0 -51 17.5 -117.5t51 -126t84 -100.5 t117.5 -41h686q0 -70 -34.5 -110.5t-112.5 -40.5q-10 0 -36.5 12t-31.5 20q-76 0 -168 4t-186 20.5t-182 46.5t-156.5 81t-109.5 126t-41 179z" />
<glyph unicode="}" horiz-adv-x="1107" d="M33 2015v17q0 68 54 132t132 114.5t162 80t145 29.5q43 0 66.5 -37t35 -88t12.5 -104.5t1 -85.5q0 -96 -39 -179.5t-85 -163t-84 -161.5t-38 -174q0 -6 1 -17.5t2 -24.5l2 -26q1 -12 1 -16q37 -23 88.5 -32t104.5 -11t101 2t77 6q29 -10 33 -27.5t4 -40.5 q0 -49 -34 -78.5t-73.5 -57.5t-72.5 -64.5t-33 -104.5q0 -94 33 -158.5t83 -119t107.5 -107.5t107.5 -123.5t82.5 -167t32.5 -237.5q0 -43 -2 -98.5t-11 -115t-25.5 -115.5t-46 -101t-73.5 -73t-106 -28q-18 0 -49 3t-59.5 13.5t-49 27t-20.5 44.5q0 4 2 9.5t2 7.5 q4 -2 18.5 -7.5t31 -10.5t30.5 -10t21 -5h16q76 0 120 50t66.5 121t28.5 146.5t6 124.5q0 29 1 68t-1 79t-10 79t-27 69l-151 142q-78 72 -142.5 150.5t-105.5 167.5t-41 196v61q0 31 6 58.5t20.5 53t45.5 46.5q-55 10 -104.5 25.5t-87.5 43t-59.5 71.5t-21.5 112 q0 72 31 143.5t72 141.5l80 139q40 68 57 129q4 18 -1 59t-15 87l-17 88q-8 42 -8 59q-27 0 -41 5t-24.5 6t-24 -6.5t-37.5 -29.5q-14 -12 -48 -45l-72 -70l-71 -70q-33 -34 -45 -49q-4 0 -9 -2t-7 -2q-6 0 -10 2q-4 0 -8 2t-16.5 15.5t-16.5 17.5z" />
<glyph unicode="~" horiz-adv-x="2383" d="M33 1040q0 10 12 37t21 31q164 -8 314 10.5t295.5 44t292 48t304.5 22.5q0 51 -15.5 89t-35 66.5t-35 49t-15.5 39.5q0 43 31 73.5t74 30.5q41 0 61.5 -19.5t38.5 -66.5h940q43 12 40 -23.5t-35.5 -101t-85 -148.5l-108.5 -164l-107 -150l-74 -103q-23 -33 -69 -107 l-104 -164l-125 -189q-67 -97 -131.5 -178t-122 -132t-96.5 -51q0 4 1 16l3 26q1 13 3 25t4 17l12 23l22 43l23 43q10 19 10 24q4 49 0 120.5t-14 148.5t-24.5 148.5t-28.5 120.5h-17q-154 0 -304 -17t-298.5 -37.5t-298 -38t-301.5 -17.5q0 10 1 26.5t5 34t12.5 30.5 t24.5 19q293 12 592 37t584 96v52v71q0 35 -8.5 60.5t-30 41t-66.5 15.5q-117 0 -231.5 -17.5t-228 -37t-228.5 -36.5t-231 -17q-12 0 -43 1t-66 1t-66.5 1t-43.5 1q-8 0 -20.5 12t-12.5 20zM1376 1343q2 -37 10.5 -113.5t17.5 -172.5t20 -202l22 -202l18 -172l13 -112 q4 0 8 -1t8 -1q18 0 56 39.5t87.5 104t106.5 149.5l116 176l112 179l99 163l73 127q30 53 38 71h-805v-33z" />
<glyph unicode="&#xa1;" horiz-adv-x="321" d="M93.7627 1211.25l20.4209 -1152.25h-20.4209v-24.6279h127.63v1102.25v50.001q-12.7627 21.6416 -35.0977 24.627q-22.3359 2.98535 -50.4141 2.98535q-5.10547 0 -21.0596 -1.49316q-15.9541 -1.49219 -21.0586 -1.49219zM116.736 1440.36q0 -13.4336 4.4668 -29.4785 t15.9531 -29.8506q11.4873 -13.8066 32.5459 -23.1348q21.0596 -9.32812 54.2432 -9.32812q5.10547 0 19.7832 9.32812t19.7822 13.8057q5.10547 21.6426 7.6582 42.165t-10.2109 32.8359q-12.7627 12.3135 -45.9463 13.0596q-33.1846 0.74707 -98.2754 -19.4023z" />
<glyph unicode="&#xa2;" horiz-adv-x="872" />
<glyph unicode="&#xa5;" horiz-adv-x="872" d="M33 1343v33h100l42 -93l50 -117q27 -62 58.5 -126.5t66.5 -122t74 -104.5t80 -74q8 33 19 102l25 155q13 87 29.5 184.5t36 189.5t41 172t46 129t52 62.5t58.5 -27.5q-45 -219 -78 -421t-57.5 -399.5t-42 -396t-29.5 -409.5v-12q-4 -6 -13 -16.5t-19.5 -21t-20.5 -19.5 t-14 -11t-9 -2q-2 -2 -6 -2h-2q-6 0 -10 2q-4 0 -6 2q-8 4 -21.5 17.5t-13.5 15.5l4 557q-16 18 -44 54l-58 77l-60 82q-29 41 -43 69l-66 130l-78 154l-65 129q-26 54 -26 58zM57 240q0 29 42 52t106.5 40.5t142.5 30t149.5 20.5t128 11t76.5 3q16 0 42 -1t51.5 -1t45 -1 t21.5 -1v-100l-76 -14q-82 -2 -136 -3.5t-95 -3.5t-75 -7t-72.5 -12t-89.5 -20l-123 -30q-4 0 -19 -5l-32 -12l-31 -11q-14 -5 -19 -5q-14 0 -21 8t-10.5 19.5t-4.5 24t-1 18.5zM109 512q39 59 83 79.5t93 20.5t104 -9t119 -9q10 0 48 1t82 1t81 1t47 1q14 0 14 -23v-38 l-172 -48q-6 0 -19.5 1.5t-29.5 1.5t-30.5 1t-20.5 1q-63 0 -97 -3.5t-63 -7.5t-63.5 -7t-96.5 -3q-23 0 -47 4t-32 35z" />
<glyph unicode="&#xa8;" horiz-adv-x="1099" d="M389 1096q0 18 3 39.5t12.5 40t25.5 31t43 12.5q4 0 15.5 -12.5t15.5 -18.5q4 -29 6 -56.5t-8 -44t-36 -17.5t-77 26zM653 1090q0 18 3 39.5t12.5 40t26 30.5t42.5 12q4 0 15.5 -12t15.5 -18q4 -29 6 -56.5t-8 -44t-36 -17.5t-77 26z" />
<glyph unicode="&#xaa;" horiz-adv-x="1114" d="M63 285q0 53 10.5 147t31 206t52 225.5t77 206.5t103.5 152.5t130 59.5q51 0 86 -21.5t57.5 -56.5t37 -78t24.5 -86q2 18 6 48t14 58t29.5 48t50.5 20v-845q0 -33 12.5 -64t34 -54.5t48 -37.5t57.5 -14q47 0 81.5 27.5t63.5 59t57.5 59.5t65.5 28q4 0 9 -2t7 -2 q-10 -53 -31.5 -102.5t-55.5 -86.5t-79 -59.5t-102 -22.5q-88 0 -144.5 47.5t-90 119t-48 153.5t-18.5 153l-59 -156q-37 -97 -89.5 -190.5t-124 -161t-163.5 -67.5q-43 0 -81 8t-54 64q0 12 -1 42.5t-1 65.5t-1.5 66t-1.5 43zM130 217q0 -30 6 -55q7 -29 25.5 -48.5 t57.5 -19.5q33 0 53.5 8.5t35 24.5t27.5 44t36 65l25 49l41 80l40 81l27 58q8 18 26 65l40 101l41 101l28 69v16q0 37 -14.5 97.5t-41 116.5t-64.5 97t-83 41q-35 0 -70.5 -65.5t-69.5 -164.5t-63.5 -216t-52 -218.5t-36 -174t-13.5 -80.5q0 -10 -0.5 -34.5t-0.5 -37.5z" />
<glyph unicode="&#xad;" horiz-adv-x="1040" d="M29 84q0 6 2 10q0 4 2 6q4 4 16 17.5t17 17.5q156 -12 266 -3t209 27l198 34q100 16 234 16v-109l-46 -8l-111 -19l-133 -23q-69 -11 -114 -17q-29 -4 -80 -9l-105 -11l-97 -9q-43 -4 -54 -4q-4 0 -36.5 2t-69.5 10t-67.5 24.5t-30.5 47.5z" />
<glyph unicode="&#xb2;" horiz-adv-x="563" d="M18.0391 1085.24q0 31.0225 9.60156 70.2393t26.126 79.8975q16.5234 40.6797 39.0762 78.4336q22.5537 37.7539 48.0098 67.6055q25.4551 29.8516 53.3672 47.9961q27.9121 18.1455 55.6016 18.1455q18.3105 0 34.6113 -13.1699q16.2998 -13.1699 28.8047 -34.2412 q12.5049 -21.0723 19.2041 -45.6562q6.69824 -24.583 6.69824 -47.4111q0 -43.3145 -5.3584 -91.0186q-5.35938 -47.7041 -13.6211 -96.8711q-8.2627 -49.168 -18.7578 -96.5791q-10.4941 -47.4121 -21.6592 -88.3848q-2.67969 -7.02344 -11.165 -36.29l-18.7568 -62.6299 l-18.7568 -61.46q-8.48535 -28.6807 -11.6113 -35.7051v-9.9502v-10.5361q8.03809 3.5127 27.2422 11.1211q19.2031 7.60938 41.0859 17.5605l40.6406 18.7305l26.3486 12.292q1.78613 0 6.25293 4.09668l9.37793 8.78027q4.46582 4.09668 8.70898 8.78027 q4.24219 4.68164 5.13574 7.02344h-45.1064q3.57324 4.68262 15.1846 15.8037l15.1846 14.0479h3.57227q1.78613 0 2.2334 0.87793q0.446289 0.87793 1.33984 0.87793q0.892578 0 1.78613 -0.87793q0.892578 -0.87793 2.67969 -0.87793h3.12598 q15.6309 -8.19434 27.4658 -11.7061q11.834 -3.5127 19.6494 -8.4873q7.81543 -4.97559 11.3887 -13.1699q3.57227 -8.19531 3.57227 -23.999q0 -28.6807 -18.3105 -43.0215q-18.3096 -14.3398 -41.5332 -21.0713q-23.2227 -6.73145 -46.2217 -9.07227 q-23 -2.3418 -31.0391 -7.02441q-8.93164 -4.68262 -30.8145 -18.1455l-45.1064 -28.6807l-45.1055 -29.8516q-20.9902 -14.6338 -28.1357 -21.6572q-1.78613 0 -4.01953 -1.1709q-2.23242 -1.1709 -4.46582 -1.1709q-12.9512 0 -18.3105 13.1699t-5.35938 28.9746 q0 21.6562 13.8447 60.5811q13.8447 38.9238 32.1553 81.6533l35.7275 84.8721q17.8633 41.5586 25.4561 67.3125q16.5234 57.3623 24.1152 107.407q7.59277 50.0459 10.4951 99.2129q2.90332 49.168 2.00977 100.677t-0.893555 113.554q-46.4453 0 -77.707 -19.6084 t-51.8047 -49.7529t-34.3877 -65.2637l-25.9023 -65.5566q-12.5049 -29.8525 -26.7959 -49.7529q-14.291 -19.9014 -36.1738 -19.9014z" />
<glyph unicode="&#xb3;" horiz-adv-x="550" d="M26.4883 1124.28q0 50.1768 26.2949 96.9316q26.2949 46.7559 66.8096 82.9629t89.6152 57.0195q49.1006 20.8115 93.1045 20.8115q51.5156 0 70.834 -19.1016q19.3184 -19.1006 19.3184 -73.8389q0 -32.501 -5.09863 -60.1553q-5.09766 -27.6543 -14.4883 -52.7432 q-9.3916 -25.0879 -23.0752 -50.1768q-13.6836 -25.0879 -32.4648 -53.0273q39.709 -11.4033 64.9307 -25.0889q25.2217 -13.6836 39.71 -34.7812q14.4883 -21.0967 19.3184 -51.3174q4.83008 -30.2197 4.83008 -74.6943q0 -51.3174 -12.0742 -103.775 q-12.0742 -52.457 -37.832 -95.2217q-25.7578 -42.7637 -65.4678 -69.5625q-39.71 -26.7998 -93.3721 -26.7998q-13.416 0 -31.3926 2.28125t-34.0752 8.83789q-16.0986 6.55762 -27.0996 18.8164t-11.001 31.6455q2.14648 0 11.001 -1.14062 q8.85449 -1.13965 11.001 -1.13965t10.1953 -2.85156l16.6357 -6.27148l17.1719 -6.27246q7.5127 -2.85059 10.1963 -2.85059h8.58594q37.5625 0 72.1748 25.0879t60.3701 62.4355t41.0518 80.3975q15.2939 43.0488 15.2939 80.6816q0 49.0361 -22.002 84.1035 q-22.002 35.0664 -69.2246 35.0664q-33.8066 0 -57.418 -19.3867t-44.5391 -43.9043q-20.9287 -24.5186 -42.9297 -46.7559q-22.002 -22.2373 -51.5156 -27.9395q-2.14648 0 -16.6357 7.12793q-14.4893 7.12695 -19.8545 11.6885q-1.07422 1.14062 -1.07422 3.4209v5.70215 q0 2.28027 0.537109 5.41699q0.537109 3.13574 0.537109 4.27637q48.2949 58.1592 92.2988 97.2178q44.002 39.0576 77.541 80.6816t53.3945 94.6514q19.8545 53.0283 19.8545 139.696q-46.1494 0 -79.1514 -14.2539q-33.002 -14.2549 -57.1504 -35.0674 q-24.1484 -20.8115 -42.3926 -44.7598q-18.2461 -23.9482 -36.2227 -45.0449t-37.832 -35.0664q-19.8545 -13.9697 -47.2227 -13.9697z" />
<glyph unicode="&#xb4;" horiz-adv-x="780" d="M123 1316q10 9 47 22.5t102.5 47t159.5 93t219 161.5q8 18 16.5 20.5t19.5 -2.5l24 -11q12 -6 26 -7l-553 -391q-41 31 -56 44.5t-5 22.5z" />
<glyph unicode="&#xb8;" horiz-adv-x="737" d="M154 -479q2 0 15 9t15 9q27 0 51.5 -17.5t49 -38t51 -37.5t57.5 -17t63.5 8t60.5 25.5t45.5 42t17.5 57.5q0 63 -40 101t-87 72t-87 76t-40 113q-20 68 -10 95.5t29.5 22.5t37.5 -40t14 -90q0 -23 3 -41t24 -37l180 -166q25 -23 26 -51.5t1 -58.5q0 -90 -58.5 -131 t-152.5 -41q-76 0 -147.5 38t-118.5 97z" />
<glyph unicode="&#xb9;" horiz-adv-x="188" d="M60.7275 826.697q0 110.943 7.32129 226.021q7.32031 115.077 15.5205 222.92h39.8271q5.85742 -87.5146 7.02832 -152.116t0 -111.115t-4.09961 -77.1777t-5.27148 -49.4424q-2.34277 -18.7773 -4.68555 -28.252q-2.34277 -9.47559 -2.34277 -13.6094 q0 -10.6807 0.585938 -14.9883q0.585938 -4.30664 -3.80762 -4.65137q-4.39258 -0.34375 -15.8135 1.03418t-34.2627 1.37793z" />
<glyph unicode="&#xba;" horiz-adv-x="704" d="M63 373q0 96 2.5 176t6.5 159.5t11 168t17 198.5q10 20 28.5 29.5t39.5 9.5v-141h35q14 45 36.5 88t54.5 76.5t73 54t90 20.5q72 0 109.5 -43t54 -104t18.5 -128t2 -114q0 -51 -10 -133t-30.5 -174t-51.5 -185t-73 -168t-94 -122t-116 -47q-76 0 -116.5 39t-60 97 t-23 124t-3.5 119zM166 377q0 -31 1 -66t1 -66v-44q12 -37 34.5 -70t65.5 -33q49 0 88 45t69 117t52.5 158t35.5 169t20.5 150.5t7.5 102.5v48q0 34 -1 70.5t-1 70.5v46q-4 4 -13.5 14.5t-19.5 20.5t-20.5 19.5t-14.5 11.5q-2 0 -6 2q-4 0 -6 1t-4 1q-57 0 -102.5 -44 t-77 -112.5t-53 -152.5t-34 -164t-17.5 -148.5t-5 -103.5v-43z" />
<glyph unicode="&#xbc;" horiz-adv-x="1337" d="M89.542 773.72q0 146.456 10.3564 298.371q10.3574 151.914 21.957 294.277h56.3418q8.28516 -115.528 9.94238 -200.81t0 -146.684t-5.7998 -101.883t-7.45703 -65.2686t-6.62891 -37.2969q-3.31445 -12.5078 -3.31445 -17.9658q0 -14.0996 0.829102 -19.7852 q0.828125 -5.68555 -5.38574 -6.14062q-6.21387 -0.454102 -22.3711 1.36523q-16.1562 1.81934 -48.4697 1.81934zM200 -236l773 1981q8 18 19 48t27.5 57.5t38 48t52.5 20.5q0 -2 -1 -18.5t-1 -20.5l-14 -42q-9 -30 -20 -62l-21 -61q-9 -28 -13 -38l-39 -97l-67 -169 l-86 -216l-96 -240l-94 -239l-85 -216l-66 -169l-38 -98q-20 -51 -41 -119l-44 -143q-24 -74 -51.5 -145.5t-64.5 -128.5q-4 0 -9 -2t-7 -2q-6 0 -11 2q-4 0 -8 2l-16 16l-17 17v18v16zM649 292.77q0 13.873 12.8467 40.2324q12.8477 26.3594 33.7607 59.6553 l46.0107 70.4766l49.5947 74.3604l44.8154 69.9219q20.9131 32.7412 33.4619 57.7129h43.6201q0 -44.3945 -21.8105 -83.5176q-21.8096 -39.1221 -47.5039 -76.0254q-25.6934 -36.9023 -47.8027 -74.3604q-22.1084 -37.458 -22.1084 -78.5234q28.084 0 42.7236 -1.10938 q14.6396 -1.11035 22.1084 -2.21973q7.46973 -1.11035 11.6523 -1.11035t12.249 1.66504q8.06738 1.66504 23.0049 5.54883l44.8154 12.209l36.4502 10.5439l43.0215 12.208l50.1934 14.4287v466.143q0 1.10938 6.27441 6.38184q6.27344 5.27148 14.042 10.8203 l16.7305 11.0996q8.36523 5.54883 13.1465 8.32324q2.38965 2.21973 10.4561 3.88477q8.06738 1.66504 9.26172 1.66504v-496.664q5.97559 0 20.6152 1.10938q14.6396 1.11035 30.7734 2.77539q16.1328 1.66406 30.1748 2.77441t18.8223 0q4.78027 0 12.8477 -6.65918 q8.06641 -6.65918 8.06641 -11.6533q-2.39062 -3.33008 -9.85938 -9.98926t-11.0547 -8.87891q-3.58496 -1.10938 -18.5234 -3.88477l-31.6689 -4.99414l-31.6689 -4.99414q-14.9385 -2.21973 -18.5244 -4.43945q-22.1084 -13.873 -26.291 -41.0645 q-4.18262 -27.1924 -0.597656 -59.6553q3.58496 -32.4639 8.96289 -66.5918q5.37793 -34.1289 2.9873 -61.875q-2.38965 -27.7471 -18.2246 -45.5049q-15.834 -17.7578 -56.4668 -17.7578v254.714q-3.58496 0 -12.8467 1.11035q-9.26172 1.10938 -11.6523 1.10938 q-4.78027 0 -14.6396 -1.10938q-9.85938 -1.11035 -11.0537 -1.11035l-51.9854 -9.98926l-88.4355 -17.7578l-89.0322 -17.7578l-51.9854 -9.98828q-1.19531 0 -8.96387 -1.10938q-7.76758 -1.11035 -13.1455 -1.11035q-4.78027 0 -10.7559 0.554688 q-5.97461 0.555664 -12.249 2.21973q-6.27441 1.66504 -10.457 5.82715t-4.18262 11.9307z" />
<glyph unicode="&#xbd;" horiz-adv-x="1044" d="M129.728 591.089q0 201.683 7.32129 410.881q7.32031 209.198 15.5205 405.243h39.8271q5.85742 -159.091 7.02832 -276.53q1.1709 -117.438 0 -201.995t-4.09961 -140.301t-5.27148 -89.8799t-4.68555 -51.3604t-2.34277 -24.7402q0 -19.417 0.585938 -27.2461 t-3.80762 -8.45605q-4.39258 -0.625977 -15.8135 1.87891q-11.4209 2.50586 -34.2627 2.50586zM0 -242l773 1981q8 18 19 48t27.5 57.5t38 48t52.5 20.5q0 -2 -1 -18.5t-1 -20.5l-14 -42q-9 -30 -20 -62l-21 -61q-9 -28 -13 -38l-39 -97l-67 -169l-86 -216l-96 -240 l-94 -239l-85 -216l-66 -169l-38 -98q-20 -51 -41 -119l-44 -143q-24 -74 -51.5 -145.5t-64.5 -128.5q-4 0 -9 -2t-7 -2q-6 0 -11 2q-4 0 -8 2l-16 16l-17 17v18v16zM517.116 510.416q0 31.9922 8.49902 72.4365q8.5 40.4434 23.127 82.3965q14.627 41.9521 34.5908 80.8867 t42.4971 69.7207q22.5332 30.7852 47.2412 49.498t49.2178 18.7129q16.209 0 30.6377 -13.582q14.4297 -13.582 25.499 -35.3125q11.0684 -21.7314 16.999 -47.084q5.92969 -25.3525 5.92969 -48.8945q0 -44.6689 -4.74414 -93.8652q-4.74414 -49.1973 -12.0576 -99.9023 q-7.31348 -50.7061 -16.6035 -99.6006t-19.1729 -91.1494q-2.37207 -7.24316 -9.88379 -37.4248l-16.6035 -64.5898l-16.6035 -63.3818q-7.51074 -29.5781 -10.2783 -36.8213v-10.2627v-10.8652q7.11621 3.62207 24.1152 11.4697q16.999 7.84668 36.3691 18.1084 l35.9746 19.3164l23.3242 12.6768q1.58105 0 5.53516 4.22559l8.30176 9.05469q3.95312 4.22559 7.70898 9.05371q3.75488 4.83008 4.5459 7.24414h-39.9277q3.16211 4.8291 13.4404 16.2979l13.4414 14.4873h3.16309q1.58105 0 1.97656 0.90625 q0.394531 0.905273 1.18555 0.905273t1.58105 -0.905273q0.791016 -0.90625 2.37207 -0.90625h2.76758q13.8359 -8.4502 24.3125 -12.0723q10.4756 -3.62207 17.3945 -8.75293q6.91797 -5.13086 10.0801 -13.582q3.16309 -8.4502 3.16309 -24.749 q0 -29.5781 -16.209 -44.3672q-16.208 -14.7891 -36.7646 -21.7314q-20.5566 -6.94141 -40.916 -9.35645q-20.3594 -2.41406 -27.4756 -7.24316q-7.90625 -4.8291 -27.2773 -18.7129l-39.9277 -29.5781l-39.9277 -30.7852q-18.5801 -15.0908 -24.9053 -22.335 q-1.58105 0 -3.55762 -1.20703t-3.95312 -1.20703q-11.4648 0 -16.209 13.5811q-4.74414 13.582 -4.74414 29.8799q0 22.335 12.2559 62.4766q12.2549 40.1426 28.4629 84.208l31.626 87.5273q15.8135 42.8584 22.5342 69.418q14.627 59.1572 21.3467 110.768 q6.7207 51.6113 9.29004 102.317q2.57031 50.7051 1.7793 103.825t-0.791016 117.105q-41.1133 0 -68.7861 -20.2217t-45.8574 -51.3096q-18.1846 -31.0869 -30.4404 -67.3057l-22.9287 -67.6074q-11.0693 -30.7852 -23.7197 -51.3086t-32.0205 -20.5234z" />
<glyph unicode="&#xbe;" horiz-adv-x="1363" d="M27.4082 1175.2q0 40.4229 27.9629 78.0889q27.9639 37.667 71.0498 66.8359q43.0869 29.1689 95.3037 45.9355q52.2168 16.7656 99.0127 16.7656q54.7852 0 75.3291 -15.3877q20.5449 -15.3887 20.5449 -59.4863q0 -26.1826 -5.42188 -48.4609 q-5.4209 -22.2793 -15.4082 -42.4902q-9.98633 -20.2119 -24.5391 -40.4229q-14.5527 -20.2119 -34.5264 -42.7197q42.2305 -9.18652 69.0527 -20.2119q26.8213 -11.0234 42.2295 -28.0195q15.4092 -16.9961 20.5449 -41.3418t5.13574 -60.1748 q0 -41.3418 -12.8398 -83.6025q-12.8408 -42.2598 -40.2334 -76.7109t-69.6221 -56.041q-42.2305 -21.5898 -99.2979 -21.5898q-14.2676 0 -33.3848 1.83789q-19.1182 1.83789 -36.2383 7.12012q-17.1211 5.28223 -28.8193 15.1582q-11.6992 9.87598 -11.6992 25.4941 q2.2832 0 11.6992 -0.918945q9.41602 -0.917969 11.6982 -0.917969q2.2832 0 10.8438 -2.29688l17.6904 -5.05273l18.2617 -5.05371q7.98926 -2.2959 10.8428 -2.2959h9.13086q39.9482 0 76.7568 20.2109t64.2012 50.2988t43.6572 64.7686q16.2637 34.6807 16.2637 64.998 q0 39.5039 -23.3975 67.7539t-73.6172 28.25q-35.9531 0 -61.0635 -15.6172q-25.1094 -15.6182 -47.3662 -35.3701q-22.2559 -19.752 -45.6543 -37.667q-23.3975 -17.915 -54.7852 -22.5078q-2.28223 0 -17.6904 5.74121q-15.4082 5.74219 -21.1152 9.41699 q-1.1416 0.918945 -1.1416 2.75586v4.59375q0 1.83691 0.571289 4.36426q0.570312 2.52637 0.570312 3.44434q51.3613 46.8545 98.1562 78.3193q46.7959 31.4658 82.4639 64.998q35.667 33.5332 56.7822 76.2529t21.1152 112.54q-49.0781 0 -84.1758 -11.4834 q-35.0967 -11.4834 -60.7773 -28.25q-25.6797 -16.7666 -45.083 -36.0586q-19.4033 -19.293 -38.5205 -36.2891q-19.1182 -16.9961 -40.2334 -28.25t-50.2197 -11.2539zM137 -261l773 1981q8 18 19 48t27.5 57.5t38 48t52.5 20.5q0 -2 -1 -18.5t-1 -20.5l-14 -42 q-9 -30 -20 -62l-21 -61q-9 -28 -13 -38l-39 -97l-67 -169l-86 -216l-96 -240l-94 -239l-85 -216l-66 -169l-38 -98q-20 -51 -41 -119l-44 -143q-24 -74 -51.5 -145.5t-64.5 -128.5q-4 0 -9 -2t-7 -2q-6 0 -11 2q-4 0 -8 2l-16 16l-17 17v18v16zM578 263.77 q0 13.873 13.7207 40.2324t36.0576 59.6553l49.1396 70.4766l52.9697 74.3604l47.8643 69.9219q22.3359 32.7412 35.7383 57.7129h46.5869q0 -44.3945 -23.2939 -83.5176q-23.293 -39.1221 -50.7354 -76.0254q-27.4424 -36.9023 -51.0547 -74.3604t-23.6123 -78.5234 q29.9941 0 45.6299 -1.10938q15.6357 -1.11035 23.6123 -2.21973q7.97754 -1.11035 12.4453 -1.11035q4.4668 0 13.082 1.66504t24.5703 5.54883l47.8633 12.209l38.9297 10.5439l45.9492 12.208l53.6074 14.4287v466.143q0 1.10938 6.70117 6.38184 q6.70117 5.27148 14.9971 10.8203l17.8691 11.0996q8.93457 5.54883 14.04 8.32324q2.55273 2.21973 11.168 3.88477t9.89258 1.66504v-496.664q6.38086 0 22.0166 1.10938q15.6357 1.11035 32.8662 2.77539q17.2314 1.66406 32.2285 2.77441q14.998 1.11035 20.1035 0 q5.10547 0 13.7207 -6.65918t8.61523 -11.6533q-2.55273 -3.33008 -10.5303 -9.98926t-11.8057 -8.87891q-3.83008 -1.10938 -19.7842 -3.88477l-33.8232 -4.99414l-33.8242 -4.99414q-15.9551 -2.21973 -19.7832 -4.43945q-23.6133 -13.873 -28.0801 -41.0645 q-4.46777 -27.1924 -0.638672 -59.6553q3.8291 -32.4639 9.57227 -66.5918q5.74414 -34.1289 3.19141 -61.875q-2.55273 -27.7471 -19.4648 -45.5049t-60.3086 -17.7578v254.714q-3.82812 0 -13.7207 1.11035q-9.8916 1.10938 -12.4443 1.10938 q-5.10547 0 -15.6357 -1.10938q-10.5293 -1.11035 -11.8066 -1.11035l-55.5215 -9.98926l-94.4512 -17.7578l-95.0898 -17.7578l-55.5215 -9.98828q-1.27637 0 -9.57227 -1.10938q-8.29688 -1.11035 -14.041 -1.11035q-5.10547 0 -11.4863 0.554688 q-6.38281 0.555664 -13.083 2.21973q-6.70117 1.66504 -11.1689 5.82715q-4.4668 4.16211 -4.4668 11.9307z" />
<glyph unicode="&#xbf;" horiz-adv-x="985" d="M22.2041 531.743q0 -114.147 58.041 -211.51q58.04 -97.3613 146.628 -167.865q88.5869 -70.5029 192.958 -110.79q104.37 -40.2881 196.013 -40.2881q31.5664 0 84.5146 14.3887q52.9492 14.3877 103.353 42.2061q50.4033 27.8174 85.5332 67.1455 q35.1289 39.3291 29.0195 88.249q-8.14551 69.0645 -45.8213 148.201q-37.6748 79.1367 -94.6963 157.793q-57.0225 78.6562 -128.3 151.559q-71.2773 72.9004 -147.137 128.536q-75.8604 55.6357 -151.211 89.208q-75.3496 33.5732 -139.5 33.5732 q0 -43.165 42.7666 -86.3311q42.7666 -43.165 107.935 -91.126l141.537 -102.638q75.3496 -53.7168 140.518 -116.546q65.168 -62.8301 107.935 -136.69t42.7666 -160.191q0 -29.7363 -18.8379 -52.2773q-18.8369 -22.542 -46.8389 -36.9307t-58.04 -22.542 q-30.0391 -8.15332 -55.4951 -8.15332q-91.6426 0 -172.084 37.4102q-80.4414 37.4092 -150.191 97.3613t-127.791 135.731q-58.04 75.7783 -104.879 152.517h-38.6943zM315.46 1405.6q6.11035 -17.2666 26.9844 -33.0938t43.7842 -25.8984 q22.9111 -10.0723 42.7666 -10.0723t28.5107 15.8271t-1.01758 50.3594q-9.67383 34.5322 -44.2939 93.0449q-35.6387 0 -66.1865 -22.541q-30.5479 -22.542 -30.5479 -67.626z" />
<glyph unicode="&#xc0;" d="M33 51q0 29 23.5 83t54.5 114l57 111q27 52 33 77q4 20 20 82l37 145l43 176l43 176l36 145q15 62 21 83l28 108q17 69 43 135t62.5 114.5t86.5 48.5q16 0 30.5 -12.5t25.5 -29t18 -34t10 -29.5l167 -672q2 -8 15.5 -20t17.5 -12q2 0 13 5l21 11l22 11q10 5 12 5 q8 4 38.5 6.5t39.5 2.5q0 -33 -18.5 -54.5t-40 -40t-39 -40t-17.5 -54.5q0 -74 28.5 -131t63.5 -111.5t63.5 -109.5t28.5 -125q-66 0 -108.5 34t-70.5 85t-46 111l-35 112q-16 51 -35.5 85t-50.5 34q-6 0 -42 -11.5t-86 -31t-107.5 -45t-107.5 -52t-86 -52t-44 -48.5 l-133 -403q-10 -29 -28.5 -33t-39.5 -4q-27 0 -47 12t-20 43zM365 688q0 -4 2 -24.5t2 -26.5q12 4 48 13l81 22q45 12 93 28.5t88 35t66.5 41t26.5 46.5v17q-4 14 -14 60l-24 109q-13 62 -29.5 131.5t-29.5 132.5l-24 108q-10 46 -14 63v33q-4 6 -16 18l-17 16l-86 -195 q-43 -101 -76.5 -206.5t-55 -212.5t-21.5 -209zM86 2096q20 0 39 7t34 11t27.5 2t22.5 -20q176 -104 309 -167t226.5 -96.5t145.5 -48t66.5 -24t-8.5 -22.5l-77 -46z" />
<glyph unicode="&#xc1;" d="M33 51q0 29 23.5 83t54.5 114l57 111q27 52 33 77q4 20 20 82l37 145l43 176l43 176l36 145q15 62 21 83l28 108q17 69 43 135t62.5 114.5t86.5 48.5q16 0 30.5 -12.5t25.5 -29t18 -34t10 -29.5l167 -672q2 -8 15.5 -20t17.5 -12q2 0 13 5l21 11l22 11q10 5 12 5 q8 4 38.5 6.5t39.5 2.5q0 -33 -18.5 -54.5t-40 -40t-39 -40t-17.5 -54.5q0 -74 28.5 -131t63.5 -111.5t63.5 -109.5t28.5 -125q-66 0 -108.5 34t-70.5 85t-46 111l-35 112q-16 51 -35.5 85t-50.5 34q-6 0 -42 -11.5t-86 -31t-107.5 -45t-107.5 -52t-86 -52t-44 -48.5 l-133 -403q-10 -29 -28.5 -33t-39.5 -4q-27 0 -47 12t-20 43zM365 688q0 -4 2 -24.5t2 -26.5q12 4 48 13l81 22q45 12 93 28.5t88 35t66.5 41t26.5 46.5v17q-4 14 -14 60l-24 109q-13 62 -29.5 131.5t-29.5 132.5l-24 108q-10 46 -14 63v33q-4 6 -16 18l-17 16l-86 -195 q-43 -101 -76.5 -206.5t-55 -212.5t-21.5 -209zM330 1726q10 9 47 22.5t102.5 47t159.5 93t219 161.5q8 18 16.5 20.5t19.5 -2.5l24 -11q12 -6 26 -7l-553 -391q-41 31 -56 44.5t-5 22.5z" />
<glyph unicode="&#xc2;" d="M33 51q0 29 23.5 83t54.5 114l57 111q27 52 33 77q4 20 20 82l37 145l43 176l43 176l36 145q15 62 21 83l28 108q17 69 43 135t62.5 114.5t86.5 48.5q16 0 30.5 -12.5t25.5 -29t18 -34t10 -29.5l167 -672q2 -8 15.5 -20t17.5 -12q2 0 13 5l21 11l22 11q10 5 12 5 q8 4 38.5 6.5t39.5 2.5q0 -33 -18.5 -54.5t-40 -40t-39 -40t-17.5 -54.5q0 -74 28.5 -131t63.5 -111.5t63.5 -109.5t28.5 -125q-66 0 -108.5 34t-70.5 85t-46 111l-35 112q-16 51 -35.5 85t-50.5 34q-6 0 -42 -11.5t-86 -31t-107.5 -45t-107.5 -52t-86 -52t-44 -48.5 l-133 -403q-10 -29 -28.5 -33t-39.5 -4q-27 0 -47 12t-20 43zM365 688q0 -4 2 -24.5t2 -26.5q12 4 48 13l81 22q45 12 93 28.5t88 35t66.5 41t26.5 46.5v17q-4 14 -14 60l-24 109q-13 62 -29.5 131.5t-29.5 132.5l-24 108q-10 46 -14 63v33q-4 6 -16 18l-17 16l-86 -195 q-43 -101 -76.5 -206.5t-55 -212.5t-21.5 -209zM278 1631q4 8 29 45l58 87l74 105l75 102q35 46 61.5 76.5t34.5 30.5q31 0 55.5 -29.5t45 -75.5t41 -101.5t42 -108t48 -94t61.5 -60.5q-25 -16 -41.5 -44t-26.5 -56l-65 67l-164 332h-33q-4 0 -25.5 -38t-48.5 -92l-53 -112 q-27 -57 -41 -94z" />
<glyph unicode="&#xc3;" d="M33 51q0 29 23.5 83t54.5 114l57 111q27 52 33 77q4 20 20 82l37 145l43 176l43 176l36 145q15 62 21 83l28 108q17 69 43 135t62.5 114.5t86.5 48.5q16 0 30.5 -12.5t25.5 -29t18 -34t10 -29.5l167 -672q2 -8 15.5 -20t17.5 -12q2 0 13 5l21 11l22 11q10 5 12 5 q8 4 38.5 6.5t39.5 2.5q0 -33 -18.5 -54.5t-40 -40t-39 -40t-17.5 -54.5q0 -74 28.5 -131t63.5 -111.5t63.5 -109.5t28.5 -125q-66 0 -108.5 34t-70.5 85t-46 111l-35 112q-16 51 -35.5 85t-50.5 34q-6 0 -42 -11.5t-86 -31t-107.5 -45t-107.5 -52t-86 -52t-44 -48.5 l-133 -403q-10 -29 -28.5 -33t-39.5 -4q-27 0 -47 12t-20 43zM365 688q0 -4 2 -24.5t2 -26.5q12 4 48 13l81 22q45 12 93 28.5t88 35t66.5 41t26.5 46.5v17q-4 14 -14 60l-24 109q-13 62 -29.5 131.5t-29.5 132.5l-24 108q-10 46 -14 63v33q-4 6 -16 18l-17 16l-86 -195 q-43 -101 -76.5 -206.5t-55 -212.5t-21.5 -209zM-32 1606.5q1 23.5 1 39.5q0 31 4.5 88.5t16.5 125t31.5 137t49.5 127t72 93t97 35.5q72 0 129 -32.5t106 -80.5t94.5 -105.5t96.5 -105.5t110.5 -81t137.5 -33q80 0 153.5 40t137 97.5t117.5 120.5l95 111q0 -4 2.5 -24.5 t2.5 -26.5q0 -84 -46.5 -156t-117 -124t-154.5 -81t-158 -29q-117 0 -207 32t-166.5 86t-147.5 128l-148 160q-4 0 -9.5 2t-9.5 2q-49 0 -80.5 -39t-52 -100.5t-32 -136t-19.5 -145.5l-15 -130q-7 -59 -18 -90q-4 0 -9 -2t-7 -2q-27 0 -39 16.5t-15.5 38t-2.5 45z" />
<glyph unicode="&#xc4;" d="M33 51q0 29 23.5 83t54.5 114l57 111q27 52 33 77q4 20 20 82l37 145l43 176l43 176l36 145q15 62 21 83l28 108q17 69 43 135t62.5 114.5t86.5 48.5q16 0 30.5 -12.5t25.5 -29t18 -34t10 -29.5l167 -672q2 -8 15.5 -20t17.5 -12q2 0 13 5l21 11l22 11q10 5 12 5 q8 4 38.5 6.5t39.5 2.5q0 -33 -18.5 -54.5t-40 -40t-39 -40t-17.5 -54.5q0 -74 28.5 -131t63.5 -111.5t63.5 -109.5t28.5 -125q-66 0 -108.5 34t-70.5 85t-46 111l-35 112q-16 51 -35.5 85t-50.5 34q-6 0 -42 -11.5t-86 -31t-107.5 -45t-107.5 -52t-86 -52t-44 -48.5 l-133 -403q-10 -29 -28.5 -33t-39.5 -4q-27 0 -47 12t-20 43zM365 688q0 -4 2 -24.5t2 -26.5q12 4 48 13l81 22q45 12 93 28.5t88 35t66.5 41t26.5 46.5v17q-4 14 -14 60l-24 109q-13 62 -29.5 131.5t-29.5 132.5l-24 108q-10 46 -14 63v33q-4 6 -16 18l-17 16l-86 -195 q-43 -101 -76.5 -206.5t-55 -212.5t-21.5 -209zM400.332 1780.1q0 15.5879 2.67773 34.2061q2.67871 18.6182 11.1611 34.6387t22.7686 26.8447t38.3945 10.8242q3.57129 0 13.8398 -10.8242q10.2676 -10.8242 13.8398 -16.0205q3.57129 -25.1133 5.35645 -48.9268 q1.78613 -23.8145 -7.14258 -38.1025q-8.92871 -14.2891 -32.1436 -15.1553q-23.2148 -0.865234 -68.752 22.5156zM636.053 1774.9q0 15.5869 2.67871 34.2051t11.1611 34.6387t23.2148 26.4121t37.9473 10.3916q3.57227 0 13.8398 -10.3916 q10.2686 -10.3916 13.8398 -15.5879q3.57129 -25.1123 5.35742 -48.9268q1.78516 -23.8135 -7.14355 -38.1025q-8.92871 -14.2881 -32.1436 -15.1543t-68.752 22.5156z" />
<glyph unicode="&#xc5;" d="M33 51q0 29 23.5 83t54.5 114l57 111q27 52 33 77q4 20 20 82l37 145l43 176l43 176l36 145q15 62 21 83l28 108q17 69 43 135t62.5 114.5t86.5 48.5q16 0 30.5 -12.5t25.5 -29t18 -34t10 -29.5l167 -672q2 -8 15.5 -20t17.5 -12q2 0 13 5l21 11l22 11q10 5 12 5 q8 4 38.5 6.5t39.5 2.5q0 -33 -18.5 -54.5t-40 -40t-39 -40t-17.5 -54.5q0 -74 28.5 -131t63.5 -111.5t63.5 -109.5t28.5 -125q-66 0 -108.5 34t-70.5 85t-46 111l-35 112q-16 51 -35.5 85t-50.5 34q-6 0 -42 -11.5t-86 -31t-107.5 -45t-107.5 -52t-86 -52t-44 -48.5 l-133 -403q-10 -29 -28.5 -33t-39.5 -4q-27 0 -47 12t-20 43zM365 688q0 -4 2 -24.5t2 -26.5q12 4 48 13l81 22q45 12 93 28.5t88 35t66.5 41t26.5 46.5v17q-4 14 -14 60l-24 109q-13 62 -29.5 131.5t-29.5 132.5l-24 108q-10 46 -14 63v33q-4 6 -16 18l-17 16l-86 -195 q-43 -101 -76.5 -206.5t-55 -212.5t-21.5 -209zM397 1686v33q0 12 3.5 42.5t13.5 64.5t30.5 62.5t55.5 39.5q2 0 24.5 2t50 3t53 3t32.5 2q53 0 81.5 -15.5t41 -35t14.5 -41t2 -33.5q0 -18 -13.5 -55t-44 -73t-81 -62.5t-123.5 -26.5q-59 0 -88 14t-40.5 35t-11.5 41z M469 1670.5q2 -15.5 15.5 -26.5t48.5 -11q61 0 99 22.5t59.5 53t28.5 61.5t7 47q0 8 -3 32.5t-3 30.5q-10 10 -25.5 19.5t-48.5 9.5h-22q-86 -45 -119 -90t-33 -98q0 -6 -3 -20.5t-1 -30z" />
<glyph unicode="&#xc6;" horiz-adv-x="2013" d="M33 51q0 29 23.5 83t54.5 114l57 111q27 52 33 77q4 20 20 82l37 145l43 176l43 176l36 145q15 62 21 83l28 108q17 69 43 135t62.5 114.5t86.5 48.5q16 0 30.5 -12.5t25.5 -29t18 -34t10 -29.5l167 -672q2 -8 15.5 -20t17.5 -12q2 0 13 5l21 11l22 11q10 5 12 5 q8 4 38.5 6.5t39.5 2.5q0 -33 -18.5 -54.5t-40 -40t-39 -40t-17.5 -54.5q0 -74 28.5 -131t63.5 -111.5t63.5 -109.5t28.5 -125q-66 0 -108.5 34t-70.5 85t-46 111l-35 112q-16 51 -35.5 85t-50.5 34q-6 0 -42 -11.5t-86 -31t-107.5 -45t-107.5 -52t-86 -52t-44 -48.5 l-133 -403q-10 -29 -28.5 -33t-39.5 -4q-27 0 -47 12t-20 43zM365 688q0 -4 2 -24.5t2 -26.5q12 4 48 13l81 22q45 12 93 28.5t88 35t66.5 41t26.5 46.5v17q-4 14 -14 60l-24 109q-13 62 -29.5 131.5t-29.5 132.5l-24 108q-10 46 -14 63v33q-4 6 -16 18l-17 16l-86 -195 q-43 -101 -76.5 -206.5t-55 -212.5t-21.5 -209zM835 576q0 57 28 109.5t60.5 102.5t60.5 98t28 97q0 33 -29 50.5t-62.5 35t-60.5 38.5q-22 17 -22 47q0 7 2 14q12 88 53 184t105.5 175t149.5 130t185 51q20 0 46 -1t48.5 -9t38 -26.5t15.5 -51.5q0 -2 -1 -3t-1 -5 q-2 -4 -2 -8q0 -6 -6 -16l-10 -21l-10 -19.5t-7 -11.5t-6 -2h-11h-10q-4 0 -6 2q-14 8 -28.5 25.5t-31 34t-36 29t-39.5 12.5q-53 0 -107.5 -45t-98.5 -108.5t-71.5 -132.5t-27.5 -116q0 -59 14 -81.5t74 -22.5q51 0 98 22.5t93 48t93 48t101 22.5q8 0 19 -1t21.5 -4 t18.5 -10t8 -22q0 -33 -42 -67.5t-105 -74.5l-138 -88q-75 -48 -138.5 -106.5t-105.5 -129t-42 -156.5q0 -55 18.5 -92t51 -57.5t75.5 -29t90 -8.5q113 0 215.5 39t195.5 101.5t175 140.5t154 158h39q0 -57 -42 -121t-108.5 -123.5t-150.5 -113.5t-167 -95t-157 -64.5 t-123 -23.5q-59 0 -123.5 11t-120 41t-91.5 78t-36 122z" />
<glyph unicode="&#xc7;" horiz-adv-x="1075" d="M63 432q0 70 8.5 170t29 210t54 217.5t86 192.5t123 138t164.5 53q74 0 112 -39t55.5 -95t18.5 -122.5t1 -122.5q-41 0 -58.5 23.5t-24.5 57.5t-10.5 75t-14.5 74.5t-36.5 57.5t-78.5 24q-63 0 -112.5 -52.5t-85.5 -135.5t-60.5 -184.5t-40 -198.5t-21.5 -179t-6 -125 v-48q0 -34 1 -72t1 -70v-45l38 -66q15 -27 32.5 -42t43 -22.5t68.5 -7.5q113 0 215.5 53.5t188.5 136.5t151.5 185t102.5 199h41q0 -121 -67 -241t-169 -217t-226 -157.5t-241 -60.5q-90 0 -145.5 41t-86 105.5t-41 141t-10.5 148.5zM295 -479q2 0 15 9t15 9 q27 0 51.5 -17.5t49 -38t51 -37.5t57.5 -17t63.5 8t60.5 25.5t45.5 42t17.5 57.5q0 63 -40 101t-87 72t-87 76t-40 113q-20 68 -10 95.5t29.5 22.5t37.5 -40t14 -90q0 -23 3 -41t24 -37l180 -166q25 -23 26 -51.5t1 -58.5q0 -90 -58.5 -131t-152.5 -41q-76 0 -147.5 38 t-118.5 97z" />
<glyph unicode="&#xc8;" horiz-adv-x="1208" d="M63 248q0 57 28 109.5t60.5 102.5t60.5 98t28 97q0 33 -29 50.5t-62.5 35t-60.5 38.5q-22 17 -22 47q0 7 2 14q12 88 53 184t105.5 175t149.5 130t185 51q20 0 46 -1t48.5 -9t38 -26.5t15.5 -51.5q0 -2 -1 -3t-1 -5q-2 -4 -2 -8q0 -6 -6 -16l-10 -21l-10 -19.5t-7 -11.5 t-6 -2h-11h-10q-4 0 -6 2q-14 8 -28.5 25.5t-31 34t-36 29t-39.5 12.5q-53 0 -107.5 -45t-98.5 -108.5t-71.5 -132.5t-27.5 -116q0 -59 14 -81.5t74 -22.5q51 0 98 22.5t93 48t93 48t101 22.5q8 0 19 -1t21.5 -4t18.5 -10t8 -22q0 -33 -42 -67.5t-105 -74.5l-138 -88 q-75 -48 -138.5 -106.5t-105.5 -129t-42 -156.5q0 -55 18.5 -92t51 -57.5t75.5 -29t90 -8.5q113 0 215.5 39t195.5 101.5t175 140.5t154 158h39q0 -57 -42 -121t-108.5 -123.5t-150.5 -113.5t-167 -95t-157 -64.5t-123 -23.5q-59 0 -123.5 11t-120 41t-91.5 78t-36 122z M88 1829q20 0 39 7t34 11t27.5 2t22.5 -20q176 -104 309 -167t226.5 -96.5t145.5 -48t66.5 -24t-8.5 -22.5l-77 -46z" />
<glyph unicode="&#xc9;" horiz-adv-x="1208" d="M63 248q0 57 28 109.5t60.5 102.5t60.5 98t28 97q0 33 -29 50.5t-62.5 35t-60.5 38.5q-22 17 -22 47q0 7 2 14q12 88 53 184t105.5 175t149.5 130t185 51q20 0 46 -1t48.5 -9t38 -26.5t15.5 -51.5q0 -2 -1 -3t-1 -5q-2 -4 -2 -8q0 -6 -6 -16l-10 -21l-10 -19.5t-7 -11.5 t-6 -2h-11h-10q-4 0 -6 2q-14 8 -28.5 25.5t-31 34t-36 29t-39.5 12.5q-53 0 -107.5 -45t-98.5 -108.5t-71.5 -132.5t-27.5 -116q0 -59 14 -81.5t74 -22.5q51 0 98 22.5t93 48t93 48t101 22.5q8 0 19 -1t21.5 -4t18.5 -10t8 -22q0 -33 -42 -67.5t-105 -74.5l-138 -88 q-75 -48 -138.5 -106.5t-105.5 -129t-42 -156.5q0 -55 18.5 -92t51 -57.5t75.5 -29t90 -8.5q113 0 215.5 39t195.5 101.5t175 140.5t154 158h39q0 -57 -42 -121t-108.5 -123.5t-150.5 -113.5t-167 -95t-157 -64.5t-123 -23.5q-59 0 -123.5 11t-120 41t-91.5 78t-36 122z M143 1427q10 9 47 22.5t102.5 47t159.5 93t219 161.5q8 18 16.5 20.5t19.5 -2.5l24 -11q12 -6 26 -7l-553 -391q-41 31 -56 44.5t-5 22.5z" />
<glyph unicode="&#xca;" horiz-adv-x="1208" d="M63 248q0 57 28 109.5t60.5 102.5t60.5 98t28 97q0 33 -29 50.5t-62.5 35t-60.5 38.5q-22 17 -22 47q0 7 2 14q12 88 53 184t105.5 175t149.5 130t185 51q20 0 46 -1t48.5 -9t38 -26.5t15.5 -51.5q0 -2 -1 -3t-1 -5q-2 -4 -2 -8q0 -6 -6 -16l-10 -21l-10 -19.5t-7 -11.5 t-6 -2h-11h-10q-4 0 -6 2q-14 8 -28.5 25.5t-31 34t-36 29t-39.5 12.5q-53 0 -107.5 -45t-98.5 -108.5t-71.5 -132.5t-27.5 -116q0 -59 14 -81.5t74 -22.5q51 0 98 22.5t93 48t93 48t101 22.5q8 0 19 -1t21.5 -4t18.5 -10t8 -22q0 -33 -42 -67.5t-105 -74.5l-138 -88 q-75 -48 -138.5 -106.5t-105.5 -129t-42 -156.5q0 -55 18.5 -92t51 -57.5t75.5 -29t90 -8.5q113 0 215.5 39t195.5 101.5t175 140.5t154 158h39q0 -57 -42 -121t-108.5 -123.5t-150.5 -113.5t-167 -95t-157 -64.5t-123 -23.5q-59 0 -123.5 11t-120 41t-91.5 78t-36 122z M172 1540q4 8 29 45l58 87l74 105l75 102q35 46 61.5 76.5t34.5 30.5q31 0 55.5 -29.5t45 -75.5t41 -101.5t42 -108t48 -94t61.5 -60.5q-25 -16 -41.5 -44t-26.5 -56l-65 67l-164 332h-33q-4 0 -25.5 -38t-48.5 -92l-53 -112q-27 -57 -41 -94z" />
<glyph unicode="&#xcb;" horiz-adv-x="1208" d="M63 248q0 57 28 109.5t60.5 102.5t60.5 98t28 97q0 33 -29 50.5t-62.5 35t-60.5 38.5q-22 17 -22 47q0 7 2 14q12 88 53 184t105.5 175t149.5 130t185 51q20 0 46 -1t48.5 -9t38 -26.5t15.5 -51.5q0 -2 -1 -3t-1 -5q-2 -4 -2 -8q0 -6 -6 -16l-10 -21l-10 -19.5t-7 -11.5 t-6 -2h-11h-10q-4 0 -6 2q-14 8 -28.5 25.5t-31 34t-36 29t-39.5 12.5q-53 0 -107.5 -45t-98.5 -108.5t-71.5 -132.5t-27.5 -116q0 -59 14 -81.5t74 -22.5q51 0 98 22.5t93 48t93 48t101 22.5q8 0 19 -1t21.5 -4t18.5 -10t8 -22q0 -33 -42 -67.5t-105 -74.5l-138 -88 q-75 -48 -138.5 -106.5t-105.5 -129t-42 -156.5q0 -55 18.5 -92t51 -57.5t75.5 -29t90 -8.5q113 0 215.5 39t195.5 101.5t175 140.5t154 158h39q0 -57 -42 -121t-108.5 -123.5t-150.5 -113.5t-167 -95t-157 -64.5t-123 -23.5q-59 0 -123.5 11t-120 41t-91.5 78t-36 122z M246 1456q0 18 3 39.5t12.5 40t25.5 31t43 12.5q4 0 15.5 -12.5t15.5 -18.5q4 -29 6 -56.5t-8 -44t-36 -17.5t-77 26zM510 1450q0 18 3 39.5t12.5 40t26 30.5t42.5 12q4 0 15.5 -12t15.5 -18q4 -29 6 -56.5t-8 -44t-36 -17.5t-77 26z" />
<glyph unicode="&#xcc;" horiz-adv-x="268" d="M33 1040v37v31q2 27 7 67l10 77q5 38 10 65l6 26h57q0 -256 8 -520t37 -520q35 -35 36 -81t1 -87q0 -16 1 -40v-11q0 -17 -2 -34q-3 -22 -15.5 -38t-38.5 -16q-20 0 -35 17.5t-25 41t-16 46t-8 34.5q-2 33 -4.5 103.5t-6.5 159.5t-7 188l-6 188q-3 90 -6 160.5t-3 105.5z M-271 1713q20 0 39 7t34 11t27.5 2t22.5 -20q176 -104 309 -167t226.5 -96.5t145.5 -48t66.5 -24t-8.5 -22.5l-77 -46z" />
<glyph unicode="&#xcd;" horiz-adv-x="268" d="M33 1040v37v31q2 27 7 67l10 77q5 38 10 65l6 26h57q0 -256 8 -520t37 -520q35 -35 36 -81t1 -87q0 -16 1 -40v-11q0 -17 -2 -34q-3 -22 -15.5 -38t-38.5 -16q-20 0 -35 17.5t-25 41t-16 46t-8 34.5q-2 33 -4.5 103.5t-6.5 159.5t-7 188l-6 188q-3 90 -6 160.5t-3 105.5z M-225 1482q10 9 47 22.5t102.5 47t159.5 93t219 161.5q8 18 16.5 20.5t19.5 -2.5l24 -11q12 -6 26 -7l-553 -391q-41 31 -56 44.5t-5 22.5z" />
<glyph unicode="&#xce;" horiz-adv-x="268" d="M33 1040v37v31q2 27 7 67l10 77q5 38 10 65l6 26h57q0 -256 8 -520t37 -520q35 -35 36 -81t1 -87q0 -16 1 -40v-11q0 -17 -2 -34q-3 -22 -15.5 -38t-38.5 -16q-20 0 -35 17.5t-25 41t-16 46t-8 34.5q-2 33 -4.5 103.5t-6.5 159.5t-7 188l-6 188q-3 90 -6 160.5t-3 105.5z M-182 1491q4 8 29 45l58 87l74 105l75 102q35 46 61.5 76.5t34.5 30.5q31 0 55.5 -29.5t45 -75.5t41 -101.5t42 -108t48 -94t61.5 -60.5q-25 -16 -41.5 -44t-26.5 -56l-65 67l-164 332h-33q-4 0 -25.5 -38t-48.5 -92l-53 -112q-27 -57 -41 -94z" />
<glyph unicode="&#xcf;" horiz-adv-x="268" d="M33 1040v37v31q2 27 7 67l10 77q5 38 10 65l6 26h57q0 -256 8 -520t37 -520q35 -35 36 -81t1 -87q0 -16 1 -40v-11q0 -17 -2 -34q-3 -22 -15.5 -38t-38.5 -16q-20 0 -35 17.5t-25 41t-16 46t-8 34.5q-2 33 -4.5 103.5t-6.5 159.5t-7 188l-6 188q-3 90 -6 160.5t-3 105.5z M-64 1506q0 18 3 39.5t12.5 40t25.5 31t43 12.5q4 0 15.5 -12.5t15.5 -18.5q4 -29 6 -56.5t-8 -44t-36 -17.5t-77 26zM200 1500q0 18 3 39.5t12.5 40t26 30.5t42.5 12q4 0 15.5 -12t15.5 -18q4 -29 6 -56.5t-8 -44t-36 -17.5t-77 26z" />
<glyph unicode="&#xd0;" horiz-adv-x="1208" d="M-2 756q0 6 2 10q0 4 2 6q4 4 16.5 17.5t16.5 17.5q88 6 171 -9.5t151.5 -41t115.5 -55t61.5 -51t-8 -29t-94.5 11.5q-55 -8 -94 7t-59 15q-4 0 -48.5 4.5t-96.5 15.5t-94 30.5t-42 50.5zM63 1212v9q0 6 3 10q0 6 2 12l168 168q4 2 59 0t130 -7t152.5 -12.5t127.5 -15.5 q96 -14 177 -50t139 -93t91 -135t33 -174q0 -98 -37 -205t-99.5 -210t-147.5 -196.5t-182 -164t-201.5 -111.5t-205.5 -41q0 145 -10 293.5t-22 297.5l-24 297q-11 148 -13 292l-35 32q0 -8 -12.5 -33.5t-20.5 -33.5q-2 -2 -6 -2h-10q-31 0 -43.5 23t-12.5 50zM336 369 q4 -12 13 -45l21 -70q11 -37 20 -71l13 -48q0 -4 2.5 -20.5t2.5 -20.5q63 0 136.5 42t148.5 111.5t143.5 158t122 180.5t85 180t31.5 158q0 82 -49 152.5t-123 122.5t-159 81t-156 29h-17l-68 -11q-40 -6 -77 -10l-90 -12v-907z" />
<glyph unicode="&#xd1;" d="M63 1128l66 76l47 53q23 25 27 25q49 0 62.5 -41t15.5 -97q1 -38 1 -76v-21.5v-21.5q0 -54 21 -85l51 -79l67 -101l73 -109l67 -100l51 -77q20 -32 27 -38q20 -27 58 -70.5t84 -86.5t97.5 -74t96.5 -31v1202q0 16 15.5 24.5t34.5 12.5t36.5 5t19.5 1q0 -63 -20.5 -114.5 t-20.5 -108.5q0 -135 11.5 -269t25 -266.5t24.5 -265.5t11 -264q0 -20 -1 -44t-8 -44t-21.5 -33.5t-41.5 -13.5q-74 0 -157.5 59.5t-161.5 141.5t-144 168l-106 139l-42 58l-62 90l-61 91q-28 43 -38 62v-737q0 -47 -16 -59.5t-47 -12.5q-8 0 -19.5 1t-22.5 4t-19.5 10 t-8.5 22v975q-29 16 -50.5 51.5t-21.5 68.5zM-128 1424.5q1 23.5 1 39.5q0 31 4.5 88.5t16.5 125t31.5 137t49.5 127t72 93t97 35.5q72 0 129 -32.5t106 -80.5t94.5 -105.5t96.5 -105.5t110.5 -81t137.5 -33q80 0 153.5 40t137 97.5t117.5 120.5l95 111q0 -4 2.5 -24.5 t2.5 -26.5q0 -84 -46.5 -156t-117 -124t-154.5 -81t-158 -29q-117 0 -207 32t-166.5 86t-147.5 128l-148 160q-4 0 -9.5 2t-9.5 2q-49 0 -80.5 -39t-52 -100.5t-32 -136t-19.5 -145.5l-15 -130q-7 -59 -18 -90q-4 0 -9 -2t-7 -2q-27 0 -39 16.5t-15.5 38t-2.5 45z" />
<glyph unicode="&#xd2;" horiz-adv-x="671" d="M62 371q1 45 1 75q0 31 1.5 92.5t6.5 138.5t14 161t24.5 158.5t38 131t55.5 80.5q2 2 32.5 8.5t69.5 12.5l73 11q34 5 42 5q49 0 82 -25.5t53 -65.5t31.5 -90t16.5 -101.5t5 -97.5v-77q0 -45 -8 -120.5t-24.5 -163.5t-44 -177t-67.5 -162t-92.5 -119t-119.5 -46 q-53 0 -88 24.5t-56.5 64.5t-30.5 89t-12 98q-2 37 -3 72v23zM161 273q3 -56 21.5 -99t63.5 -43q55 0 96 40t70.5 102.5t48 139t30 151.5t15.5 139.5t4 101.5q0 14 -1 48t-2 72t-2 70.5t-1 44.5q-12 39 -35 72t-66 33q-4 0 -17 -2t-15 -2q-59 -82 -98.5 -163t-63 -165 t-33.5 -173t-10 -187q0 -18 -4 -71q-2 -30 -3 -61zM-131 1666q20 0 39 7t34 11t27.5 2t22.5 -20q176 -104 309 -167t226.5 -96.5t145.5 -48t66.5 -24t-8.5 -22.5l-77 -46z" />
<glyph unicode="&#xd3;" horiz-adv-x="671" d="M62 371q1 45 1 75q0 31 1.5 92.5t6.5 138.5t14 161t24.5 158.5t38 131t55.5 80.5q2 2 32.5 8.5t69.5 12.5l73 11q34 5 42 5q49 0 82 -25.5t53 -65.5t31.5 -90t16.5 -101.5t5 -97.5v-77q0 -45 -8 -120.5t-24.5 -163.5t-44 -177t-67.5 -162t-92.5 -119t-119.5 -46 q-53 0 -88 24.5t-56.5 64.5t-30.5 89t-12 98q-2 37 -3 72v23zM161 273q3 -56 21.5 -99t63.5 -43q55 0 96 40t70.5 102.5t48 139t30 151.5t15.5 139.5t4 101.5q0 14 -1 48t-2 72t-2 70.5t-1 44.5q-12 39 -35 72t-66 33q-4 0 -17 -2t-15 -2q-59 -82 -98.5 -163t-63 -165 t-33.5 -173t-10 -187q0 -18 -4 -71q-2 -30 -3 -61zM10 1343q10 9 47 22.5t102.5 47t159.5 93t219 161.5q8 18 16.5 20.5t19.5 -2.5l24 -11q12 -6 26 -7l-553 -391q-41 31 -56 44.5t-5 22.5z" />
<glyph unicode="&#xd4;" horiz-adv-x="671" d="M62 371q1 45 1 75q0 31 1.5 92.5t6.5 138.5t14 161t24.5 158.5t38 131t55.5 80.5q2 2 32.5 8.5t69.5 12.5l73 11q34 5 42 5q49 0 82 -25.5t53 -65.5t31.5 -90t16.5 -101.5t5 -97.5v-77q0 -45 -8 -120.5t-24.5 -163.5t-44 -177t-67.5 -162t-92.5 -119t-119.5 -46 q-53 0 -88 24.5t-56.5 64.5t-30.5 89t-12 98q-2 37 -3 72v23zM161 273q3 -56 21.5 -99t63.5 -43q55 0 96 40t70.5 102.5t48 139t30 151.5t15.5 139.5t4 101.5q0 14 -1 48t-2 72t-2 70.5t-1 44.5q-12 39 -35 72t-66 33q-4 0 -17 -2t-15 -2q-59 -82 -98.5 -163t-63 -165 t-33.5 -173t-10 -187q0 -18 -4 -71q-2 -30 -3 -61zM6 1360q4 8 29 45l58 87l74 105l75 102q35 46 61.5 76.5t34.5 30.5q31 0 55.5 -29.5t45 -75.5t41 -101.5t42 -108t48 -94t61.5 -60.5q-25 -16 -41.5 -44t-26.5 -56l-65 67l-164 332h-33q-4 0 -25.5 -38t-48.5 -92l-53 -112 q-27 -57 -41 -94z" />
<glyph unicode="&#xd5;" horiz-adv-x="671" d="M62 371q1 45 1 75q0 31 1.5 92.5t6.5 138.5t14 161t24.5 158.5t38 131t55.5 80.5q2 2 32.5 8.5t69.5 12.5l73 11q34 5 42 5q49 0 82 -25.5t53 -65.5t31.5 -90t16.5 -101.5t5 -97.5v-77q0 -45 -8 -120.5t-24.5 -163.5t-44 -177t-67.5 -162t-92.5 -119t-119.5 -46 q-53 0 -88 24.5t-56.5 64.5t-30.5 89t-12 98q-2 37 -3 72v23zM161 273q3 -56 21.5 -99t63.5 -43q55 0 96 40t70.5 102.5t48 139t30 151.5t15.5 139.5t4 101.5q0 14 -1 48t-2 72t-2 70.5t-1 44.5q-12 39 -35 72t-66 33q-4 0 -17 -2t-15 -2q-59 -82 -98.5 -163t-63 -165 t-33.5 -173t-10 -187q0 -18 -4 -71q-2 -30 -3 -61zM-109.978 1303.96q0.56543 11.5566 0.56543 19.4248q0 15.2441 2.54199 43.5205t9.32031 61.4707q6.77832 33.1934 17.7939 67.3711q11.0146 34.1768 27.9609 62.4531t40.6719 45.7334q23.7246 17.458 54.793 17.458 q40.6719 0 72.8701 -15.9824t59.877 -39.5869t53.3809 -51.8809q25.7021 -28.2754 54.5107 -51.8799q28.8096 -23.6045 62.4199 -39.833t77.6709 -16.2285q45.1904 0 86.709 19.6709q41.5186 19.6699 77.3887 47.9463t66.374 59.2578l53.6631 54.585 q0 -1.9668 1.41211 -12.0479t1.41211 -13.0322q0 -41.3076 -26.2666 -76.7139q-26.2666 -35.4072 -66.0908 -60.9785t-87.2744 -39.833q-47.4502 -14.2607 -89.251 -14.2607q-66.0908 0 -116.931 15.7363q-50.8389 15.7363 -94.0518 42.291 q-43.2139 26.5557 -83.3203 62.9453l-83.6025 78.6816q-2.25879 0 -5.36621 0.983398q-3.10645 0.984375 -5.36621 0.984375q-27.6787 0 -45.4727 -19.1787t-29.374 -49.4219t-18.0762 -66.8799q-6.49609 -36.6357 -11.0146 -71.5508l-8.47363 -63.9287 q-3.9541 -29.0146 -10.168 -44.2588q-2.25977 0 -5.08398 -0.983398t-3.9541 -0.983398q-15.252 0 -22.0303 8.11426q-6.77832 8.11328 -8.75586 18.6865q-1.97656 10.5723 -1.41211 22.1289z" />
<glyph unicode="&#xd6;" horiz-adv-x="671" d="M62 371q1 45 1 75q0 31 1.5 92.5t6.5 138.5t14 161t24.5 158.5t38 131t55.5 80.5q2 2 32.5 8.5t69.5 12.5l73 11q34 5 42 5q49 0 82 -25.5t53 -65.5t31.5 -90t16.5 -101.5t5 -97.5v-77q0 -45 -8 -120.5t-24.5 -163.5t-44 -177t-67.5 -162t-92.5 -119t-119.5 -46 q-53 0 -88 24.5t-56.5 64.5t-30.5 89t-12 98q-2 37 -3 72v23zM161 273q3 -56 21.5 -99t63.5 -43q55 0 96 40t70.5 102.5t48 139t30 151.5t15.5 139.5t4 101.5q0 14 -1 48t-2 72t-2 70.5t-1 44.5q-12 39 -35 72t-66 33q-4 0 -17 -2t-15 -2q-59 -82 -98.5 -163t-63 -165 t-33.5 -173t-10 -187q0 -18 -4 -71q-2 -30 -3 -61zM137 1506q0 18 3 39.5t12.5 40t25.5 31t43 12.5q4 0 15.5 -12.5t15.5 -18.5q4 -29 6 -56.5t-8 -44t-36 -17.5t-77 26zM401 1500q0 18 3 39.5t12.5 40t26 30.5t42.5 12q4 0 15.5 -12t15.5 -18q4 -29 6 -56.5t-8 -44 t-36 -17.5t-77 26z" />
<glyph unicode="&#xd8;" horiz-adv-x="671" d="M62 371q1 45 1 75q0 31 1.5 92.5t6.5 138.5t14 161t24.5 158.5t38 131t55.5 80.5q2 2 32.5 8.5t69.5 12.5l73 11q34 5 42 5q49 0 82 -25.5t53 -65.5t31.5 -90t16.5 -101.5t5 -97.5v-77q0 -45 -8 -120.5t-24.5 -163.5t-44 -177t-67.5 -162t-92.5 -119t-119.5 -46 q-53 0 -88 24.5t-56.5 64.5t-30.5 89t-12 98q-2 37 -3 72v23zM161 273q3 -56 21.5 -99t63.5 -43q55 0 96 40t70.5 102.5t48 139t30 151.5t15.5 139.5t4 101.5q0 14 -1 48t-2 72t-2 70.5t-1 44.5q-12 39 -35 72t-66 33q-4 0 -17 -2t-15 -2q-59 -82 -98.5 -163t-63 -165 t-33.5 -173t-10 -187q0 -18 -4 -71q-2 -30 -3 -61zM-3.39746 -124.434l550.168 1388.66q5.69336 12.6172 13.5225 33.6475q7.8291 21.0293 19.5732 40.3066q11.7432 19.2773 27.0449 33.6475q15.3027 14.3701 37.3662 14.3701q0 -1.40137 -0.711914 -12.9678 t-0.711914 -14.3701l-9.96387 -29.4424q-6.40527 -21.0293 -14.2344 -43.4609l-14.9463 -42.7607q-6.40625 -19.627 -9.25293 -26.6367l-27.7568 -67.9961l-47.6865 -118.468l-61.209 -151.413l-68.3262 -168.237l-66.9023 -167.536l-60.4971 -151.414l-46.9746 -118.467 l-27.0459 -68.6973q-14.2344 -35.75 -29.1807 -83.417l-31.3164 -100.242q-17.0811 -51.873 -36.6543 -101.993q-19.5723 -50.1211 -45.9062 -90.0771q-2.84668 0 -6.40527 -1.40234q-3.55859 -1.40137 -4.98242 -1.40137q-4.27051 0 -7.8291 1.40137 q-2.84668 0 -5.69336 1.40234l-11.3877 11.2158l-12.0996 11.917v12.6172v11.2158z" />
<glyph unicode="&#xd9;" horiz-adv-x="940" d="M26 601q1 73 1 171q0 18 1 66.5l2 101.5l2 101.5t1 66.5q4 4 16 17.5t17 15.5q4 0 8 2q4 0 6 1t4 1t7 -2t9 -2q2 -113 3 -218.5t6.5 -209t18.5 -204.5t40 -206q6 -25 15.5 -55.5t23.5 -56t36.5 -43t55.5 -17.5q28 -6 54 -6q58 0 107 31q71 45 125 134t93 211t66.5 255 t45 264t29.5 242q0 14 -2 42l-4 56q-2 29 -4 53.5t-4 30.5l-33 33q-33 -98 -57.5 -129t-37.5 -19t-15 53q0 6 -1 13q0 35 10 72q11 44 36 78q23 32 60 32h4.5t12 -4t19.5 -9l20 -11q10 -5 15 -9q33 -37 51 -126t20 -210q0 -15 1 -30q0 -108 -13 -232q-14 -141 -48 -281.5 t-85 -267.5t-124 -221t-165 -143q-69 -37 -151 -37q-27 0 -56 4q-25 0 -52.5 20.5t-51 48t-41 55.5t-23.5 44q-33 92 -48 160.5t-21 134.5q-5 56 -6 117q1 11 1 21zM-33 2096q20 0 39 7t34 11t27.5 2t22.5 -20q176 -104 309 -167t226.5 -96.5t145.5 -48t66.5 -24t-8.5 -22.5 l-77 -46z" />
<glyph unicode="&#xda;" horiz-adv-x="940" d="M26 601q1 73 1 171q0 18 1 66.5l2 101.5l2 101.5t1 66.5q4 4 16 17.5t17 15.5q4 0 8 2q4 0 6 1t4 1t7 -2t9 -2q2 -113 3 -218.5t6.5 -209t18.5 -204.5t40 -206q6 -25 15.5 -55.5t23.5 -56t36.5 -43t55.5 -17.5q28 -6 54 -6q58 0 107 31q71 45 125 134t93 211t66.5 255 t45 264t29.5 242q0 14 -2 42l-4 56q-2 29 -4 53.5t-4 30.5l-33 33q-33 -98 -57.5 -129t-37.5 -19t-15 53q0 6 -1 13q0 35 10 72q11 44 36 78q23 32 60 32h4.5t12 -4t19.5 -9l20 -11q10 -5 15 -9q33 -37 51 -126t20 -210q0 -15 1 -30q0 -108 -13 -232q-14 -141 -48 -281.5 t-85 -267.5t-124 -221t-165 -143q-69 -37 -151 -37q-27 0 -56 4q-25 0 -52.5 20.5t-51 48t-41 55.5t-23.5 44q-33 92 -48 160.5t-21 134.5q-5 56 -6 117q1 11 1 21zM211 1726q10 9 47 22.5t102.5 47t159.5 93t219 161.5q8 18 16.5 20.5t19.5 -2.5l24 -11q12 -6 26 -7 l-553 -391q-41 31 -56 44.5t-5 22.5z" />
<glyph unicode="&#xdb;" horiz-adv-x="940" d="M26 601q1 73 1 171q0 18 1 66.5l2 101.5l2 101.5t1 66.5q4 4 16 17.5t17 15.5q4 0 8 2q4 0 6 1t4 1t7 -2t9 -2q2 -113 3 -218.5t6.5 -209t18.5 -204.5t40 -206q6 -25 15.5 -55.5t23.5 -56t36.5 -43t55.5 -17.5q28 -6 54 -6q58 0 107 31q71 45 125 134t93 211t66.5 255 t45 264t29.5 242q0 14 -2 42l-4 56q-2 29 -4 53.5t-4 30.5l-33 33q-33 -98 -57.5 -129t-37.5 -19t-15 53q0 6 -1 13q0 35 10 72q11 44 36 78q23 32 60 32h4.5t12 -4t19.5 -9l20 -11q10 -5 15 -9q33 -37 51 -126t20 -210q0 -15 1 -30q0 -108 -13 -232q-14 -141 -48 -281.5 t-85 -267.5t-124 -221t-165 -143q-69 -37 -151 -37q-27 0 -56 4q-25 0 -52.5 20.5t-51 48t-41 55.5t-23.5 44q-33 92 -48 160.5t-21 134.5q-5 56 -6 117q1 11 1 21zM35 1618q4 8 29 45l58 87l74 105l75 102q35 46 61.5 76.5t34.5 30.5q31 0 55.5 -29.5t45 -75.5t41 -101.5 t42 -108t48 -94t61.5 -60.5q-25 -16 -41.5 -44t-26.5 -56l-65 67l-164 332h-33q-4 0 -25.5 -38t-48.5 -92l-53 -112q-27 -57 -41 -94z" />
<glyph unicode="&#xdc;" horiz-adv-x="940" d="M26 601q1 73 1 171q0 18 1 66.5l2 101.5l2 101.5t1 66.5q4 4 16 17.5t17 15.5q4 0 8 2q4 0 6 1t4 1t7 -2t9 -2q2 -113 3 -218.5t6.5 -209t18.5 -204.5t40 -206q6 -25 15.5 -55.5t23.5 -56t36.5 -43t55.5 -17.5q28 -6 54 -6q58 0 107 31q71 45 125 134t93 211t66.5 255 t45 264t29.5 242q0 14 -2 42l-4 56q-2 29 -4 53.5t-4 30.5l-33 33q-33 -98 -57.5 -129t-37.5 -19t-15 53q0 6 -1 13q0 35 10 72q11 44 36 78q23 32 60 32h4.5t12 -4t19.5 -9l20 -11q10 -5 15 -9q33 -37 51 -126t20 -210q0 -15 1 -30q0 -108 -13 -232q-14 -141 -48 -281.5 t-85 -267.5t-124 -221t-165 -143q-69 -37 -151 -37q-27 0 -56 4q-25 0 -52.5 20.5t-51 48t-41 55.5t-23.5 44q-33 92 -48 160.5t-21 134.5q-5 56 -6 117q1 11 1 21zM119 1444q0 18 3 39.5t12.5 40t25.5 31t43 12.5q4 0 15.5 -12.5t15.5 -18.5q4 -29 6 -56.5t-8 -44 t-36 -17.5t-77 26zM383 1438q0 18 3 39.5t12.5 40t26 30.5t42.5 12q4 0 15.5 -12t15.5 -18q4 -29 6 -56.5t-8 -44t-36 -17.5t-77 26z" />
<glyph unicode="&#xdd;" horiz-adv-x="872" d="M33 1343v33h100l42 -93l50 -117q27 -62 58.5 -126.5t66.5 -122t74 -104.5t80 -74q8 33 19 102l25 155q13 87 29.5 184.5t36 189.5t41 172t46 129t52.5 63q7 3 13 3q21 0 45 -31q-45 -219 -78 -421t-57.5 -399.5t-42 -396t-29.5 -409.5v-12q-4 -6 -13 -16.5t-19.5 -21 t-20.5 -19.5t-14 -11t-9 -2q-2 -2 -6 -2h-2q-6 0 -10 2q-4 0 -6 2q-8 4 -21.5 17.5t-13.5 15.5v571l-44 52l-57 73l-58 77q-28 38 -42 66l-66 130l-78 154l-65 129q-26 54 -26 58zM178 1726q10 9 47 22.5t102.5 47t159.5 93t219 161.5q8 18 16.5 20.5t19.5 -2.5l24 -11 q12 -6 26 -7l-553 -391q-41 31 -56 44.5t-5 22.5z" />
<glyph unicode="&#xe0;" horiz-adv-x="1114" d="M63 285q0 53 10.5 147t31 206t52 225.5t77 206.5t103.5 152.5t130 59.5q51 0 86 -21.5t57.5 -56.5t37 -78t24.5 -86q2 18 6 48t14 58t29.5 48t50.5 20v-845q0 -33 12.5 -64t34 -54.5t48 -37.5t57.5 -14q47 0 81.5 27.5t63.5 59t57.5 59.5t65.5 28q4 0 9 -2t7 -2 q-10 -53 -31.5 -102.5t-55.5 -86.5t-79 -59.5t-102 -22.5q-88 0 -144.5 47.5t-90 119t-48 153.5t-18.5 153l-59 -156q-37 -97 -89.5 -190.5t-124 -161t-163.5 -67.5q-43 0 -81 8t-54 64q0 12 -1 42.5t-1 65.5t-1.5 66t-1.5 43zM130 217q0 -30 6 -55q7 -29 25.5 -48.5 t57.5 -19.5q33 0 53.5 8.5t35 24.5t27.5 44t36 65l25 49l41 80l40 81l27 58q8 18 26 65l40 101l41 101l28 69v16q0 37 -14.5 97.5t-41 116.5t-64.5 97t-83 41q-35 0 -70.5 -65.5t-69.5 -164.5t-63.5 -216t-52 -218.5t-36 -174t-13.5 -80.5q0 -10 -0.5 -34.5t-0.5 -37.5z M55 1686q20 0 39 7t34 11t27.5 2t22.5 -20q176 -104 309 -167t226.5 -96.5t145.5 -48t66.5 -24t-8.5 -22.5l-77 -46z" />
<glyph unicode="&#xe1;" horiz-adv-x="1114" d="M63 285q0 53 10.5 147t31 206t52 225.5t77 206.5t103.5 152.5t130 59.5q51 0 86 -21.5t57.5 -56.5t37 -78t24.5 -86q2 18 6 48t14 58t29.5 48t50.5 20v-845q0 -33 12.5 -64t34 -54.5t48 -37.5t57.5 -14q47 0 81.5 27.5t63.5 59t57.5 59.5t65.5 28q4 0 9 -2t7 -2 q-10 -53 -31.5 -102.5t-55.5 -86.5t-79 -59.5t-102 -22.5q-88 0 -144.5 47.5t-90 119t-48 153.5t-18.5 153l-59 -156q-37 -97 -89.5 -190.5t-124 -161t-163.5 -67.5q-43 0 -81 8t-54 64q0 12 -1 42.5t-1 65.5t-1.5 66t-1.5 43zM130 217q0 -30 6 -55q7 -29 25.5 -48.5 t57.5 -19.5q33 0 53.5 8.5t35 24.5t27.5 44t36 65l25 49l41 80l40 81l27 58q8 18 26 65l40 101l41 101l28 69v16q0 37 -14.5 97.5t-41 116.5t-64.5 97t-83 41q-35 0 -70.5 -65.5t-69.5 -164.5t-63.5 -216t-52 -218.5t-36 -174t-13.5 -80.5q0 -10 -0.5 -34.5t-0.5 -37.5z M78 1316q10 9 47 22.5t102.5 47t159.5 93t219 161.5q8 18 16.5 20.5t19.5 -2.5l24 -11q12 -6 26 -7l-553 -391q-41 31 -56 44.5t-5 22.5z" />
<glyph unicode="&#xe2;" horiz-adv-x="1114" d="M63 285q0 53 10.5 147t31 206t52 225.5t77 206.5t103.5 152.5t130 59.5q51 0 86 -21.5t57.5 -56.5t37 -78t24.5 -86q2 18 6 48t14 58t29.5 48t50.5 20v-845q0 -33 12.5 -64t34 -54.5t48 -37.5t57.5 -14q47 0 81.5 27.5t63.5 59t57.5 59.5t65.5 28q4 0 9 -2t7 -2 q-10 -53 -31.5 -102.5t-55.5 -86.5t-79 -59.5t-102 -22.5q-88 0 -144.5 47.5t-90 119t-48 153.5t-18.5 153l-59 -156q-37 -97 -89.5 -190.5t-124 -161t-163.5 -67.5q-43 0 -81 8t-54 64q0 12 -1 42.5t-1 65.5t-1.5 66t-1.5 43zM130 217q0 -30 6 -55q7 -29 25.5 -48.5 t57.5 -19.5q33 0 53.5 8.5t35 24.5t27.5 44t36 65l25 49l41 80l40 81l27 58q8 18 26 65l40 101l41 101l28 69v16q0 37 -14.5 97.5t-41 116.5t-64.5 97t-83 41q-35 0 -70.5 -65.5t-69.5 -164.5t-63.5 -216t-52 -218.5t-36 -174t-13.5 -80.5q0 -10 -0.5 -34.5t-0.5 -37.5z M170 1381q4 8 29 45l58 87l74 105l75 102q35 46 61.5 76.5t34.5 30.5q31 0 55.5 -29.5t45 -75.5t41 -101.5t42 -108t48 -94t61.5 -60.5q-25 -16 -41.5 -44t-26.5 -56l-65 67l-164 332h-33q-4 0 -25.5 -38t-48.5 -92l-53 -112q-27 -57 -41 -94z" />
<glyph unicode="&#xe3;" horiz-adv-x="1114" d="M63 285q0 53 10.5 147t31 206t52 225.5t77 206.5t103.5 152.5t130 59.5q51 0 86 -21.5t57.5 -56.5t37 -78t24.5 -86q2 18 6 48t14 58t29.5 48t50.5 20v-845q0 -33 12.5 -64t34 -54.5t48 -37.5t57.5 -14q47 0 81.5 27.5t63.5 59t57.5 59.5t65.5 28q4 0 9 -2t7 -2 q-10 -53 -31.5 -102.5t-55.5 -86.5t-79 -59.5t-102 -22.5q-88 0 -144.5 47.5t-90 119t-48 153.5t-18.5 153l-59 -156q-37 -97 -89.5 -190.5t-124 -161t-163.5 -67.5q-43 0 -81 8t-54 64q0 12 -1 42.5t-1 65.5t-1.5 66t-1.5 43zM130 217q0 -30 6 -55q7 -29 25.5 -48.5 t57.5 -19.5q33 0 53.5 8.5t35 24.5t27.5 44t36 65l25 49l41 80l40 81l27 58q8 18 26 65l40 101l41 101l28 69v16q0 37 -14.5 97.5t-41 116.5t-64.5 97t-83 41q-35 0 -70.5 -65.5t-69.5 -164.5t-63.5 -216t-52 -218.5t-36 -174t-13.5 -80.5q0 -10 -0.5 -34.5t-0.5 -37.5z M83.2754 1226.89q0.713867 21.6279 0.713867 36.3535q0 28.5312 3.21289 81.4512q3.21387 52.9199 11.7832 115.043q8.56934 62.124 22.4941 126.088q13.9258 63.9648 35.3486 116.885q21.4238 52.9199 51.416 85.5928q29.9932 32.6719 69.2695 32.6719 q51.416 0 92.1201 -29.9111t75.6953 -74.0879t67.4834 -97.0967q32.4922 -52.9209 68.9121 -97.0977t78.9092 -74.5479t98.1904 -30.3711q57.1289 0 109.616 36.8135q52.4873 36.8145 97.833 89.7344t83.9082 110.901l67.8408 102.159q0 -3.68164 1.78516 -22.5488 t1.78516 -24.3887q0 -77.3096 -33.2061 -143.575q-33.2061 -66.2646 -83.5508 -114.123q-50.3457 -47.8584 -110.33 -74.5479q-59.9863 -26.6904 -112.83 -26.6904q-83.5508 0 -147.821 29.4512q-64.2695 29.4512 -118.899 79.1504q-54.6289 49.6982 -105.331 117.805 l-105.688 147.256q-2.85645 0 -6.78418 1.84082q-3.92773 1.83984 -6.78418 1.83984q-34.9912 0 -57.4863 -35.8936q-22.4941 -35.8936 -37.1338 -92.4951q-14.6387 -56.6016 -22.8516 -125.167q-8.21191 -68.5664 -13.9248 -133.911l-10.7119 -119.646 q-4.99902 -54.2998 -12.8535 -82.8311q-2.85645 0 -6.42676 -1.84082q-3.57129 -1.84082 -4.99902 -1.84082q-19.2812 0 -27.8506 15.1855q-8.56934 15.1865 -11.0684 34.9736q-2.5 19.7881 -1.78516 41.416z" />
<glyph unicode="&#xe4;" horiz-adv-x="1114" d="M63 285q0 53 10.5 147t31 206t52 225.5t77 206.5t103.5 152.5t130 59.5q51 0 86 -21.5t57.5 -56.5t37 -78t24.5 -86q2 18 6 48t14 58t29.5 48t50.5 20v-845q0 -33 12.5 -64t34 -54.5t48 -37.5t57.5 -14q47 0 81.5 27.5t63.5 59t57.5 59.5t65.5 28q4 0 9 -2t7 -2 q-10 -53 -31.5 -102.5t-55.5 -86.5t-79 -59.5t-102 -22.5q-88 0 -144.5 47.5t-90 119t-48 153.5t-18.5 153l-59 -156q-37 -97 -89.5 -190.5t-124 -161t-163.5 -67.5q-43 0 -81 8t-54 64q0 12 -1 42.5t-1 65.5t-1.5 66t-1.5 43zM130 217q0 -30 6 -55q7 -29 25.5 -48.5 t57.5 -19.5q33 0 53.5 8.5t35 24.5t27.5 44t36 65l25 49l41 80l40 81l27 58q8 18 26 65l40 101l41 101l28 69v16q0 37 -14.5 97.5t-41 116.5t-64.5 97t-83 41q-35 0 -70.5 -65.5t-69.5 -164.5t-63.5 -216t-52 -218.5t-36 -174t-13.5 -80.5q0 -10 -0.5 -34.5t-0.5 -37.5z M295 1354q0 18 3 39.5t12.5 40t25.5 31t43 12.5q4 0 15.5 -12.5t15.5 -18.5q4 -29 6 -56.5t-8 -44t-36 -17.5t-77 26zM559 1348q0 18 3 39.5t12.5 40t26 30.5t42.5 12q4 0 15.5 -12t15.5 -18q4 -29 6 -56.5t-8 -44t-36 -17.5t-77 26z" />
<glyph unicode="&#xe5;" horiz-adv-x="1114" d="M63 285q0 53 10.5 147t31 206t52 225.5t77 206.5t103.5 152.5t130 59.5q51 0 86 -21.5t57.5 -56.5t37 -78t24.5 -86q2 18 6 48t14 58t29.5 48t50.5 20v-845q0 -33 12.5 -64t34 -54.5t48 -37.5t57.5 -14q47 0 81.5 27.5t63.5 59t57.5 59.5t65.5 28q4 0 9 -2t7 -2 q-10 -53 -31.5 -102.5t-55.5 -86.5t-79 -59.5t-102 -22.5q-88 0 -144.5 47.5t-90 119t-48 153.5t-18.5 153l-59 -156q-37 -97 -89.5 -190.5t-124 -161t-163.5 -67.5q-43 0 -81 8t-54 64q0 12 -1 42.5t-1 65.5t-1.5 66t-1.5 43zM130 217q0 -30 6 -55q7 -29 25.5 -48.5 t57.5 -19.5q33 0 53.5 8.5t35 24.5t27.5 44t36 65l25 49l41 80l40 81l27 58q8 18 26 65l40 101l41 101l28 69v16q0 37 -14.5 97.5t-41 116.5t-64.5 97t-83 41q-35 0 -70.5 -65.5t-69.5 -164.5t-63.5 -216t-52 -218.5t-36 -174t-13.5 -80.5q0 -10 -0.5 -34.5t-0.5 -37.5z M338 1366v33q0 12 3.5 42.5t13.5 64.5t30.5 62.5t55.5 39.5q2 0 24.5 2t50 3t53 3t32.5 2q53 0 81.5 -15.5t41 -35t14.5 -41t2 -33.5q0 -18 -13.5 -55t-44 -73t-81 -62.5t-123.5 -26.5q-59 0 -88 14t-40.5 35t-11.5 41zM410 1350.5q2 -15.5 15.5 -26.5t48.5 -11 q61 0 99 22.5t59.5 53t28.5 61.5t7 47q0 8 -3 32.5t-3 30.5q-10 10 -25.5 19.5t-48.5 9.5h-22q-86 -45 -119 -90t-33 -98q0 -6 -3 -20.5t-1 -30z" />
<glyph unicode="&#xe6;" horiz-adv-x="1525" d="M63 285q0 53 10.5 147t31 206t52 225.5t77 206.5t103.5 152.5t130 59.5q51 0 86 -21.5t57.5 -56.5t37 -78t24.5 -86q2 18 6 48t14 58t29.5 48t50.5 20v-845q0 -33 12.5 -64t34 -54.5t48 -37.5t57.5 -14q47 0 81.5 27.5t63.5 59t57.5 59.5t65.5 28q4 0 9 -2t7 -2 q-10 -53 -31.5 -102.5t-55.5 -86.5t-79 -59.5t-102 -22.5q-88 0 -144.5 47.5t-90 119t-48 153.5t-18.5 153l-59 -156q-37 -97 -89.5 -190.5t-124 -161t-163.5 -67.5q-43 0 -81 8t-54 64q0 12 -1 42.5t-1 65.5t-1.5 66t-1.5 43zM130 217q0 -30 6 -55q7 -29 25.5 -48.5 t57.5 -19.5q33 0 53.5 8.5t35 24.5t27.5 44t36 65l25 49l41 80l40 81l27 58q8 18 26 65l40 101l41 101l28 69v16q0 37 -14.5 97.5t-41 116.5t-64.5 97t-83 41q-35 0 -70.5 -65.5t-69.5 -164.5t-63.5 -216t-52 -218.5t-36 -174t-13.5 -80.5q0 -10 -0.5 -34.5t-0.5 -37.5z M715 428q0 63 23.5 159.5t64.5 202t97 211t122 190.5t138.5 137t146.5 52q0 -143 -33 -259.5t-86 -221t-125 -206.5l-148 -216q-23 -35 -29.5 -51t-6.5 -49q0 -43 23.5 -56.5t64.5 -13.5q63 0 128.5 38t126 92.5t111.5 111.5l86 96q0 -4 2 -16t2 -17q0 -70 -52 -141.5 t-127 -130.5t-160 -97t-150 -38q-43 0 -83 17.5t-69.5 47t-48 70.5t-18.5 88zM850 612q2 0 7 -2t9 -2q23 0 59 37t74.5 93.5t77.5 127t71 138t51.5 125t19.5 88.5q0 8 -13.5 20t-19.5 12q-37 0 -75 -37.5t-74 -98t-68.5 -134.5t-58 -144.5t-42 -131t-18.5 -91.5z" />
<glyph unicode="&#xe7;" horiz-adv-x="872" d="M63 340q0 43 15.5 136t43.5 208t66.5 237.5t88 224t106.5 166t121 64.5q66 0 106.5 -22.5t63 -61.5t31 -88t8.5 -100q0 -8 -1 -23.5t-3 -31t-3 -27.5t-1 -14l-33 -35q-31 8 -42.5 34.5t-14.5 60.5t-4 72t-9 68.5t-30.5 51t-67.5 20.5q-49 0 -94 -57.5t-82 -147.5 t-68 -198.5t-51.5 -211t-31.5 -186.5t-11 -123q0 -7 -0.5 -34.5t-0.5 -43.5q0 -39 7 -76q8 -42 29.5 -73t66.5 -31q6 0 18.5 1t16.5 1q78 27 148.5 78t134 112.5t119.5 127.5l102 119q0 -2 1 -15.5t1 -17.5q0 -82 -56.5 -171t-139.5 -163t-181 -122t-180 -48q-63 0 -101 37 t-57.5 89t-25 110.5t-5.5 103.5zM195 -479q2 0 15 9t15 9q27 0 51.5 -17.5t49 -38t51 -37.5t57.5 -17t63.5 8t60.5 25.5t45.5 42t17.5 57.5q0 63 -40 101t-87 72t-87 76t-40 113q-20 68 -10 95.5t29.5 22.5t37.5 -40t14 -90q0 -23 3 -41t24 -37l180 -166q25 -23 26 -51.5 t1 -58.5q0 -90 -58.5 -131t-152.5 -41q-76 0 -147.5 38t-118.5 97z" />
<glyph unicode="&#xe8;" horiz-adv-x="804" d="M33 219q0 63 23.5 159.5t64.5 202t97 211t122 190.5t138.5 137t146.5 52q0 -143 -33 -259.5t-86 -221t-125 -206.5l-148 -216q-23 -35 -29.5 -51t-6.5 -49q0 -43 23.5 -56.5t64.5 -13.5q63 0 128.5 38t126 92.5t111.5 111.5l86 96q0 -4 2 -16t2 -17q0 -70 -52 -141.5 t-127 -130.5t-160 -97t-150 -38q-43 0 -83 17.5t-69.5 47t-48 70.5t-18.5 88zM168 403q2 0 7 -2t9 -2q23 0 59 37t74.5 93.5t77.5 127t71 138t51.5 125t19.5 88.5q0 8 -13.5 20t-19.5 12q-37 0 -75 -37.5t-74 -98t-68.5 -134.5t-58 -144.5t-42 -131t-18.5 -91.5zM-101 1686 q20 0 39 7t34 11t27.5 2t22.5 -20q176 -104 309 -167t226.5 -96.5t145.5 -48t66.5 -24t-8.5 -22.5l-77 -46z" />
<glyph unicode="&#xe9;" horiz-adv-x="804" d="M33 219q0 63 23.5 159.5t64.5 202t97 211t122 190.5t138.5 137t146.5 52q0 -143 -33 -259.5t-86 -221t-125 -206.5l-148 -216q-23 -35 -29.5 -51t-6.5 -49q0 -43 23.5 -56.5t64.5 -13.5q63 0 128.5 38t126 92.5t111.5 111.5l86 96q0 -4 2 -16t2 -17q0 -70 -52 -141.5 t-127 -130.5t-160 -97t-150 -38q-43 0 -83 17.5t-69.5 47t-48 70.5t-18.5 88zM168 403q2 0 7 -2t9 -2q23 0 59 37t74.5 93.5t77.5 127t71 138t51.5 125t19.5 88.5q0 8 -13.5 20t-19.5 12q-37 0 -75 -37.5t-74 -98t-68.5 -134.5t-58 -144.5t-42 -131t-18.5 -91.5zM143 1316 q10 9 47 22.5t102.5 47t159.5 93t219 161.5q8 18 16.5 20.5t19.5 -2.5l24 -11q12 -6 26 -7l-553 -391q-41 31 -56 44.5t-5 22.5z" />
<glyph unicode="&#xea;" horiz-adv-x="804" d="M33 219q0 63 23.5 159.5t64.5 202t97 211t122 190.5t138.5 137t146.5 52q0 -143 -33 -259.5t-86 -221t-125 -206.5l-148 -216q-23 -35 -29.5 -51t-6.5 -49q0 -43 23.5 -56.5t64.5 -13.5q63 0 128.5 38t126 92.5t111.5 111.5l86 96q0 -4 2 -16t2 -17q0 -70 -52 -141.5 t-127 -130.5t-160 -97t-150 -38q-43 0 -83 17.5t-69.5 47t-48 70.5t-18.5 88zM168 403q2 0 7 -2t9 -2q23 0 59 37t74.5 93.5t77.5 127t71 138t51.5 125t19.5 88.5q0 8 -13.5 20t-19.5 12q-37 0 -75 -37.5t-74 -98t-68.5 -134.5t-58 -144.5t-42 -131t-18.5 -91.5zM115 1305 q4 8 29 45l58 87l74 105l75 102q35 46 61.5 76.5t34.5 30.5q31 0 55.5 -29.5t45 -75.5t41 -101.5t42 -108t48 -94t61.5 -60.5q-25 -16 -41.5 -44t-26.5 -56l-65 67l-164 332h-33q-4 0 -25.5 -38t-48.5 -92l-53 -112q-27 -57 -41 -94z" />
<glyph unicode="&#xeb;" horiz-adv-x="804" d="M33 219q0 63 23.5 159.5t64.5 202t97 211t122 190.5t138.5 137t146.5 52q0 -143 -33 -259.5t-86 -221t-125 -206.5l-148 -216q-23 -35 -29.5 -51t-6.5 -49q0 -43 23.5 -56.5t64.5 -13.5q63 0 128.5 38t126 92.5t111.5 111.5l86 96q0 -4 2 -16t2 -17q0 -70 -52 -141.5 t-127 -130.5t-160 -97t-150 -38q-43 0 -83 17.5t-69.5 47t-48 70.5t-18.5 88zM168 403q2 0 7 -2t9 -2q23 0 59 37t74.5 93.5t77.5 127t71 138t51.5 125t19.5 88.5q0 8 -13.5 20t-19.5 12q-37 0 -75 -37.5t-74 -98t-68.5 -134.5t-58 -144.5t-42 -131t-18.5 -91.5zM182 1291 q0 18 3 39.5t12.5 40t25.5 31t43 12.5q4 0 15.5 -12.5t15.5 -18.5q4 -29 6 -56.5t-8 -44t-36 -17.5t-77 26zM446 1285q0 18 3 39.5t12.5 40t26 30.5t42.5 12q4 0 15.5 -12t15.5 -18q4 -29 6 -56.5t-8 -44t-36 -17.5t-77 26z" />
<glyph unicode="&#xec;" horiz-adv-x="403" d="M-303 1686q20 0 38.5 7t34 11t28 2t22.5 -20q176 -104 309 -167t226.5 -96.5t145.5 -48t66.5 -24t-8.5 -22.5l-78 -46zM168 1040l68 35q47 -106 68.5 -226t28.5 -244t5 -246.5t-2 -233.5q0 -16 1 -37.5t-2 -42t-14.5 -35t-35.5 -14.5q-2 0 -7.5 2t-9.5 2q-2 31 -7 93.5 t-12 142.5l-15 166l-14 167q-7 80 -12 142.5t-7 93.5q0 14 -5.5 48t-10.5 72t-10 70z" />
<glyph unicode="&#xed;" horiz-adv-x="403" d="M-55.5 1316q10.5 9 47.5 22.5t102.5 47t159.5 93t219 161.5q8 18 16.5 20.5t19.5 -2.5l23 -11q12 -6 27 -7l-553 -391q-41 31 -56.5 44.5t-5 22.5zM168 1040l7 -45q5 -33 10 -70.5t10.5 -71.5t5.5 -48q2 -31 7 -93.5t12 -142.5l14 -167l15 -166q7 -80 12 -142.5t7 -93.5 q4 0 9.5 -2t7.5 -2q25 0 36 14.5t14 35t2 42t-1 37.5q0 111 2 233.5t-5 246.5t-28.5 244t-68.5 226z" />
<glyph unicode="&#xee;" horiz-adv-x="403" d="M-111 1221q4 8 29 45l58 87l73 105l75 101.5t62.5 77t34.5 30.5q31 0 55.5 -29.5t45 -75.5t41 -101.5t42 -108t48 -94t61.5 -60.5q-25 -16 -41 -44t-27 -56l-65 67l-164 332h-33q-4 0 -25.5 -38t-47.5 -92l-54 -112q-27 -57 -41 -94zM168 1040l68 35q47 -106 68.5 -226 t28.5 -244t5 -246.5t-2 -233.5q0 -16 1 -37.5t-2 -42t-14.5 -35t-35.5 -14.5q-2 0 -7.5 2t-9.5 2q-2 31 -7 93.5t-12 142.5l-15 166l-14 167q-7 80 -12 142.5t-7 93.5q0 14 -5.5 48t-10.5 72t-10 70z" />
<glyph unicode="&#xef;" horiz-adv-x="403" d="M23 1165q0 18 3 40t12 40.5t25.5 30.5t42.5 12q4 0 15.5 -12t15.5 -19q4 -29 6 -56t-8 -43.5t-35.5 -18t-76.5 25.5zM168 1040l68 35q47 -106 68.5 -226t28.5 -244t5 -246.5t-2 -233.5q0 -16 1 -37.5t-2 -42t-14.5 -35t-35.5 -14.5q-2 0 -7.5 2t-9.5 2q-2 31 -7 93.5 t-12 142.5l-15 166l-14 167q-7 80 -12 142.5t-7 93.5q0 14 -5.5 48t-10.5 72t-10 70zM287 1159q0 18 3 40t12 40t25.5 30.5t43.5 12.5q4 0 15 -12.5t15 -18.5q4 -29 6.5 -56.5t-8 -43.5t-36 -17.5t-76.5 25.5z" />
<glyph unicode="&#xf1;" horiz-adv-x="907" d="M68 33v1007q0 47 23.5 87t76.5 40v-563q14 68 39.5 140.5t62.5 140t86.5 126t114.5 97.5q4 4 24.5 5t24.5 1q72 0 118 -47t73.5 -112.5t41 -135t19.5 -114.5q2 -14 7 -74l10.5 -127.5t9.5 -127t8 -73.5q0 -4 6 -19l12 -32l11.5 -31.5t3.5 -19.5q0 -2 -8.5 -11.5 t-18.5 -19.5l-21.5 -20.5t-19.5 -14.5q-2 -2 -6 -2q-4 -2 -10 -2t-11 2q-4 0 -6 2q-4 2 -17 16l-17 17q0 23 -2.5 68l-5.5 101t-7 118.5t-7 118t-6 100.5t-5 65q-2 25 -8.5 70t-22.5 90t-45 78t-76 33q-76 0 -127 -75t-85 -187.5t-55 -244.5l-39 -245q-17 -113 -34.5 -187.5 t-42.5 -74.5q-6 0 -18.5 1t-23.5 4t-19 10.5t-8 21.5zM-46.8301 1180.43q0.631836 24.4678 0.631836 41.127q0 32.2773 2.84277 92.1465q2.84375 59.8691 10.4248 130.149q7.58105 70.2812 19.9004 142.645q12.3203 72.3633 31.2734 132.232t45.4873 96.8311 q26.5352 36.9629 61.2822 36.9629q45.4883 0 81.499 -33.8389q36.0117 -33.8389 66.9678 -83.8164q30.957 -49.9775 59.7031 -109.847t60.9658 -109.847q32.2207 -49.9775 69.8115 -84.3369t86.8691 -34.3594q50.542 0 96.9775 41.6475q46.4355 41.6484 86.5527 101.518 q40.1182 59.8682 74.2344 125.464l60.0186 115.573q0 -4.16504 1.5791 -25.5098q1.5791 -21.3438 1.5791 -27.5918q0 -87.46 -29.377 -162.427q-29.3779 -74.9658 -73.918 -129.108t-97.6094 -84.3369q-53.0693 -30.1953 -99.8203 -30.1953q-73.918 0 -130.777 33.3184 t-105.19 89.543q-48.3311 56.2256 -93.1865 133.273l-93.5029 166.592q-2.52734 0 -6.00195 2.08301q-3.47461 2.08203 -6.00195 2.08203q-30.957 0 -50.8574 -40.6064q-19.9014 -40.6064 -32.8525 -104.641t-20.2168 -141.603q-7.26562 -77.5693 -12.3193 -151.495 l-9.47754 -135.355q-4.42188 -61.4307 -11.3711 -93.708q-2.52734 0 -5.68652 -2.08203q-3.15918 -2.08301 -4.42188 -2.08301q-17.0586 0 -24.6396 17.1797t-9.79297 39.5654q-2.21094 22.3867 -1.5791 46.8545z" />
<glyph unicode="&#xf2;" horiz-adv-x="704" d="M63 373q0 96 2.5 176t6.5 159.5t11 168t17 198.5q10 20 28.5 29.5t39.5 9.5v-141h35q14 45 36.5 88t54.5 76.5t73 54t90 20.5q72 0 109.5 -43t54 -104t18.5 -128t2 -114q0 -51 -10 -133t-30.5 -174t-51.5 -185t-73 -168t-94 -122t-116 -47q-76 0 -116.5 39t-60 97 t-23 124t-3.5 119zM166 377q0 -31 1 -66t1 -66v-44q12 -37 34.5 -70t65.5 -33q49 0 88 45t69 117t52.5 158t35.5 169t20.5 150.5t7.5 102.5v48q0 34 -1 70.5t-1 70.5v46q-4 4 -13.5 14.5t-19.5 20.5t-20.5 19.5t-14.5 11.5q-2 0 -6 2q-4 0 -6 1t-4 1q-57 0 -102.5 -44 t-77 -112.5t-53 -152.5t-34 -164t-17.5 -148.5t-5 -103.5v-43zM-150 1686q20 0 39 7t34 11t27.5 2t22.5 -20q176 -104 309 -167t226.5 -96.5t145.5 -48t66.5 -24t-8.5 -22.5l-77 -46z" />
<glyph unicode="&#xf3;" horiz-adv-x="704" d="M63 373q0 96 2.5 176t6.5 159.5t11 168t17 198.5q10 20 28.5 29.5t39.5 9.5v-141h35q14 45 36.5 88t54.5 76.5t73 54t90 20.5q72 0 109.5 -43t54 -104t18.5 -128t2 -114q0 -51 -10 -133t-30.5 -174t-51.5 -185t-73 -168t-94 -122t-116 -47q-76 0 -116.5 39t-60 97 t-23 124t-3.5 119zM166 377q0 -31 1 -66t1 -66v-44q12 -37 34.5 -70t65.5 -33q49 0 88 45t69 117t52.5 158t35.5 169t20.5 150.5t7.5 102.5v48q0 34 -1 70.5t-1 70.5v46q-4 4 -13.5 14.5t-19.5 20.5t-20.5 19.5t-14.5 11.5q-2 0 -6 2q-4 0 -6 1t-4 1q-57 0 -102.5 -44 t-77 -112.5t-53 -152.5t-34 -164t-17.5 -148.5t-5 -103.5v-43zM96 1316q10 9 47 22.5t102.5 47t159.5 93t219 161.5q8 18 16.5 20.5t19.5 -2.5l24 -11q12 -6 26 -7l-553 -391q-41 31 -56 44.5t-5 22.5z" />
<glyph unicode="&#xf4;" horiz-adv-x="704" d="M63 373q0 96 2.5 176t6.5 159.5t11 168t17 198.5q10 20 28.5 29.5t39.5 9.5v-141h35q14 45 36.5 88t54.5 76.5t73 54t90 20.5q72 0 109.5 -43t54 -104t18.5 -128t2 -114q0 -51 -10 -133t-30.5 -174t-51.5 -185t-73 -168t-94 -122t-116 -47q-76 0 -116.5 39t-60 97 t-23 124t-3.5 119zM166 377q0 -31 1 -66t1 -66v-44q12 -37 34.5 -70t65.5 -33q49 0 88 45t69 117t52.5 158t35.5 169t20.5 150.5t7.5 102.5v48q0 34 -1 70.5t-1 70.5v46q-4 4 -13.5 14.5t-19.5 20.5t-20.5 19.5t-14.5 11.5q-2 0 -6 2q-4 0 -6 1t-4 1q-57 0 -102.5 -44 t-77 -112.5t-53 -152.5t-34 -164t-17.5 -148.5t-5 -103.5v-43zM49 1325q4 8 29 45l58 87l74 105l75 102q35 46 61.5 76.5t34.5 30.5q31 0 55.5 -29.5t45 -75.5t41 -101.5t42 -108t48 -94t61.5 -60.5q-25 -16 -41.5 -44t-26.5 -56l-65 67l-164 332h-33q-4 0 -25.5 -38 t-48.5 -92l-53 -112q-27 -57 -41 -94z" />
<glyph unicode="&#xf5;" horiz-adv-x="704" d="M63 373q0 96 2.5 176t6.5 159.5t11 168t17 198.5q10 20 28.5 29.5t39.5 9.5v-141h35q14 45 36.5 88t54.5 76.5t73 54t90 20.5q72 0 109.5 -43t54 -104t18.5 -128t2 -114q0 -51 -10 -133t-30.5 -174t-51.5 -185t-73 -168t-94 -122t-116 -47q-76 0 -116.5 39t-60 97 t-23 124t-3.5 119zM166 377q0 -31 1 -66t1 -66v-44q12 -37 34.5 -70t65.5 -33q49 0 88 45t69 117t52.5 158t35.5 169t20.5 150.5t7.5 102.5v48q0 34 -1 70.5t-1 70.5v46q-4 4 -13.5 14.5t-19.5 20.5t-20.5 19.5t-14.5 11.5q-2 0 -6 2q-4 0 -6 1t-4 1q-57 0 -102.5 -44 t-77 -112.5t-53 -152.5t-34 -164t-17.5 -148.5t-5 -103.5v-43zM134.248 1251.29q0.407227 14.5898 0.407227 24.5234q0 19.2461 1.83301 54.9453q1.83203 35.6992 6.71875 77.6064t12.8281 85.0566q7.94043 43.1484 20.1572 78.8477q12.2168 35.6982 29.3203 57.7393 q17.1035 22.04 39.501 22.04q29.3203 0 52.5322 -20.1777t43.166 -49.9785t38.4834 -65.5q18.5283 -35.6982 39.2969 -65.499t44.998 -50.2891q24.2305 -20.4883 55.9941 -20.4883q32.5781 0 62.5098 24.834q29.9307 24.834 55.7891 60.5332 q25.8594 35.6992 47.8496 74.8125l38.6865 68.9141q0 -2.4834 1.01855 -15.2109q1.01758 -12.7275 1.01758 -16.4521q0 -52.1514 -18.9355 -96.8525q-18.9365 -44.7012 -47.6465 -76.9854q-28.709 -32.2842 -62.916 -50.2891t-64.3418 -18.0049q-47.6455 0 -84.2959 19.8672 t-67.8037 53.3936q-31.1523 33.5254 -60.0654 79.4688l-60.2695 99.3359q-1.62891 0 -3.86816 1.24121q-2.24023 1.24219 -3.86914 1.24219q-19.9541 0 -32.7812 -24.2129q-12.8281 -24.2139 -21.1758 -62.3955q-8.34863 -38.1826 -13.0312 -84.4355 q-4.68359 -46.2539 -7.94141 -90.334l-6.1084 -80.71q-2.85059 -36.6309 -7.33008 -55.877q-1.62891 0 -3.66504 -1.24219q-2.03613 -1.24121 -2.85059 -1.24121q-10.9951 0 -15.8818 10.2441t-6.3125 23.5918q-1.4248 13.3486 -1.01758 27.9385z" />
<glyph unicode="&#xf6;" horiz-adv-x="704" d="M63 373q0 96 2.5 176t6.5 159.5t11 168t17 198.5q10 20 28.5 29.5t39.5 9.5v-141h35q14 45 36.5 88t54.5 76.5t73 54t90 20.5q72 0 109.5 -43t54 -104t18.5 -128t2 -114q0 -51 -10 -133t-30.5 -174t-51.5 -185t-73 -168t-94 -122t-116 -47q-76 0 -116.5 39t-60 97 t-23 124t-3.5 119zM166 377q0 -31 1 -66t1 -66v-44q12 -37 34.5 -70t65.5 -33q49 0 88 45t69 117t52.5 158t35.5 169t20.5 150.5t7.5 102.5v48q0 34 -1 70.5t-1 70.5v46q-4 4 -13.5 14.5t-19.5 20.5t-20.5 19.5t-14.5 11.5q-2 0 -6 2q-4 0 -6 1t-4 1q-57 0 -102.5 -44 t-77 -112.5t-53 -152.5t-34 -164t-17.5 -148.5t-5 -103.5v-43zM145 1313q0 18 3 39.5t12.5 40t25.5 31t43 12.5q4 0 15.5 -12.5t15.5 -18.5q4 -29 6 -56.5t-8 -44t-36 -17.5t-77 26zM409 1307q0 18 3 39.5t12.5 40t26 30.5t42.5 12q4 0 15.5 -12t15.5 -18q4 -29 6 -56.5 t-8 -44t-36 -17.5t-77 26z" />
<glyph unicode="&#xf8;" horiz-adv-x="704" d="M63 373q0 96 2.5 176t6.5 159.5t11 168t17 198.5q10 20 28.5 29.5t39.5 9.5v-141h35q14 45 36.5 88t54.5 76.5t73 54t90 20.5q72 0 109.5 -43t54 -104t18.5 -128t2 -114q0 -51 -10 -133t-30.5 -174t-51.5 -185t-73 -168t-94 -122t-116 -47q-76 0 -116.5 39t-60 97 t-23 124t-3.5 119zM166 377q0 -31 1 -66t1 -66v-44q12 -37 34.5 -70t65.5 -33q49 0 88 45t69 117t52.5 158t35.5 169t20.5 150.5t7.5 102.5v48q0 34 -1 70.5t-1 70.5v46q-4 4 -13.5 14.5t-19.5 20.5t-20.5 19.5t-14.5 11.5q-2 0 -6 2q-4 0 -6 1t-4 1q-57 0 -102.5 -44 t-77 -112.5t-53 -152.5t-34 -164t-17.5 -148.5t-5 -103.5v-43zM80.7012 24.0957l412.638 1140.79q4.27051 10.3652 10.1416 27.6416q5.87207 17.2754 14.6807 33.1123q8.80762 15.8359 20.2842 27.6416q11.4775 11.8047 28.0254 11.8047q0 -1.15137 -0.533203 -10.6533 q-0.53418 -9.50195 -0.53418 -11.8057l-7.47363 -24.1855q-4.80371 -17.2764 -10.6758 -35.7041l-11.21 -35.1279q-4.80469 -16.124 -6.94043 -21.8828l-20.8184 -55.8594l-35.7656 -97.3213l-45.9082 -124.387l-51.2461 -138.208l-50.1777 -137.633l-45.374 -124.387 l-35.2324 -97.3213l-20.2842 -56.4355q-10.6768 -29.3691 -21.8867 -68.5283l-23.4883 -82.3486q-12.8105 -42.6143 -27.4912 -83.7881q-14.6797 -41.1748 -34.4307 -73.999q-2.13477 0 -4.80469 -1.15234q-2.66895 -1.15137 -3.73633 -1.15137q-3.20312 0 -5.87207 1.15137 q-2.13477 0 -4.27051 1.15234l-8.54102 9.21387l-9.07422 9.78906v10.3662v9.21387z" />
<glyph unicode="&#xf9;" horiz-adv-x="804" d="M65 983q1 20 8 37.5t27 19.5l35 -32q2 -2 7 -34t11 -75l10 -88q5 -45 5 -72q2 -44 2 -87q0 -32 -1 -62q-3 -72 -4 -141v-18q0 -61 6 -121q7 -69 32 -142q2 -4 15 -17.5t18 -15.5q4 -2 8 -2q4 -2 8 -2q39 0 86 41t94 105.5t91 144.5t78 157.5t54.5 146.5t20.5 110 q0 45 -2 62t-4 28.5t-4 26t-2 55.5q0 6 -4.5 25.5t-8.5 42t-8 42t-4 23.5q2 4 11 10t19.5 11l20.5 9.5t15 4.5q29 0 43 -31t20 -72t7 -80t1 -53q0 -53 -21.5 -143t-58.5 -195.5t-87 -213t-108.5 -195t-122 -142.5t-126.5 -55q-23 0 -47.5 12t-47 32.5t-38 45.5t-19.5 49 q-2 25 -4 77t-6 118.5t-7 139.5l-6 139q-3 67 -6 119t-3 77v115q0 6 -2 24q-1 12 -2 26q1 6 1 13zM-101 1686q20 0 39 7t34 11t27.5 2t22.5 -20q176 -104 309 -167t226.5 -96.5t145.5 -48t66.5 -24t-8.5 -22.5l-77 -46z" />
<glyph unicode="&#xfa;" horiz-adv-x="804" d="M65 983q1 20 8 37.5t27 19.5l35 -32q2 -2 7 -34t11 -75l10 -88q5 -45 5 -72q2 -44 2 -87q0 -32 -1 -62q-3 -72 -4 -141v-18q0 -61 6 -121q7 -69 32 -142q2 -4 15 -17.5t18 -15.5q4 -2 8 -2q4 -2 8 -2q39 0 86 41t94 105.5t91 144.5t78 157.5t54.5 146.5t20.5 110 q0 45 -2 62t-4 28.5t-4 26t-2 55.5q0 6 -4.5 25.5t-8.5 42t-8 42t-4 23.5q2 4 11 10t19.5 11l20.5 9.5t15 4.5q29 0 43 -31t20 -72t7 -80t1 -53q0 -53 -21.5 -143t-58.5 -195.5t-87 -213t-108.5 -195t-122 -142.5t-126.5 -55q-23 0 -47.5 12t-47 32.5t-38 45.5t-19.5 49 q-2 25 -4 77t-6 118.5t-7 139.5l-6 139q-3 67 -6 119t-3 77v115q0 6 -2 24q-1 12 -2 26q1 6 1 13zM143 1316q10 9 47 22.5t102.5 47t159.5 93t219 161.5q8 18 16.5 20.5t19.5 -2.5l24 -11q12 -6 26 -7l-553 -391q-41 31 -56 44.5t-5 22.5z" />
<glyph unicode="&#xfb;" horiz-adv-x="804" d="M65 983q1 20 8 37.5t27 19.5l35 -32q2 -2 7 -34t11 -75l10 -88q5 -45 5 -72q2 -44 2 -87q0 -32 -1 -62q-3 -72 -4 -141v-18q0 -61 6 -121q7 -69 32 -142q2 -4 15 -17.5t18 -15.5q4 -2 8 -2q4 -2 8 -2q39 0 86 41t94 105.5t91 144.5t78 157.5t54.5 146.5t20.5 110 q0 45 -2 62t-4 28.5t-4 26t-2 55.5q0 6 -4.5 25.5t-8.5 42t-8 42t-4 23.5q2 4 11 10t19.5 11l20.5 9.5t15 4.5q29 0 43 -31t20 -72t7 -80t1 -53q0 -53 -21.5 -143t-58.5 -195.5t-87 -213t-108.5 -195t-122 -142.5t-126.5 -55q-23 0 -47.5 12t-47 32.5t-38 45.5t-19.5 49 q-2 25 -4 77t-6 118.5t-7 139.5l-6 139q-3 67 -6 119t-3 77v115q0 6 -2 24q-1 12 -2 26q1 6 1 13zM37 1297q4 8 29 45l58 87l74 105l75 102q35 46 61.5 76.5t34.5 30.5q31 0 55.5 -29.5t45 -75.5t41 -101.5t42 -108t48 -94t61.5 -60.5q-25 -16 -41.5 -44t-26.5 -56l-65 67 l-164 332h-33q-4 0 -25.5 -38t-48.5 -92l-53 -112q-27 -57 -41 -94z" />
<glyph unicode="&#xfc;" horiz-adv-x="804" d="M65 983q1 20 8 37.5t27 19.5l35 -32q2 -2 7 -34t11 -75l10 -88q5 -45 5 -72q2 -44 2 -87q0 -32 -1 -62q-3 -72 -4 -141v-18q0 -61 6 -121q7 -69 32 -142q2 -4 15 -17.5t18 -15.5q4 -2 8 -2q4 -2 8 -2q39 0 86 41t94 105.5t91 144.5t78 157.5t54.5 146.5t20.5 110 q0 45 -2 62t-4 28.5t-4 26t-2 55.5q0 6 -4.5 25.5t-8.5 42t-8 42t-4 23.5q2 4 11 10t19.5 11l20.5 9.5t15 4.5q29 0 43 -31t20 -72t7 -80t1 -53q0 -53 -21.5 -143t-58.5 -195.5t-87 -213t-108.5 -195t-122 -142.5t-126.5 -55q-23 0 -47.5 12t-47 32.5t-38 45.5t-19.5 49 q-2 25 -4 77t-6 118.5t-7 139.5l-6 139q-3 67 -6 119t-3 77v115q0 6 -2 24q-1 12 -2 26q1 6 1 13zM196 1186q0 18 3 39.5t12.5 40t25.5 31t43 12.5q4 0 15.5 -12.5t15.5 -18.5q4 -29 6 -56.5t-8 -44t-36 -17.5t-77 26zM460 1180q0 18 3 39.5t12.5 40t26 30.5t42.5 12 q4 0 15.5 -12t15.5 -18q4 -29 6 -56.5t-8 -44t-36 -17.5t-77 26z" />
<glyph unicode="&#xfd;" horiz-adv-x="1075" d="M68 303q0 88 -1 156q0 23 -1 44q0 43 2 80q2 56 7 106t15 105.5t27.5 120t46.5 150.5q4 0 16.5 3t18.5 3q29 0 47 -15.5t18 -58.5q0 -2 -4 -12t-10 -21l-11 -22q-5 -10 -8 -12q-23 -88 -35 -152.5t-18 -119t-7 -101.5v-32q0 -33 1 -69q2 -54 4 -120t2 -156h25 q2 0 20.5 21.5t41 52.5l46 66.5t35.5 66.5q16 41 47 106l70 141l81 160l80 159l67 141q30 63 44 104q10 29 28.5 34t39.5 5q4 0 16 -2t17 -2l22 -162l33 -225l37 -257l35 -257l28.5 -225.5t16.5 -161.5q2 -8 3 -54.5t2 -104.5t1 -118v-92v-75q0 -52 -1 -111.5t-2 -111.5 t-3 -73l-28 -117q-15 -65 -44 -122.5t-73 -95t-113 -37.5q-90 0 -175.5 32.5t-138.5 106.5h19h16q4 -2 18.5 -7t32 -10.5t31.5 -10.5t18 -7q14 -4 36 -9l43 -10l38 -10l17 -4q57 0 91.5 26t56 65.5t33.5 86.5l21 91v70q0 50 1 105.5t1 105.5v71v89q0 56 -1 112.5t-1 99.5v51 q-4 55 -13 146.5t-23 201.5l-28 230l-30 228l-27 202q-12 92 -18 147l-14 -27l-22 -41l-20 -40q-9 -18 -12 -27q-57 -152 -104 -249t-97 -179t-113 -170l-150 -219q-18 -29 -28.5 -33t-39.5 -4q-43 0 -64.5 29.5t-29.5 71.5q-7 37 -8 77q0 16 1 44.5t1 37.5zM279 1316 q10 9 47 22.5t102.5 47t159.5 93t219 161.5q8 18 16.5 20.5t19.5 -2.5l24 -11q12 -6 26 -7l-553 -391q-41 31 -56 44.5t-5 22.5z" />
<glyph unicode="&#xff;" horiz-adv-x="1075" d="M68 303q0 88 -1 156q0 23 -1 44q0 43 2 80q2 56 7 106t15 105.5t27.5 120t46.5 150.5q4 0 16.5 3t18.5 3q29 0 47 -15.5t18 -58.5q0 -2 -4 -12t-10 -21l-11 -22q-5 -10 -8 -12q-23 -88 -35 -152.5t-18 -119t-7 -101.5v-32q0 -33 1 -69q2 -54 4 -120t2 -156h25 q2 0 20.5 21.5t41 52.5l46 66.5t35.5 66.5q16 41 47 106l70 141l81 160l80 159l67 141q30 63 44 104q10 29 28.5 34t39.5 5q4 0 16 -2t17 -2l22 -162l33 -225l37 -257l35 -257l28.5 -225.5t16.5 -161.5q2 -8 3 -54.5t2 -104.5t1 -118v-92v-75q0 -52 -1 -111.5t-2 -111.5 t-3 -73l-28 -117q-15 -65 -44 -122.5t-73 -95t-113 -37.5q-90 0 -175.5 32.5t-138.5 106.5h19h16q4 -2 18.5 -7t32 -10.5t31.5 -10.5t18 -7q14 -4 36 -9l43 -10l38 -10l17 -4q57 0 91.5 26t56 65.5t33.5 86.5l21 91v70q0 50 1 105.5t1 105.5v71v89q0 56 -1 112.5t-1 99.5v51 q-4 55 -13 146.5t-23 201.5l-28 230l-30 228l-27 202q-12 92 -18 147l-14 -27l-22 -41l-20 -40q-9 -18 -12 -27q-57 -152 -104 -249t-97 -179t-113 -170l-150 -219q-18 -29 -28.5 -33t-39.5 -4q-43 0 -64.5 29.5t-29.5 71.5q-7 37 -8 77q0 16 1 44.5t1 37.5zM311 1325 q0 18 3 39.5t12.5 40t25.5 31t43 12.5q4 0 15.5 -12.5t15.5 -18.5q4 -29 6 -56.5t-8 -44t-36 -17.5t-77 26zM575 1319q0 18 3 39.5t12.5 40t26 30.5t42.5 12q4 0 15.5 -12t15.5 -18q4 -29 6 -56.5t-8 -44t-36 -17.5t-77 26z" />
<glyph unicode="&#x152;" horiz-adv-x="1671" d="M62 371q1 45 1 75q0 31 1.5 92.5t6.5 138.5t14 161t24.5 158.5t38 131t55.5 80.5q2 2 32.5 8.5t69.5 12.5l73 11q34 5 42 5q49 0 82 -25.5t53 -65.5t31.5 -90t16.5 -101.5t5 -97.5v-77q0 -45 -8 -120.5t-24.5 -163.5t-44 -177t-67.5 -162t-92.5 -119t-119.5 -46 q-53 0 -88 24.5t-56.5 64.5t-30.5 89t-12 98q-2 37 -3 72v23zM161 273q3 -56 21.5 -99t63.5 -43q55 0 96 40t70.5 102.5t48 139t30 151.5t15.5 139.5t4 101.5q0 14 -1 48t-2 72t-2 70.5t-1 44.5q-12 39 -35 72t-66 33q-4 0 -17 -2t-15 -2q-59 -82 -98.5 -163t-63 -165 t-33.5 -173t-10 -187q0 -18 -4 -71q-2 -30 -3 -61zM526 244q0 57 28 109.5t60.5 102.5t60.5 98t28 97q0 33 -29 50.5t-62.5 35t-60.5 38.5q-22 17 -22 47q0 7 2 14q12 88 53 184t105.5 175t149.5 130t185 51q20 0 46 -1t48.5 -9t38 -26.5t15.5 -51.5q0 -2 -1 -3t-1 -5 q-2 -4 -2 -8q0 -6 -6 -16l-10 -21l-10 -19.5t-7 -11.5t-6 -2h-11h-10q-4 0 -6 2q-14 8 -28.5 25.5t-31 34t-36 29t-39.5 12.5q-53 0 -107.5 -45t-98.5 -108.5t-71.5 -132.5t-27.5 -116q0 -59 14 -81.5t74 -22.5q51 0 98 22.5t93 48t93 48t101 22.5q8 0 19 -1t21.5 -4 t18.5 -10t8 -22q0 -33 -42 -67.5t-105 -74.5l-138 -88q-75 -48 -138.5 -106.5t-105.5 -129t-42 -156.5q0 -55 18.5 -92t51 -57.5t75.5 -29t90 -8.5q113 0 215.5 39t195.5 101.5t175 140.5t154 158h39q0 -57 -42 -121t-108.5 -123.5t-150.5 -113.5t-167 -95t-157 -64.5 t-123 -23.5q-59 0 -123.5 11t-120 41t-91.5 78t-36 122z" />
<glyph unicode="&#x153;" horiz-adv-x="1273" d="M63 373q0 96 2.5 176t6.5 159.5t11 168t17 198.5q10 20 28.5 29.5t39.5 9.5v-141h35q14 45 36.5 88t54.5 76.5t73 54t90 20.5q72 0 109.5 -43t54 -104t18.5 -128t2 -114q0 -51 -10 -133t-30.5 -174t-51.5 -185t-73 -168t-94 -122t-116 -47q-76 0 -116.5 39t-60 97 t-23 124t-3.5 119zM166 377q0 -31 1 -66t1 -66v-44q12 -37 34.5 -70t65.5 -33q49 0 88 45t69 117t52.5 158t35.5 169t20.5 150.5t7.5 102.5v48q0 34 -1 70.5t-1 70.5v46q-4 4 -13.5 14.5t-19.5 20.5t-20.5 19.5t-14.5 11.5q-2 0 -6 2q-4 0 -6 1t-4 1q-57 0 -102.5 -44 t-77 -112.5t-53 -152.5t-34 -164t-17.5 -148.5t-5 -103.5v-43zM473 233q0 63 23.5 159.5t64.5 202t97 211t122 190.5t138.5 137t146.5 52q0 -143 -33 -259.5t-86 -221t-125 -206.5l-148 -216q-23 -35 -29.5 -51t-6.5 -49q0 -43 23.5 -56.5t64.5 -13.5q63 0 128.5 38 t126 92.5t111.5 111.5l86 96q0 -4 2 -16t2 -17q0 -70 -52 -141.5t-127 -130.5t-160 -97t-150 -38q-43 0 -83 17.5t-69.5 47t-48 70.5t-18.5 88zM608 417q2 0 7 -2t9 -2q23 0 59 37t74.5 93.5t77.5 127t71 138t51.5 125t19.5 88.5q0 8 -13.5 20t-19.5 12q-37 0 -75 -37.5 t-74 -98t-68.5 -134.5t-58 -144.5t-42 -131t-18.5 -91.5z" />
<glyph unicode="&#x178;" horiz-adv-x="872" d="M33 1343v33h100l42 -93l50 -117q27 -62 58.5 -126.5t66.5 -122t74 -104.5t80 -74q8 33 19 102l25 155q13 87 29.5 184.5t36 189.5t41 172t46 129t52.5 63q7 3 13 3q21 0 45 -31q-45 -219 -78 -421t-57.5 -399.5t-42 -396t-29.5 -409.5v-12q-4 -6 -13 -16.5t-19.5 -21 t-20.5 -19.5t-14 -11t-9 -2q-2 -2 -6 -2h-2q-6 0 -10 2q-4 0 -6 2q-8 4 -21.5 17.5t-13.5 15.5v571l-44 52l-57 73l-58 77q-28 38 -42 66l-66 130l-78 154l-65 129q-26 54 -26 58zM174 1506q0 18 3 39.5t12.5 40t25.5 31t43 12.5q4 0 15.5 -12.5t15.5 -18.5q4 -29 6 -56.5 t-8 -44t-36 -17.5t-77 26zM438 1500q0 18 3 39.5t12.5 40t26 30.5t42.5 12q4 0 15.5 -12t15.5 -18q4 -29 6 -56.5t-8 -44t-36 -17.5t-77 26z" />
<glyph unicode="&#x2c6;" horiz-adv-x="1128" d="M348 1221q4 8 29 45l58 87l74 105l75 102q35 46 61.5 76.5t34.5 30.5q31 0 55.5 -29.5t45 -75.5t41 -101.5t42 -108t48 -94t61.5 -60.5q-25 -16 -41.5 -44t-26.5 -56l-65 67l-164 332h-33q-4 0 -25.5 -38t-48.5 -92l-53 -112q-27 -57 -41 -94z" />
<glyph unicode="&#x2da;" horiz-adv-x="1212" d="M444 1192v33q0 12 3.5 42.5t13.5 64.5t30.5 62.5t55.5 39.5q2 0 24.5 2t50 3t53 3t32.5 2q53 0 81.5 -15.5t41 -35t14.5 -41t2 -33.5q0 -18 -13.5 -55t-44 -73t-81 -62.5t-123.5 -26.5q-59 0 -88 14t-40.5 35t-11.5 41zM516 1176.5q2 -15.5 15.5 -26.5t48.5 -11 q61 0 99 22.5t59.5 53t28.5 61.5t7 47q0 8 -3 32.5t-3 30.5q-10 10 -25.5 19.5t-48.5 9.5h-22q-86 -45 -119 -90t-33 -98q0 -6 -3 -20.5t-1 -30z" />
<glyph unicode="&#x2dc;" horiz-adv-x="1576" d="M62 95.5q1 23.5 1 39.5q0 31 4.5 88.5t16.5 125t31.5 137t49.5 127t72 93t97 35.5q72 0 129 -32.5t106 -80.5t94.5 -105.5t96.5 -105.5t110.5 -81t137.5 -33q80 0 153.5 40t137 97.5t117.5 120.5l95 111q0 -4 2.5 -24.5t2.5 -26.5q0 -84 -46.5 -156t-117 -124t-154.5 -81 t-158 -29q-117 0 -207 32t-166.5 86t-147.5 128l-148 160q-4 0 -9.5 2t-9.5 2q-49 0 -80.5 -39t-52 -100.5t-32 -136t-19.5 -145.5l-15 -130q-7 -59 -18 -90q-4 0 -9 -2t-7 -2q-27 0 -39 16.5t-15.5 38t-2.5 45z" />
<glyph unicode="&#x2000;" horiz-adv-x="1210" />
<glyph unicode="&#x2001;" horiz-adv-x="2420" />
<glyph unicode="&#x2002;" horiz-adv-x="1210" />
<glyph unicode="&#x2003;" horiz-adv-x="2420" />
<glyph unicode="&#x2004;" horiz-adv-x="806" />
<glyph unicode="&#x2005;" horiz-adv-x="604" />
<glyph unicode="&#x2006;" horiz-adv-x="403" />
<glyph unicode="&#x2007;" horiz-adv-x="403" />
<glyph unicode="&#x2008;" horiz-adv-x="301" />
<glyph unicode="&#x2009;" horiz-adv-x="483" />
<glyph unicode="&#x200a;" horiz-adv-x="133" />
<glyph unicode="&#x2010;" horiz-adv-x="1040" d="M29 84q0 6 2 10q0 4 2 6q4 4 16 17.5t17 17.5q156 -12 266 -3t209 27l198 34q100 16 234 16v-109l-46 -8l-111 -19l-133 -23q-69 -11 -114 -17q-29 -4 -80 -9l-105 -11l-97 -9q-43 -4 -54 -4q-4 0 -36.5 2t-69.5 10t-67.5 24.5t-30.5 47.5z" />
<glyph unicode="&#x2011;" horiz-adv-x="1040" d="M29 84q0 6 2 10q0 4 2 6q4 4 16 17.5t17 17.5q156 -12 266 -3t209 27l198 34q100 16 234 16v-109l-46 -8l-111 -19l-133 -23q-69 -11 -114 -17q-29 -4 -80 -9l-105 -11l-97 -9q-43 -4 -54 -4q-4 0 -36.5 2t-69.5 10t-67.5 24.5t-30.5 47.5z" />
<glyph unicode="&#x2012;" horiz-adv-x="1040" d="M29 84q0 6 2 10q0 4 2 6q4 4 16 17.5t17 17.5q156 -12 266 -3t209 27l198 34q100 16 234 16v-109l-46 -8l-111 -19l-133 -23q-69 -11 -114 -17q-29 -4 -80 -9l-105 -11l-97 -9q-43 -4 -54 -4q-4 0 -36.5 2t-69.5 10t-67.5 24.5t-30.5 47.5z" />
<glyph unicode="&#x2013;" horiz-adv-x="1024" d="M29 0v209h927v-209h-927z" />
<glyph unicode="&#x2014;" horiz-adv-x="2048" d="M29 0v209h1951v-209h-1951z" />
<glyph unicode="&#x2018;" horiz-adv-x="368" d="M135 1030v656q43 0 78 -24t57 -60l-4 -420q0 -37 7.5 -58.5t16.5 -39t16 -37t7 -52.5h-145z" />
<glyph unicode="&#x2019;" horiz-adv-x="368" d="M135 1030v656q43 0 78 -24t57 -60l-4 -420q0 -37 7.5 -58.5t16.5 -39t16 -37t7 -52.5h-145z" />
<glyph unicode="&#x201a;" horiz-adv-x="368" d="M135 1030v656q43 0 78 -24t57 -60l-4 -420q0 -37 7.5 -58.5t16.5 -39t16 -37t7 -52.5h-145z" />
<glyph unicode="&#x201c;" horiz-adv-x="571" d="M68 772v569q0 6 12 18.5t20 16.5q4 0 9 2q4 0 6 1t6 1q2 0 3 -1t5 -1q2 -2 6 -2q4 -6 9.5 -19.5t10.5 -29.5l9 -31q4 -14 4 -20v-504q0 -4 -12.5 -16.5t-20.5 -18.5q-4 -2 -8 -2h-8h-10q-4 0 -9 2q-8 6 -20 18.5t-12 16.5zM336 737v19q0 80 18.5 152.5t18.5 164.5v41 q0 29 -1 60.5t-1 60.5v41q-6 8 -18.5 33.5t-16.5 31.5v19q0 29 21.5 41t45.5 12q39 0 60.5 -27.5t30 -66.5t9.5 -79t1 -64v-132q0 -66 -11.5 -127t-39 -116.5t-82.5 -95.5q-6 4 -19 16z" />
<glyph unicode="&#x201d;" horiz-adv-x="571" d="M68 772v569q0 6 12 18.5t20 16.5q4 0 9 2q4 0 6 1t6 1q2 0 3 -1t5 -1q2 -2 6 -2q4 -6 9.5 -19.5t10.5 -29.5l9 -31q4 -14 4 -20v-504q0 -4 -12.5 -16.5t-20.5 -18.5q-4 -2 -8 -2h-8h-10q-4 0 -9 2q-8 6 -20 18.5t-12 16.5zM336 737v19q0 80 18.5 152.5t18.5 164.5v41 q0 29 -1 60.5t-1 60.5v41q-6 8 -18.5 33.5t-16.5 31.5v19q0 29 21.5 41t45.5 12q39 0 60.5 -27.5t30 -66.5t9.5 -79t1 -64v-132q0 -66 -11.5 -127t-39 -116.5t-82.5 -95.5q-6 4 -19 16z" />
<glyph unicode="&#x201e;" horiz-adv-x="571" d="M68 772v569q0 6 12 18.5t20 16.5q4 0 9 2q4 0 6 1t6 1q2 0 3 -1t5 -1q2 -2 6 -2q4 -6 9.5 -19.5t10.5 -29.5l9 -31q4 -14 4 -20v-504q0 -4 -12.5 -16.5t-20.5 -18.5q-4 -2 -8 -2h-8h-10q-4 0 -9 2q-8 6 -20 18.5t-12 16.5zM336 737v19q0 80 18.5 152.5t18.5 164.5v41 q0 29 -1 60.5t-1 60.5v41q-6 8 -18.5 33.5t-16.5 31.5v19q0 29 21.5 41t45.5 12q39 0 60.5 -27.5t30 -66.5t9.5 -79t1 -64v-132q0 -66 -11.5 -127t-39 -116.5t-82.5 -95.5q-6 4 -19 16z" />
<glyph unicode="&#x2026;" horiz-adv-x="1443" d="M172 31q0 18 3 39.5t12.5 40t25.5 31t43 12.5q4 0 15.5 -12.5t15.5 -18.5q4 -29 6 -56.5t-8.5 -44t-36 -17.5t-76.5 26zM653 31q0 18 3 39.5t12.5 40t26 31t42.5 12.5q4 0 15.5 -12.5t15.5 -18.5q4 -29 6 -56.5t-8 -44t-36 -17.5t-77 26zM1135 31q0 18 3 39.5t12 40 t25.5 31t43.5 12.5q4 0 15 -12.5t15 -18.5q4 -29 6 -56.5t-8 -44t-35.5 -17.5t-76.5 26z" />
<glyph unicode="&#x202f;" horiz-adv-x="483" />
<glyph unicode="&#x2039;" horiz-adv-x="872" d="M0 571q8 4 27 19l40 31l41 30l27 21q14 12 43 41l66 65l77 77l76 77l65 65l42 43h33v-67l-369 -436q-10 -12 5 -35t46 -50.5t70 -57.5l76 -55l66 -45q30 -19 40 -26q18 -10 66 -34l101 -50l101 -51q47 -25 66 -33v-16v-16q0 -6 -5 -17l-10 -20q-5 -10 -10.5 -19.5 t-7.5 -11.5q-4 -2 -6 -2q-4 -2 -8 -2q-41 0 -110.5 31.5t-151.5 83t-167 116t-156 128t-118 120.5t-55 96z" />
<glyph unicode="&#x203a;" horiz-adv-x="839" d="M57 1124q18 0 81 -21.5t146 -54.5l176 -72l170 -72l128 -56q51 -23 51 -25t-1 -4t-1 -6v-8l-13 -28q-9 -19 -21 -41l-20 -40q-9 -18 -14 -24l-50 -75l-77 -114l-90 -133l-90 -132l-78 -113l-51 -72l-16 -17q-12 -12 -19 -16q-2 -2 -6 -2q-4 -2 -10 -2q-4 0 -8 2 q-4 0 -8 2q-4 4 -17.5 16.5t-15.5 16.5v18q0 37 24.5 81t57 87t66.5 82t52 68l49 72l70 112l71 112q34 52 46 74q0 2 1 7.5t1 9.5q0 20 -43 40.5t-109 42.5l-140 48q-75 27 -140.5 60.5t-108.5 76.5t-43 100z" />
<glyph unicode="&#x205f;" horiz-adv-x="604" />
<glyph unicode="&#x2122;" horiz-adv-x="2506" d="M29 1292q0 31 33.5 50.5t79.5 34t91.5 21.5t67.5 13q154 37 297 63.5t286.5 44t289 26.5t303.5 9v-43q-135 -2 -286 -22.5t-301.5 -51t-292.5 -65.5l-261 -63q-8 0 -38 -11l-64 -21l-63 -22q-30 -10 -38 -12q-2 0 -15.5 -2t-17.5 -2q-27 0 -49 11t-22 42zM569 1276v20v13 q4 6 16.5 18t18.5 16q25 -18 40 -44.5t26 -55.5q2 -37 5 -112.5t6 -172t7 -202t7 -201.5t5 -173t5 -114v-96q0 -49 -10.5 -95t-57.5 -77l-33 33q0 27 1 83t1 126v146v147q0 70 -1 124t-1 80q0 14 -2 55.5t-6 96.5t-8 116.5t-8 116.5l-8 97q-3 41 -3 55zM1114 1382v41 q0 16 2 39t31 23q61 0 94 -69.5t53.5 -175t36 -227.5t42 -227.5t70.5 -175t124 -69.5q4 0 9 2t9 2q82 137 140.5 279.5t109.5 285.5l102 288q51 144 117 288q4 4 16.5 5t16.5 1q23 0 35 -8.5t18 -21.5t8 -32.5t6 -44.5l203 -1143q0 -2 1 -20.5t1 -28.5v-42q0 -26 -4 -51.5 t-14 -43.5t-31 -18q-35 0 -59.5 70.5t-44 182t-33.5 250t-31.5 273.5t-38 250.5t-49.5 185.5q-6 -18 -18 -58l-29 -90l-35 -106l-36 -104l-30 -88l-20 -58q-18 -53 -44.5 -139t-63.5 -168t-87.5 -140.5t-119.5 -58.5q-72 0 -123 39t-88 95.5t-64 120.5l-47 118v-436 q0 -8 -13 -34t-22 -34q-2 -2 -6 -2q-4 -2 -10 -2t-10 2q-4 0 -6 2q-4 2 -18 16l-17 17q-2 39 -4 120t-6 183.5t-7.5 216l-6.5 216t-6 184t-3 120.5z" />
<glyph unicode="&#xe000;" horiz-adv-x="1215" d="M0 1215h1215v-1215h-1215v1215z" />
<glyph unicode="&#xfb01;" horiz-adv-x="1239" d="M29 956q0 33 44 60.5t101 51.5t113.5 41t81.5 32q0 27 3 79t6 118l6 140q3 73 7 139t6 118.5t4 76.5q6 61 19.5 117t42.5 97.5t73 66.5t111 25q66 0 102.5 -52.5t36.5 -113.5q0 -16 -8 -23.5t-20 -13.5l-27 -13q-14 -7 -26 -22q-16 82 -50 103q-18 12 -35 12l-30 -8 q-33 -18 -58.5 -67.5t-27.5 -107.5v-630q12 -4 45 7t76 30.5t91 44.5l91 46l77 38q34 16 48 18q4 0 20.5 -29.5t20.5 -60.5l-436 -201l-33 -35q6 -31 16 -96t24.5 -147t28.5 -173l27 -175l23 -150q10 -66 14 -98q2 -10 4 -40t4 -64t4 -63.5t2 -39.5q-6 0 -24.5 1t-22.5 5 q-10 6 -27.5 8t-34 2t-29.5 1t-13 3q17 2 16 62v14q-2 74 -14.5 184.5t-32.5 238.5t-40.5 238.5t-36 184.5t-19.5 74q-6 0 -20.5 -1t-16.5 -1q-10 -2 -44 -17l-74 -32l-75 -32q-35 -15 -43 -20h-16h-18q-4 2 -16.5 15.5t-16.5 17.5q-2 4 -2 8q-2 4 -2 8zM791 1525 q10 29 26.5 33t36.5 4q16 0 40 -1t46.5 -6t39 -15t16.5 -31q0 -2 -1 -4t-1 -6q-2 -4 -2 -8q-8 -8 -34 -20.5t-32 -12.5q-12 0 -31.5 5t-40 13t-38 20.5t-25.5 28.5zM959 1054l68 35q47 -106 68.5 -226t28.5 -244q6 -96 5 -192v-55q-2 -123 -2 -233q0 -16 1 -37.5t-2 -42 t-14.5 -35t-35.5 -14.5q-2 0 -7.5 2t-9.5 2q-2 31 -7 93.5t-12 142.5l-15 166l-14 167q-7 80 -12 142.5t-7 93.5q0 14 -5.5 48t-10.5 72t-10 70z" />
<glyph unicode="&#xfb02;" horiz-adv-x="1198" d="M29 956q0 33 44 60.5t101 51.5t113.5 41t81.5 32q0 27 3 79t6 118l6 140q3 73 7 139t6 118.5t4 76.5q6 61 19.5 117t42.5 97.5t73 66.5t111 25q66 0 102.5 -52.5t36.5 -113.5q0 -16 -8 -23.5t-20 -13.5l-27 -13q-14 -7 -26 -22q-16 82 -50 103q-18 12 -35 12l-30 -8 q-33 -18 -58.5 -67.5t-27.5 -107.5v-630q12 -4 45 7t76 30.5t91 44.5l91 46l77 38q34 16 48 18q4 0 20.5 -29.5t20.5 -60.5l-436 -201l-33 -35q6 -31 16 -96t24.5 -147t28.5 -173l27 -175l23 -150q10 -66 14 -98q2 -10 4 -40t4 -64t4 -63.5t2 -39.5q-6 0 -24.5 1t-22.5 5 q-10 6 -27.5 8t-34 2t-29.5 1t-13 3q17 2 16 62v14q-2 74 -14.5 184.5t-32.5 238.5t-40.5 238.5t-36 184.5t-19.5 74q-6 0 -20.5 -1t-16.5 -1q-10 -2 -44 -17l-74 -32l-75 -32q-35 -15 -43 -20h-16h-18q-4 2 -16.5 15.5t-16.5 17.5q-2 4 -2 8q-2 4 -2 8zM848 1694 q0 8 12.5 34t20.5 34h6q4 0 6 1t6 1q27 0 42.5 -22.5t24.5 -52.5t12 -57.5t5 -37.5l101 -1477l17 -34q13 -26 15 -33q0 -4 2 -9q0 -4 1 -7t1 -5t-1 -4t-1 -4q-2 -4 -2 -6q-2 -2 -27.5 -15.5t-39.5 -17.5h-17h-16q-8 4 -20.5 16.5t-12.5 16.5l-67 1343q0 6 -5 32l-9 57 q-5 32 -11 64t-10 48q0 6 -5 26l-12 43l-11 43q-5 19 -5 23z" />
<glyph unicode="&#xfb03;" horiz-adv-x="2418" d="M2015 1511q10 29 26.5 33t36.5 4q16 0 40 -1t46.5 -6t39 -15t16.5 -31q0 -2 -1 -4t-1 -6q-2 -4 -2 -8q-8 -8 -34 -20.5t-32 -12.5q-12 0 -31.5 5t-40 13t-38 20.5t-25.5 28.5zM2183 1040l68 35q47 -106 68.5 -226t28.5 -244q6 -96 5 -192v-55q-2 -123 -2 -233 q0 -16 1 -37.5t-2 -42t-14.5 -35t-35.5 -14.5q-2 0 -7.5 2t-9.5 2q-2 31 -7 93.5t-12 142.5l-15 166l-14 167q-7 80 -12 142.5t-7 93.5q0 14 -5.5 48t-10.5 72t-10 70zM1037 956q0 33 44 60.5t101 51.5t113.5 41t81.5 32q0 27 3 79t6 118l6 140q3 73 7 139t6 118.5t4 76.5 q6 61 19.5 117t42.5 97.5t73 66.5t111 25q66 0 102.5 -52.5t36.5 -113.5q0 -16 -8 -23.5t-20 -13.5l-27 -13q-14 -7 -26 -22q-16 82 -50 103q-18 12 -35 12l-30 -8q-33 -18 -58.5 -67.5t-27.5 -107.5v-630q12 -4 45 7t76 30.5t91 44.5l91 46l77 38q34 16 48 18 q4 0 20.5 -29.5t20.5 -60.5l-436 -201l-33 -35q6 -31 16 -96t24.5 -147t28.5 -173l27 -175l23 -150q10 -66 14 -98q2 -10 4 -40t4 -64t4 -63.5t2 -39.5q-6 0 -24.5 1t-22.5 5q-10 6 -27.5 8t-34 2t-29.5 1t-13 3q17 2 16 62v14q-2 74 -14.5 184.5t-32.5 238.5t-40.5 238.5 t-36 184.5t-19.5 74q-6 0 -20.5 -1t-16.5 -1q-10 -2 -44 -17l-74 -32l-75 -32q-35 -15 -43 -20h-16h-18q-4 2 -16.5 15.5t-16.5 17.5q-2 4 -2 8q-2 4 -2 8zM29 956q0 33 44 60.5t101 51.5t113.5 41t81.5 32q0 27 3 79t6 118l6 140q3 73 7 139t6 118.5t4 76.5q6 61 19.5 117 t42.5 97.5t73 66.5t111 25q66 0 102.5 -52.5t36.5 -113.5q0 -16 -8 -23.5t-20 -13.5l-27 -13q-14 -7 -26 -22q-16 82 -50 103q-18 12 -35 12l-30 -8q-33 -18 -58.5 -67.5t-27.5 -107.5v-630q12 -4 45 7t76 30.5t91 44.5l91 46l77 38q34 16 48 18q4 0 20.5 -29.5t20.5 -60.5 l-436 -201l-33 -35q6 -31 16 -96t24.5 -147t28.5 -173l27 -175l23 -150q10 -66 14 -98q2 -10 4 -40t4 -64t4 -63.5t2 -39.5q-6 0 -24.5 1t-22.5 5q-10 6 -27.5 8t-34 2t-29.5 1t-13 3q17 2 16 62v14q-2 74 -14.5 184.5t-32.5 238.5t-40.5 238.5t-36 184.5t-19.5 74 q-6 0 -20.5 -1t-16.5 -1q-10 -2 -44 -17l-74 -32l-75 -32q-35 -15 -43 -20h-16h-18q-4 2 -16.5 15.5t-16.5 17.5q-2 4 -2 8q-2 4 -2 8z" />
<glyph unicode="&#xfb04;" horiz-adv-x="2318" d="M2015 1712q0 8 12.5 34t20.5 34h6q4 0 6 1t6 1q27 0 42.5 -22.5t24.5 -52.5t12 -57.5t5 -37.5l101 -1477l17 -34q13 -26 15 -33q0 -4 2 -9q0 -4 1 -7t1 -5t-1 -4t-1 -4q-2 -4 -2 -6q-2 -2 -27.5 -15.5t-39.5 -17.5h-17h-16q-8 4 -20.5 16.5t-12.5 16.5l-67 1343 q0 6 -5 32l-9 57q-5 32 -11 64t-10 48q0 6 -5 26l-12 43l-11 43q-5 19 -5 23zM1037 956q0 33 44 60.5t101 51.5t113.5 41t81.5 32q0 27 3 79t6 118l6 140q3 73 7 139t6 118.5t4 76.5q6 61 19.5 117t42.5 97.5t73 66.5t111 25q66 0 102.5 -52.5t36.5 -113.5q0 -16 -8 -23.5 t-20 -13.5l-27 -13q-14 -7 -26 -22q-16 82 -50 103q-18 12 -35 12l-30 -8q-33 -18 -58.5 -67.5t-27.5 -107.5v-630q12 -4 45 7t76 30.5t91 44.5l91 46l77 38q34 16 48 18q4 0 20.5 -29.5t20.5 -60.5l-436 -201l-33 -35q6 -31 16 -96t24.5 -147t28.5 -173l27 -175l23 -150 q10 -66 14 -98q2 -10 4 -40t4 -64t4 -63.5t2 -39.5q-6 0 -24.5 1t-22.5 5q-10 6 -27.5 8t-34 2t-29.5 1t-13 3q17 2 16 62v14q-2 74 -14.5 184.5t-32.5 238.5t-40.5 238.5t-36 184.5t-19.5 74q-6 0 -20.5 -1t-16.5 -1q-10 -2 -44 -17l-74 -32l-75 -32q-35 -15 -43 -20h-16 h-18q-4 2 -16.5 15.5t-16.5 17.5q-2 4 -2 8q-2 4 -2 8zM29 956q0 33 44 60.5t101 51.5t113.5 41t81.5 32q0 27 3 79t6 118l6 140q3 73 7 139t6 118.5t4 76.5q6 61 19.5 117t42.5 97.5t73 66.5t111 25q66 0 102.5 -52.5t36.5 -113.5q0 -16 -8 -23.5t-20 -13.5l-27 -13 q-14 -7 -26 -22q-16 82 -50 103q-18 12 -35 12l-30 -8q-33 -18 -58.5 -67.5t-27.5 -107.5v-630q12 -4 45 7t76 30.5t91 44.5l91 46l77 38q34 16 48 18q4 0 20.5 -29.5t20.5 -60.5l-436 -201l-33 -35q6 -31 16 -96t24.5 -147t28.5 -173l27 -175l23 -150q10 -66 14 -98 q2 -10 4 -40t4 -64t4 -63.5t2 -39.5q-6 0 -24.5 1t-22.5 5q-10 6 -27.5 8t-34 2t-29.5 1t-13 3q17 2 16 62v14q-2 74 -14.5 184.5t-32.5 238.5t-40.5 238.5t-36 184.5t-19.5 74q-6 0 -20.5 -1t-16.5 -1q-10 -2 -44 -17l-74 -32l-75 -32q-35 -15 -43 -20h-16h-18 q-4 2 -16.5 15.5t-16.5 17.5q-2 4 -2 8q-2 4 -2 8z" />
</font>
</defs>
</svg>
